<?xml version="1.0" encoding="UTF-8" standalone="no"?>
<!-- Created with Inkscape (http://www.inkscape.org/) -->

<svg
   width="210mm"
   height="297mm"
   viewBox="0 0 210 297"
   version="1.1"
   id="svg5"
   inkscape:version="1.1.1 (3bf5ae0d25, 2021-09-20)"
   sodipodi:docname="graphics-carathaus.svg"
   xmlns:inkscape="http://www.inkscape.org/namespaces/inkscape"
   xmlns:sodipodi="http://sodipodi.sourceforge.net/DTD/sodipodi-0.dtd"
   xmlns:xlink="http://www.w3.org/1999/xlink"
   xmlns="http://www.w3.org/2000/svg"
   xmlns:svg="http://www.w3.org/2000/svg">
  <sodipodi:namedview
     id="namedview7"
     pagecolor="#ffc3ff"
     bordercolor="#666666"
     borderopacity="1.0"
     inkscape:pageshadow="2"
     inkscape:pageopacity="0"
     inkscape:pagecheckerboard="0"
     inkscape:document-units="mm"
     showgrid="false"
     inkscape:zoom="0.11313708"
     inkscape:cx="24253.763"
     inkscape:cy="11821.942"
     inkscape:window-width="1920"
     inkscape:window-height="991"
     inkscape:window-x="-9"
     inkscape:window-y="1341"
     inkscape:window-maximized="1"
     inkscape:current-layer="layer1"
     inkscape:snap-global="false" />
  <defs
     id="defs2">
    <inkscape:path-effect
       effect="powerclip"
       id="path-effect6954"
       is_visible="true"
       lpeversion="1"
       inverse="true"
       flatten="false"
       hide_clip="false"
       message="Use fill-rule evenodd on &lt;b&gt;fill and stroke&lt;/b&gt; dialog if no flatten result after convert clip to paths." />
    <inkscape:path-effect
       effect="powerclip"
       id="path-effect6950"
       is_visible="true"
       lpeversion="1"
       inverse="true"
       flatten="false"
       hide_clip="false"
       message="Use fill-rule evenodd on &lt;b&gt;fill and stroke&lt;/b&gt; dialog if no flatten result after convert clip to paths." />
    <inkscape:path-effect
       effect="powerclip"
       id="path-effect3256"
       is_visible="true"
       lpeversion="1"
       inverse="true"
       flatten="false"
       hide_clip="false"
       message="Use fill-rule evenodd on &lt;b&gt;fill and stroke&lt;/b&gt; dialog if no flatten result after convert clip to paths." />
    <inkscape:path-effect
       effect="powerclip"
       id="path-effect2085"
       is_visible="true"
       lpeversion="1"
       inverse="true"
       flatten="false"
       hide_clip="false"
       message="Use fill-rule evenodd on &lt;b&gt;fill and stroke&lt;/b&gt; dialog if no flatten result after convert clip to paths." />
    <clipPath
       clipPathUnits="userSpaceOnUse"
       id="clipPath2081">
      <path
         id="path2083"
         style="display:none;fill:#b0006f;fill-opacity:0.421525;stroke-width:0.470575;stroke-linecap:round;stroke-linejoin:round"
         d="m 81.84578,103.49502 c 0,1.37436 -4.706242,10.74421 -11.753562,11.63867 -3.221098,0.40883 -11.697959,-7.69878 -12.003103,-7.21254 -1.762755,2.80896 -4.973849,4.99864 -8.605719,4.99864 -5.476795,0 -9.916612,-4.8191 -9.916612,-10.76376 0,-5.944661 4.439819,-10.763758 9.916612,-10.763758 3.509463,0 6.140331,1.769366 8.07379,4.647356 0.514498,0.765839 13.350425,-11.663273 13.350425,-11.663273 4.333777,-3.7861 10.938169,18.095225 10.938169,19.118665 z"
         sodipodi:nodetypes="sssssssss" />
      <path
         id="lpe_path-effect2085"
         style="fill:#b0006f;fill-opacity:0.421525;stroke-width:0.470575;stroke-linecap:round;stroke-linejoin:round"
         class="powerclip"
         d="M 23.208178,75.895168 H 75.482199 V 128.36852 H 23.208178 Z M 81.84578,103.49502 c 0,-1.02344 -6.604392,-22.904765 -10.938169,-19.118665 0,0 -12.835927,12.429112 -13.350425,11.663273 -1.933459,-2.87799 -4.564327,-4.647356 -8.07379,-4.647356 -5.476793,0 -9.916612,4.819097 -9.916612,10.763758 0,5.94466 4.439817,10.76376 9.916612,10.76376 3.63187,0 6.842964,-2.18968 8.605719,-4.99864 0.305144,-0.48624 8.782005,7.62137 12.003103,7.21254 7.04732,-0.89446 11.753562,-10.26431 11.753562,-11.63867 z" />
    </clipPath>
    <clipPath
       clipPathUnits="userSpaceOnUse"
       id="clipPath2081-5">
      <path
         id="path2083-6"
         style="display:none;fill:#b0006f;fill-opacity:0.421525;stroke-width:0.470575;stroke-linecap:round;stroke-linejoin:round"
         d="m 81.84578,103.49502 c 0,1.37436 -4.706242,10.74421 -11.753562,11.63867 -3.221098,0.40883 -11.697959,-7.69878 -12.003103,-7.21254 -1.762755,2.80896 -4.973849,4.99864 -8.605719,4.99864 -5.476795,0 -9.916612,-4.8191 -9.916612,-10.76376 0,-5.944661 4.439819,-10.763758 9.916612,-10.763758 3.509463,0 6.140331,1.769366 8.07379,4.647356 0.514498,0.765839 13.350425,-11.663273 13.350425,-11.663273 4.333777,-3.7861 10.938169,18.095225 10.938169,19.118665 z"
         sodipodi:nodetypes="sssssssss" />
      <path
         id="lpe_path-effect2085-8"
         style="fill:#b0006f;fill-opacity:0.421525;stroke-width:0.470575;stroke-linecap:round;stroke-linejoin:round"
         class="powerclip"
         d="M 23.208178,75.895168 H 75.482199 V 128.36852 H 23.208178 Z M 81.84578,103.49502 c 0,-1.02344 -6.604392,-22.904765 -10.938169,-19.118665 0,0 -12.835927,12.429112 -13.350425,11.663273 -1.933459,-2.87799 -4.564327,-4.647356 -8.07379,-4.647356 -5.476793,0 -9.916612,4.819097 -9.916612,10.763758 0,5.94466 4.439817,10.76376 9.916612,10.76376 3.63187,0 6.842964,-2.18968 8.605719,-4.99864 0.305144,-0.48624 8.782005,7.62137 12.003103,7.21254 7.04732,-0.89446 11.753562,-10.26431 11.753562,-11.63867 z" />
    </clipPath>
    <clipPath
       clipPathUnits="userSpaceOnUse"
       id="clipath_lpe_path-effect3256">
      <path
         id="path3258"
         style="display:none;fill:#b0006f;fill-opacity:0.421525;stroke-width:0.470575;stroke-linecap:round;stroke-linejoin:round"
         d="m 81.84578,103.49502 c 0,1.37436 -4.706242,10.74421 -11.753562,11.63867 -3.221098,0.40883 -11.697959,-7.69878 -12.003103,-7.21254 -1.762755,2.80896 -4.973849,4.99864 -8.605719,4.99864 -5.476795,0 -9.916612,-4.8191 -9.916612,-10.76376 0,-5.944661 4.439819,-10.763758 9.916612,-10.763758 3.509463,0 6.140331,1.769366 8.07379,4.647356 0.514498,0.765839 13.350425,-11.663273 13.350425,-11.663273 4.333777,-3.7861 10.938169,18.095225 10.938169,19.118665 z"
         sodipodi:nodetypes="sssssssss" />
      <path
         id="lpe_path-effect3256"
         style="fill:#b0006f;fill-opacity:0.421525;stroke-width:0.470575;stroke-linecap:round;stroke-linejoin:round"
         class="powerclip"
         d="M 23.208178,75.895168 H 75.482199 V 128.36852 H 23.208178 Z" />
    </clipPath>
    <clipPath
       clipPathUnits="userSpaceOnUse"
       id="clipPath3345">
      <path
         style="fill:#ff0000;fill-opacity:1;stroke:none;stroke-width:0.0920089;stroke-opacity:1"
         d="m 77.58275,131.9569 c -0.178263,0.0431 -2.282952,-0.16984 -4.696383,-0.4754 -2.40534,-0.30454 -6.32342,-0.79944 -8.706829,-1.09974 -15.645021,-1.97128 -24.302765,-3.06581 -33.499838,-4.23506 -3.523911,-0.44799 -7.428841,-0.94268 -8.677616,-1.09929 -1.248778,-0.15663 -2.42896,-0.32319 -2.622624,-0.37015 -0.660456,-0.16015 -0.981898,-0.7125 -0.928968,-1.59626 0.01807,-0.30112 0.162171,-5.81498 0.320299,-12.25305 l 0.287507,-11.705559 13.276366,-13.276371 13.27636,-13.276361 1.560074,-0.0268 c 0.858043,-0.01471 6.41242,-0.127979 12.343061,-0.251651 6.876399,-0.143399 10.889678,-0.180679 11.077458,-0.102899 0.21631,0.0896 0.341241,0.202819 0.470742,0.42663 0.123018,0.21259 1.270428,8.998429 3.79707,29.074531 1.991439,15.82343 3.611221,28.96978 3.599492,29.21407 -0.0254,0.52718 -0.35863,0.92792 -0.876171,1.05336 z M 63.083938,109.51955 C 57.293177,99.869921 52.517038,91.910529 52.47031,91.832019 c -0.08053,-0.1353 -0.455745,0.228042 -7.191692,6.963982 -6.735951,6.735949 -7.099287,7.111169 -6.96399,7.191699 0.07851,0.0467 8.037899,4.82287 17.687531,10.61363 9.649629,5.79078 17.559568,10.51391 17.57762,10.49586 0.0181,-0.0183 -4.705061,-7.92803 -10.495841,-17.57764 z m -9.04459,8.55665 -17.486919,-10.48895 -7.420136,7.38705 c -6.11618,6.08891 -7.39929,7.39635 -7.301564,7.43987 0.215419,0.0959 49.77501,6.29743 49.734859,6.22343 -0.0217,-0.0399 -7.908451,-4.79248 -17.52624,-10.5614 z M 72.054567,100.13427 C 70.346838,86.567139 68.925838,75.41339 68.896789,75.348149 c -0.0435,-0.0978 -1.349981,1.18436 -7.439882,7.301532 l -7.38704,7.420139 10.48884,17.48702 c 5.768861,9.61787 10.51619,17.51613 10.54962,17.55172 0.0336,0.0354 0.0587,-0.019 0.056,-0.12105 -0.0021,-0.10221 -1.402022,-11.28612 -3.10974,-24.85324 z m -37.717499,6.32739 c -0.12727,-0.12727 -13.157232,-5.17339 -13.186678,-5.10681 -0.05215,0.1179 -0.559951,18.81177 -0.512349,18.86127 0.02638,0.0273 3.136572,-3.03898 6.911686,-6.81411 5.217097,-5.21711 6.845491,-6.8822 6.787341,-6.94035 z M 49.991736,90.780319 c -0.128458,-0.0797 -15.392707,-2.761499 -15.44179,-2.712979 -0.04907,0.0486 2.632154,15.31223 2.71245,15.44125 0.05881,0.0945 1.038672,-0.85793 6.454778,-6.274031 5.397889,-5.397889 6.368293,-6.396069 6.274562,-6.45424 z m 16.706982,-16.62489 c -0.0496,-0.0477 -18.743504,0.460261 -18.861558,0.5125 -0.0673,0.0298 4.976955,13.05637 5.105588,13.185011 0.06019,0.0602 1.648949,-1.492901 6.941859,-6.785819 3.77512,-3.77512 6.841472,-6.885382 6.814111,-6.911692 z M 33.672979,96.50472 c -0.705575,-4.03931 -1.310653,-7.371991 -1.344623,-7.405971 -0.03845,-0.0385 -1.965087,1.84155 -5.103931,4.9804 -4.091705,4.091702 -5.026226,5.05809 -4.957652,5.12667 0.04649,0.0465 2.823081,1.149091 6.170216,2.450251 3.34714,1.30116 6.184535,2.4088 6.305322,2.46143 0.188923,0.0823 0.219197,0.0702 0.216578,-0.0864 -0.0016,-0.10017 -0.580337,-3.48703 -1.28591,-7.52633 z m 14.52358,-14.419411 c -1.335905,-3.42324 -2.465755,-6.260428 -2.510782,-6.30487 -0.06484,-0.0639 -1.133954,0.971312 -5.124019,4.961382 -3.15958,3.15958 -5.018974,5.06535 -4.980032,5.104289 0.03417,0.0342 2.768613,0.534839 6.07654,1.112599 8.800094,1.53702 8.981945,1.566492 8.974251,1.453891 -0.0031,-0.0568 -1.100058,-2.904041 -2.435958,-6.327291 z"
         id="path3347" />
    </clipPath>
    <clipPath
       clipPathUnits="userSpaceOnUse"
       id="clipPath2081-1">
      <path
         id="path2083-1"
         style="display:none;fill:#b0006f;fill-opacity:0.421525;stroke-width:0.470575;stroke-linecap:round;stroke-linejoin:round"
         d="m 81.84578,103.49502 c 0,1.37436 -4.706242,10.74421 -11.753562,11.63867 -3.221098,0.40883 -11.697959,-7.69878 -12.003103,-7.21254 -1.762755,2.80896 -4.973849,4.99864 -8.605719,4.99864 -5.476795,0 -9.916612,-4.8191 -9.916612,-10.76376 0,-5.944661 4.439819,-10.763758 9.916612,-10.763758 3.509463,0 6.140331,1.769366 8.07379,4.647356 0.514498,0.765839 13.350425,-11.663273 13.350425,-11.663273 4.333777,-3.7861 10.938169,18.095225 10.938169,19.118665 z"
         sodipodi:nodetypes="sssssssss" />
      <path
         id="lpe_path-effect2085-1"
         style="fill:#b0006f;fill-opacity:0.421525;stroke-width:0.470575;stroke-linecap:round;stroke-linejoin:round"
         class="powerclip"
         d="M 23.208178,75.895168 H 75.482199 V 128.36852 H 23.208178 Z M 81.84578,103.49502 c 0,-1.02344 -6.604392,-22.904765 -10.938169,-19.118665 0,0 -12.835927,12.429112 -13.350425,11.663273 -1.933459,-2.87799 -4.564327,-4.647356 -8.07379,-4.647356 -5.476793,0 -9.916612,4.819097 -9.916612,10.763758 0,5.94466 4.439817,10.76376 9.916612,10.76376 3.63187,0 6.842964,-2.18968 8.605719,-4.99864 0.305144,-0.48624 8.782005,7.62137 12.003103,7.21254 7.04732,-0.89446 11.753562,-10.26431 11.753562,-11.63867 z" />
    </clipPath>
    <clipPath
       clipPathUnits="userSpaceOnUse"
       id="clipPath3345-0">
      <path
         style="display:none;fill:#ff0000;fill-opacity:1;stroke:none;stroke-width:0.0920089;stroke-opacity:1"
         d="m 77.58275,131.9569 c -0.178263,0.0431 -2.282952,-0.16984 -4.696383,-0.4754 -2.40534,-0.30454 -6.32342,-0.79944 -8.706829,-1.09974 -15.645021,-1.97128 -24.302765,-3.06581 -33.499838,-4.23506 -3.523911,-0.44799 -7.428841,-0.94268 -8.677616,-1.09929 -1.248778,-0.15663 -2.42896,-0.32319 -2.622624,-0.37015 -0.660456,-0.16015 -0.981898,-0.7125 -0.928968,-1.59626 0.01807,-0.30112 0.162171,-5.81498 0.320299,-12.25305 l 0.287507,-11.705559 13.276366,-13.276371 13.27636,-13.276361 1.560074,-0.0268 c 0.858043,-0.01471 6.41242,-0.127979 12.343061,-0.251651 6.876399,-0.143399 10.889678,-0.180679 11.077458,-0.102899 0.21631,0.0896 0.341241,0.202819 0.470742,0.42663 0.123018,0.21259 1.270428,8.998429 3.79707,29.074531 1.991439,15.82343 3.611221,28.96978 3.599492,29.21407 -0.0254,0.52718 -0.35863,0.92792 -0.876171,1.05336 z M 63.083938,109.51955 C 57.293177,99.869921 52.517038,91.910529 52.47031,91.832019 c -0.08053,-0.1353 -0.455745,0.228042 -7.191692,6.963982 -6.735951,6.735949 -7.099287,7.111169 -6.96399,7.191699 0.07851,0.0467 8.037899,4.82287 17.687531,10.61363 9.649629,5.79078 17.559568,10.51391 17.57762,10.49586 0.0181,-0.0183 -4.705061,-7.92803 -10.495841,-17.57764 z m -9.04459,8.55665 -17.486919,-10.48895 -7.420136,7.38705 c -6.11618,6.08891 -7.39929,7.39635 -7.301564,7.43987 0.215419,0.0959 49.77501,6.29743 49.734859,6.22343 -0.0217,-0.0399 -7.908451,-4.79248 -17.52624,-10.5614 z M 72.054567,100.13427 C 70.346838,86.567139 68.925838,75.41339 68.896789,75.348149 c -0.0435,-0.0978 -1.349981,1.18436 -7.439882,7.301532 l -7.38704,7.420139 10.48884,17.48702 c 5.768861,9.61787 10.51619,17.51613 10.54962,17.55172 0.0336,0.0354 0.0587,-0.019 0.056,-0.12105 -0.0021,-0.10221 -1.402022,-11.28612 -3.10974,-24.85324 z m -37.717499,6.32739 c -0.12727,-0.12727 -13.157232,-5.17339 -13.186678,-5.10681 -0.05215,0.1179 -0.559951,18.81177 -0.512349,18.86127 0.02638,0.0273 3.136572,-3.03898 6.911686,-6.81411 5.217097,-5.21711 6.845491,-6.8822 6.787341,-6.94035 z M 49.991736,90.780319 c -0.128458,-0.0797 -15.392707,-2.761499 -15.44179,-2.712979 -0.04907,0.0486 2.632154,15.31223 2.71245,15.44125 0.05881,0.0945 1.038672,-0.85793 6.454778,-6.274031 5.397889,-5.397889 6.368293,-6.396069 6.274562,-6.45424 z m 16.706982,-16.62489 c -0.0496,-0.0477 -18.743504,0.460261 -18.861558,0.5125 -0.0673,0.0298 4.976955,13.05637 5.105588,13.185011 0.06019,0.0602 1.648949,-1.492901 6.941859,-6.785819 3.77512,-3.77512 6.841472,-6.885382 6.814111,-6.911692 z M 33.672979,96.50472 c -0.705575,-4.03931 -1.310653,-7.371991 -1.344623,-7.405971 -0.03845,-0.0385 -1.965087,1.84155 -5.103931,4.9804 -4.091705,4.091702 -5.026226,5.05809 -4.957652,5.12667 0.04649,0.0465 2.823081,1.149091 6.170216,2.450251 3.34714,1.30116 6.184535,2.4088 6.305322,2.46143 0.188923,0.0823 0.219197,0.0702 0.216578,-0.0864 -0.0016,-0.10017 -0.580337,-3.48703 -1.28591,-7.52633 z m 14.52358,-14.419411 c -1.335905,-3.42324 -2.465755,-6.260428 -2.510782,-6.30487 -0.06484,-0.0639 -1.133954,0.971312 -5.124019,4.961382 -3.15958,3.15958 -5.018974,5.06535 -4.980032,5.104289 0.03417,0.0342 2.768613,0.534839 6.07654,1.112599 8.800094,1.53702 8.981945,1.566492 8.974251,1.453891 -0.0031,-0.0568 -1.100058,-2.904041 -2.435958,-6.327291 z"
         id="path3347-0" />
      <path
         id="lpe_path-effect3256-2"
         style="fill:#ff0000;fill-opacity:1;stroke:none;stroke-width:0.0920089;stroke-opacity:1"
         class="powerclip"
         d="M 23.208178,75.895168 H 75.482199 V 128.36852 H 23.208178 Z M 77.58275,131.9569 c 0.517541,-0.12544 0.850771,-0.52618 0.876171,-1.05336 0.01173,-0.24429 -1.608053,-13.39064 -3.599492,-29.21407 -2.526642,-20.076102 -3.674052,-28.861941 -3.79707,-29.074531 -0.129501,-0.223811 -0.254432,-0.33703 -0.470742,-0.42663 -0.18778,-0.07778 -4.201059,-0.0405 -11.077458,0.102899 -5.930641,0.123672 -11.485018,0.236941 -12.343061,0.251651 l -1.560074,0.0268 -13.27636,13.276361 -13.276366,13.276371 -0.287507,11.705559 c -0.158128,6.43807 -0.302229,11.95193 -0.320299,12.25305 -0.05293,0.88376 0.268512,1.43611 0.928968,1.59626 0.193664,0.047 1.373846,0.21352 2.622624,0.37015 1.248775,0.15661 5.153705,0.6513 8.677616,1.09929 9.197073,1.16925 17.854817,2.26378 33.499838,4.23506 2.383409,0.3003 6.301489,0.7952 8.706829,1.09974 2.413431,0.30556 4.51812,0.5185 4.696383,0.4754 z M 63.083938,109.51955 C 57.293177,99.869921 52.517038,91.910529 52.47031,91.832019 c -0.08053,-0.1353 -0.455745,0.228042 -7.191692,6.963982 -6.735951,6.735949 -7.099287,7.111169 -6.96399,7.191699 0.07851,0.0467 8.037899,4.82287 17.687531,10.61363 9.649629,5.79078 17.559568,10.51391 17.57762,10.49586 0.0181,-0.0183 -4.705061,-7.92803 -10.495841,-17.57764 z m -9.04459,8.55665 -17.486919,-10.48895 -7.420136,7.38705 c -6.11618,6.08891 -7.39929,7.39635 -7.301564,7.43987 0.215419,0.0959 49.77501,6.29743 49.734859,6.22343 -0.0217,-0.0399 -7.908451,-4.79248 -17.52624,-10.5614 z M 72.054567,100.13427 C 70.346838,86.567139 68.925838,75.41339 68.896789,75.348149 c -0.0435,-0.0978 -1.349981,1.18436 -7.439882,7.301532 l -7.38704,7.420139 10.48884,17.48702 c 5.768861,9.61787 10.51619,17.51613 10.54962,17.55172 0.0336,0.0354 0.0587,-0.019 0.056,-0.12105 -0.0021,-0.10221 -1.402022,-11.28612 -3.10974,-24.85324 z m -37.717499,6.32739 c -0.12727,-0.12727 -13.157232,-5.17339 -13.186678,-5.10681 -0.05215,0.1179 -0.559951,18.81177 -0.512349,18.86127 0.02638,0.0273 3.136572,-3.03898 6.911686,-6.81411 5.217097,-5.21711 6.845491,-6.8822 6.787341,-6.94035 z M 49.991736,90.780319 c -0.128458,-0.0797 -15.392707,-2.761499 -15.44179,-2.712979 -0.04907,0.0486 2.632154,15.31223 2.71245,15.44125 0.05881,0.0945 1.038672,-0.85793 6.454778,-6.274031 5.397889,-5.397889 6.368293,-6.396069 6.274562,-6.45424 z m 16.706982,-16.62489 c -0.0496,-0.0477 -18.743504,0.460261 -18.861558,0.5125 -0.0673,0.0298 4.976955,13.05637 5.105588,13.185011 0.06019,0.0602 1.648949,-1.492901 6.941859,-6.785819 3.77512,-3.77512 6.841472,-6.885382 6.814111,-6.911692 z M 33.672979,96.50472 c -0.705575,-4.03931 -1.310653,-7.371991 -1.344623,-7.405971 -0.03845,-0.0385 -1.965087,1.84155 -5.103931,4.9804 -4.091705,4.091702 -5.026226,5.05809 -4.957652,5.12667 0.04649,0.0465 2.823081,1.149091 6.170216,2.450251 3.34714,1.30116 6.184535,2.4088 6.305322,2.46143 0.188923,0.0823 0.219197,0.0702 0.216578,-0.0864 -0.0016,-0.10017 -0.580337,-3.48703 -1.28591,-7.52633 z m 14.52358,-14.419411 c -1.335905,-3.42324 -2.465755,-6.260428 -2.510782,-6.30487 -0.06484,-0.0639 -1.133954,0.971312 -5.124019,4.961382 -3.15958,3.15958 -5.018974,5.06535 -4.980032,5.104289 0.03417,0.0342 2.768613,0.534839 6.07654,1.112599 8.800094,1.53702 8.981945,1.566492 8.974251,1.453891 -0.0031,-0.0568 -1.100058,-2.904041 -2.435958,-6.327291 z" />
    </clipPath>
    <clipPath
       clipPathUnits="userSpaceOnUse"
       id="clipath_lpe_path-effect6954">
      <path
         style="display:none;fill:#ff0000;fill-opacity:1;stroke:none;stroke-width:0.0920089;stroke-opacity:1"
         d="m 77.58275,131.9569 c -0.178263,0.0431 -2.282952,-0.16984 -4.696383,-0.4754 -2.40534,-0.30454 -6.32342,-0.79944 -8.706829,-1.09974 -15.645021,-1.97128 -24.302765,-3.06581 -33.499838,-4.23506 -3.523911,-0.44799 -7.428841,-0.94268 -8.677616,-1.09929 -1.248778,-0.15663 -2.42896,-0.32319 -2.622624,-0.37015 -0.660456,-0.16015 -0.981898,-0.7125 -0.928968,-1.59626 0.01807,-0.30112 0.162171,-5.81498 0.320299,-12.25305 l 0.287507,-11.705559 13.276366,-13.276371 13.27636,-13.276361 1.560074,-0.0268 c 0.858043,-0.01471 6.41242,-0.127979 12.343061,-0.251651 6.876399,-0.143399 10.889678,-0.180679 11.077458,-0.102899 0.21631,0.0896 0.341241,0.202819 0.470742,0.42663 0.123018,0.21259 1.270428,8.998429 3.79707,29.074531 1.991439,15.82343 3.611221,28.96978 3.599492,29.21407 -0.0254,0.52718 -0.35863,0.92792 -0.876171,1.05336 z M 63.083938,109.51955 C 57.293177,99.869921 52.517038,91.910529 52.47031,91.832019 c -0.08053,-0.1353 -0.455745,0.228042 -7.191692,6.963982 -6.735951,6.735949 -7.099287,7.111169 -6.96399,7.191699 0.07851,0.0467 8.037899,4.82287 17.687531,10.61363 9.649629,5.79078 17.559568,10.51391 17.57762,10.49586 0.0181,-0.0183 -4.705061,-7.92803 -10.495841,-17.57764 z m -9.04459,8.55665 -17.486919,-10.48895 -7.420136,7.38705 c -6.11618,6.08891 -7.39929,7.39635 -7.301564,7.43987 0.215419,0.0959 49.77501,6.29743 49.734859,6.22343 -0.0217,-0.0399 -7.908451,-4.79248 -17.52624,-10.5614 z M 72.054567,100.13427 C 70.346838,86.567139 68.925838,75.41339 68.896789,75.348149 c -0.0435,-0.0978 -1.349981,1.18436 -7.439882,7.301532 l -7.38704,7.420139 10.48884,17.48702 c 5.768861,9.61787 10.51619,17.51613 10.54962,17.55172 0.0336,0.0354 0.0587,-0.019 0.056,-0.12105 -0.0021,-0.10221 -1.402022,-11.28612 -3.10974,-24.85324 z m -37.717499,6.32739 c -0.12727,-0.12727 -13.157232,-5.17339 -13.186678,-5.10681 -0.05215,0.1179 -0.559951,18.81177 -0.512349,18.86127 0.02638,0.0273 3.136572,-3.03898 6.911686,-6.81411 5.217097,-5.21711 6.845491,-6.8822 6.787341,-6.94035 z M 49.991736,90.780319 c -0.128458,-0.0797 -15.392707,-2.761499 -15.44179,-2.712979 -0.04907,0.0486 2.632154,15.31223 2.71245,15.44125 0.05881,0.0945 1.038672,-0.85793 6.454778,-6.274031 5.397889,-5.397889 6.368293,-6.396069 6.274562,-6.45424 z m 16.706982,-16.62489 c -0.0496,-0.0477 -18.743504,0.460261 -18.861558,0.5125 -0.0673,0.0298 4.976955,13.05637 5.105588,13.185011 0.06019,0.0602 1.648949,-1.492901 6.941859,-6.785819 3.77512,-3.77512 6.841472,-6.885382 6.814111,-6.911692 z M 33.672979,96.50472 c -0.705575,-4.03931 -1.310653,-7.371991 -1.344623,-7.405971 -0.03845,-0.0385 -1.965087,1.84155 -5.103931,4.9804 -4.091705,4.091702 -5.026226,5.05809 -4.957652,5.12667 0.04649,0.0465 2.823081,1.149091 6.170216,2.450251 3.34714,1.30116 6.184535,2.4088 6.305322,2.46143 0.188923,0.0823 0.219197,0.0702 0.216578,-0.0864 -0.0016,-0.10017 -0.580337,-3.48703 -1.28591,-7.52633 z m 14.52358,-14.419411 c -1.335905,-3.42324 -2.465755,-6.260428 -2.510782,-6.30487 -0.06484,-0.0639 -1.133954,0.971312 -5.124019,4.961382 -3.15958,3.15958 -5.018974,5.06535 -4.980032,5.104289 0.03417,0.0342 2.768613,0.534839 6.07654,1.112599 8.800094,1.53702 8.981945,1.566492 8.974251,1.453891 -0.0031,-0.0568 -1.100058,-2.904041 -2.435958,-6.327291 z"
         id="path6956" />
      <path
         id="lpe_path-effect6954"
         style="fill:#ff0000;fill-opacity:1;stroke:none;stroke-width:0.0920089;stroke-opacity:1"
         class="powerclip"
         d="M 23.208178,75.895168 H 75.482199 V 128.36852 H 23.208178 Z M 77.58275,131.9569 c 0.517541,-0.12544 0.850771,-0.52618 0.876171,-1.05336 0.01173,-0.24429 -1.608053,-13.39064 -3.599492,-29.21407 -2.526642,-20.076102 -3.674052,-28.861941 -3.79707,-29.074531 -0.129501,-0.223811 -0.254432,-0.33703 -0.470742,-0.42663 -0.18778,-0.07778 -4.201059,-0.0405 -11.077458,0.102899 -5.930641,0.123672 -11.485018,0.236941 -12.343061,0.251651 l -1.560074,0.0268 -13.27636,13.276361 -13.276366,13.276371 -0.287507,11.705559 c -0.158128,6.43807 -0.302229,11.95193 -0.320299,12.25305 -0.05293,0.88376 0.268512,1.43611 0.928968,1.59626 0.193664,0.047 1.373846,0.21352 2.622624,0.37015 1.248775,0.15661 5.153705,0.6513 8.677616,1.09929 9.197073,1.16925 17.854817,2.26378 33.499838,4.23506 2.383409,0.3003 6.301489,0.7952 8.706829,1.09974 2.413431,0.30556 4.51812,0.5185 4.696383,0.4754 z M 63.083938,109.51955 C 57.293177,99.869921 52.517038,91.910529 52.47031,91.832019 c -0.08053,-0.1353 -0.455745,0.228042 -7.191692,6.963982 -6.735951,6.735949 -7.099287,7.111169 -6.96399,7.191699 0.07851,0.0467 8.037899,4.82287 17.687531,10.61363 9.649629,5.79078 17.559568,10.51391 17.57762,10.49586 0.0181,-0.0183 -4.705061,-7.92803 -10.495841,-17.57764 z m -9.04459,8.55665 -17.486919,-10.48895 -7.420136,7.38705 c -6.11618,6.08891 -7.39929,7.39635 -7.301564,7.43987 0.215419,0.0959 49.77501,6.29743 49.734859,6.22343 -0.0217,-0.0399 -7.908451,-4.79248 -17.52624,-10.5614 z M 72.054567,100.13427 C 70.346838,86.567139 68.925838,75.41339 68.896789,75.348149 c -0.0435,-0.0978 -1.349981,1.18436 -7.439882,7.301532 l -7.38704,7.420139 10.48884,17.48702 c 5.768861,9.61787 10.51619,17.51613 10.54962,17.55172 0.0336,0.0354 0.0587,-0.019 0.056,-0.12105 -0.0021,-0.10221 -1.402022,-11.28612 -3.10974,-24.85324 z m -37.717499,6.32739 c -0.12727,-0.12727 -13.157232,-5.17339 -13.186678,-5.10681 -0.05215,0.1179 -0.559951,18.81177 -0.512349,18.86127 0.02638,0.0273 3.136572,-3.03898 6.911686,-6.81411 5.217097,-5.21711 6.845491,-6.8822 6.787341,-6.94035 z M 49.991736,90.780319 c -0.128458,-0.0797 -15.392707,-2.761499 -15.44179,-2.712979 -0.04907,0.0486 2.632154,15.31223 2.71245,15.44125 0.05881,0.0945 1.038672,-0.85793 6.454778,-6.274031 5.397889,-5.397889 6.368293,-6.396069 6.274562,-6.45424 z m 16.706982,-16.62489 c -0.0496,-0.0477 -18.743504,0.460261 -18.861558,0.5125 -0.0673,0.0298 4.976955,13.05637 5.105588,13.185011 0.06019,0.0602 1.648949,-1.492901 6.941859,-6.785819 3.77512,-3.77512 6.841472,-6.885382 6.814111,-6.911692 z M 33.672979,96.50472 c -0.705575,-4.03931 -1.310653,-7.371991 -1.344623,-7.405971 -0.03845,-0.0385 -1.965087,1.84155 -5.103931,4.9804 -4.091705,4.091702 -5.026226,5.05809 -4.957652,5.12667 0.04649,0.0465 2.823081,1.149091 6.170216,2.450251 3.34714,1.30116 6.184535,2.4088 6.305322,2.46143 0.188923,0.0823 0.219197,0.0702 0.216578,-0.0864 -0.0016,-0.10017 -0.580337,-3.48703 -1.28591,-7.52633 z m 14.52358,-14.419411 c -1.335905,-3.42324 -2.465755,-6.260428 -2.510782,-6.30487 -0.06484,-0.0639 -1.133954,0.971312 -5.124019,4.961382 -3.15958,3.15958 -5.018974,5.06535 -4.980032,5.104289 0.03417,0.0342 2.768613,0.534839 6.07654,1.112599 8.800094,1.53702 8.981945,1.566492 8.974251,1.453891 -0.0031,-0.0568 -1.100058,-2.904041 -2.435958,-6.327291 z" />
    </clipPath>
    <clipPath
       clipPathUnits="userSpaceOnUse"
       id="clipath_lpe_path-effect6950">
      <path
         id="path6961"
         style="display:none;fill:#b0006f;fill-opacity:0.421525;stroke-width:0.470575;stroke-linecap:round;stroke-linejoin:round"
         d="m 81.84578,103.49502 c 0,1.37436 -4.706242,10.74421 -11.753562,11.63867 -3.221098,0.40883 -11.697959,-7.69878 -12.003103,-7.21254 -1.762755,2.80896 -4.973849,4.99864 -8.605719,4.99864 -5.476795,0 -9.916612,-4.8191 -9.916612,-10.76376 0,-5.944661 4.439819,-10.763758 9.916612,-10.763758 3.509463,0 6.140331,1.769366 8.07379,4.647356 0.514498,0.765839 13.350425,-11.663273 13.350425,-11.663273 4.333777,-3.7861 10.938169,18.095225 10.938169,19.118665 z"
         sodipodi:nodetypes="sssssssss" />
      <path
         id="lpe_path-effect6950"
         style="fill:#b0006f;fill-opacity:0.421525;stroke-width:0.470575;stroke-linecap:round;stroke-linejoin:round"
         class="powerclip"
         d="M 23.208178,75.895168 H 75.482199 V 128.36852 H 23.208178 Z M 81.84578,103.49502 c 0,-1.02344 -6.604392,-22.904765 -10.938169,-19.118665 0,0 -12.835927,12.429112 -13.350425,11.663273 -1.933459,-2.87799 -4.564327,-4.647356 -8.07379,-4.647356 -5.476793,0 -9.916612,4.819097 -9.916612,10.763758 0,5.94466 4.439817,10.76376 9.916612,10.76376 3.63187,0 6.842964,-2.18968 8.605719,-4.99864 0.305144,-0.48624 8.782005,7.62137 12.003103,7.21254 7.04732,-0.89446 11.753562,-10.26431 11.753562,-11.63867 z" />
    </clipPath>
    <clipPath
       clipPathUnits="userSpaceOnUse"
       id="clipPath37380">
      <circle
         style="fill:none;fill-opacity:0;stroke:#000000;stroke-width:15;stroke-miterlimit:4;stroke-dasharray:none;stroke-opacity:1"
         id="circle37382"
         cx="6270.625"
         cy="3095.625"
         r="462.51215" />
    </clipPath>
    <clipPath
       clipPathUnits="userSpaceOnUse"
       id="clipPath37380-5">
      <circle
         style="fill:none;fill-opacity:0;stroke:#000000;stroke-width:15;stroke-miterlimit:4;stroke-dasharray:none;stroke-opacity:1"
         id="circle37382-3"
         cx="6270.625"
         cy="3095.625"
         r="462.51215" />
    </clipPath>
  </defs>
  <g
     inkscape:label="Layer 1"
     inkscape:groupmode="layer"
     id="layer1">
    <path
       id="path8094-9-6-13-9-7"
       style="opacity:0.0474308;fill:#000000;fill-opacity:1;stroke:#000000;stroke-width:25.5608;stroke-linecap:round;stroke-linejoin:round;stroke-miterlimit:4;stroke-dasharray:none;stroke-opacity:1"
       d="m 5962.8573,2701.9389 c -78.1099,81.3268 -157.9232,161.0917 -234.0142,244.3 174.144,204.9795 347.9847,408.7465 525.3296,610.9876 24.1697,19.7022 -40.9819,-52.3022 -53.1997,-68.7344 -149.7789,-180.2007 -303.4647,-357.0919 -455.8211,-535.105 50.8197,0.5495 101.9769,-2.8682 152.5412,1.3555 120.6139,198.6103 236.9186,399.8829 358.9427,597.5992 14.6856,14.6722 -23.9828,-44.1543 -31.1227,-57.4271 -106.1131,-179.1779 -211.6035,-358.7309 -316.0214,-538.9005 62.6519,-4.7849 125.9602,-3.1256 188.7762,-1.1889 49.1214,184.039 94.7886,369.0554 149.9119,551.4383 -47.1236,-183.5964 -94.3552,-367.1682 -140.752,-550.95 50.6252,-0.6348 101.8175,-3.2333 152.1623,1.2928 2.9091,176.8018 3.3732,353.6467 4.4445,530.471 5.0201,-177.2519 3.3328,-354.5843 3.9673,-531.8826 51.9572,-0.3152 103.9141,-0.6393 155.8709,-0.9681 -52.3263,200.92 -109.2361,403.1121 -159.7451,602.9867 -0.9454,28.8278 41.1308,-45.1477 55.1188,-51.1003 165.5247,-185.5002 332.8929,-369.3897 496.4677,-556.6084 -78.3214,-83.6128 -158.8756,-165.1174 -238.4143,-247.5754 -204.8144,0 -409.6293,0 -614.444,0 z m 301.0875,864.9337 c -0.3151,-0.3153 0.179,0.8288 0,0 z m 0.091,-2.6931 c 0,-20.7547 0.5811,-111.0284 -0.7429,-47.0948 -0.1337,22.4957 0.1338,49.2798 -8.4657,11.0857 -16.455,-59.7498 5.1715,27.3304 9.2098,36.0091 z m -293.671,-856.0318 c 35.1138,4.8315 86.8144,-0.4053 128.2848,1.1976 52.4639,0.2243 104.9419,-0.6348 157.3972,0.315 -46.8027,78.2251 -100.8581,151.8496 -153.4818,226.1643 -45.2793,-74.0781 -89.7014,-148.6966 -133.4919,-223.6638 -3.2422,40.3689 47.7431,81.9882 63.108,123.5779 21.6821,36.432 43.3246,72.8889 64.9781,109.3383 -64.3886,-0.9142 -129.1664,2.2428 -193.259,-2.2968 19.7065,-70.6208 38.0796,-141.6201 58.9185,-211.9209 -24.5764,70.3044 -46.0885,142.5711 -69.0468,212.7846 -50.4156,2.4723 -101.1201,0.7611 -151.5822,-1.3465 75.9926,-78.1113 151.3018,-157.005 228.1751,-234.1696 z m -1.2929,4.03 c 2.6843,-2.1974 -3.0303,-1.5492 0,0 z m 448.3798,-2.8324 c 50.1724,0.179 100.3599,-0.2243 150.5208,0.8015 -45.3361,78.1698 -91.2936,155.9837 -137.542,233.6176 -55.9599,-76.109 -110.263,-153.566 -162.9458,-231.9852 49.6372,-4.5034 100.1016,-1.3824 149.967,-2.4362 z m 155.9356,7.2605 c 22.0139,75.892 38.389,153.4618 56.9628,230.3241 -62.3325,-0.5224 -124.7557,1.2792 -187.0184,-1.3511 16.5222,-41.4084 48.6709,-85.5316 71.6084,-127.9397 18.9905,-33.9139 40.8222,-66.4774 58.4472,-101.0331 z m 8.7359,4.4086 c 73.9792,74.7321 146.803,150.6116 220.1959,225.924 -54.5892,-0.8736 -109.5497,2.1977 -163.8508,-2.3055 -19.2246,-74.4257 -37.983,-148.9756 -56.3451,-223.6183 z m -323.0242,6.8176 c 2.2381,72.3866 0.9501,144.8432 1.2741,217.2615 -50.317,-0.4052 -100.7175,1.1395 -150.9634,-1.5941 49.0429,-72.4561 98.9017,-144.4206 149.6911,-215.6656 z m 10.0366,3.4854 c 50.5375,70.8855 100.2856,142.5685 149.294,214.5957 -50.4139,0.8239 -100.8482,0.4681 -151.2491,-0.9233 0.7697,-71.1957 -1.8872,-142.6847 1.9541,-213.6716 z m 260.6002,224.799 c 33.0864,6.6095 130.3206,-17.6806 81.0332,35.4869 -102.9207,172.571 -221.393,335.623 -315.2407,513.6115 -11.0877,19.3932 -34.1526,68.1553 -17.976,19.4225 51.4483,-189.378 102.9259,-378.7495 155.0924,-567.9307 21.946,-2.5217 67.2519,-0.2698 97.0911,-0.5902 z m 108.317,0 c 53.6768,0.315 107.403,-0.9233 161.037,1.2923 -177.236,200.5086 -360.1361,396.2055 -530.978,602.3131 119.5791,-203.1591 243.0381,-404.7054 369.941,-603.6054 z m -371.4354,600.0073 c 2.756,2.9586 -3.7016,1.9588 0,0 z m -0.8555,5.6728 c 0.7205,1.2019 -2.9452,2.6296 0,0 z"
       sodipodi:nodetypes="cscccccscscccsscccssccccsscccccccsccccccccsccscscccccccccscccccccccccccccccccccscssccccccccssscccccccsccscssccscsscccsscscscssccccsccsccccccsscscssccssccccscscccssccscccscsccss"
       inkscape:export-filename="C:\wamp64\www\JS Projects\carat-haus\fullLogoBlack.png"
       inkscape:export-xdpi="95.978104"
       inkscape:export-ydpi="95.978104"
       clip-path="url(#clipPath37380)" />
    <ellipse
       style="fill:#ffffff;fill-opacity:1;stroke:none;stroke-width:0.337848;stroke-linecap:round;stroke-linejoin:round;stroke-opacity:1"
       id="path858-5-4"
       clip-path="url(#clipath_lpe_path-effect6954)"
       inkscape:path-effect="#path-effect6954"
       sodipodi:type="arc"
       sodipodi:cx="49.345188"
       sodipodi:cy="102.13184"
       sodipodi:rx="21.137011"
       sodipodi:ry="21.236675"
       transform="translate(119.33618,5.617843)"
       d="M 70.482199,102.13184 A 21.137011,21.236675 0 0 1 49.345188,123.36852 21.137011,21.236675 0 0 1 28.208178,102.13184 21.137011,21.236675 0 0 1 49.345188,80.895168 21.137011,21.236675 0 0 1 70.482199,102.13184 Z" />
    <ellipse
       style="fill:#000000;fill-opacity:1;stroke-width:0.337848;stroke-linecap:round;stroke-linejoin:round"
       id="path858"
       clip-path="url(#clipPath2081)"
       inkscape:path-effect="#path-effect2085"
       sodipodi:type="arc"
       sodipodi:cx="49.345188"
       sodipodi:cy="102.13184"
       sodipodi:rx="21.137011"
       sodipodi:ry="21.236675"
       d="M 70.482199,102.13184 A 21.137011,21.236675 0 0 1 49.345188,123.36852 21.137011,21.236675 0 0 1 28.208178,102.13184 21.137011,21.236675 0 0 1 49.345188,80.895168 21.137011,21.236675 0 0 1 70.482199,102.13184 Z"
       transform="translate(46.038942,-11.949179)" />
    <path
       style="fill:#000000;fill-opacity:1;stroke:none;stroke-width:0.0920088;stroke-opacity:1"
       d="m 123.62169,120.00773 c -0.17826,0.0431 -2.28295,-0.16985 -4.69638,-0.47542 -2.40534,-0.30454 -6.32342,-0.79942 -8.70683,-1.09974 -15.645022,-1.97128 -24.302766,-3.06579 -33.499837,-4.23504 -3.523913,-0.44801 -7.428842,-0.9427 -8.677617,-1.09931 -1.248778,-0.15661 -2.42896,-0.32318 -2.622625,-0.37015 -0.660454,-0.16014 -0.981898,-0.71249 -0.928966,-1.59626 0.01806,-0.30111 -0.16856,-5.81498 -0.01043,-12.253042 l -0.04322,-11.70556 13.937823,-13.276364 13.276362,-13.706309 1.560072,-0.0268 c 0.858044,-0.01474 6.41242,0.103533 12.343058,-0.02014 6.8764,-0.1434 10.88968,0.01776 11.07746,0.09554 0.21631,0.0896 0.34124,0.202814 0.47074,0.426628 0.12302,0.212595 1.27043,8.998433 3.79707,29.074527 1.99144,15.823443 3.61122,28.969773 3.59949,29.214083 -0.0254,0.52718 -0.35863,0.92792 -0.87617,1.05336 z M 109.12288,97.570368 C 103.33212,87.920738 98.555979,79.96135 98.509253,79.88284 c -0.08053,-0.135299 -0.455746,0.228038 -7.191694,6.963985 -6.735951,6.735949 -7.099287,7.111167 -6.963988,7.191698 0.07851,0.04674 8.037897,4.822865 17.687529,10.613637 9.64963,5.79077 17.55957,10.51389 17.57762,10.49584 0.0181,-0.0181 -4.70506,-7.92801 -10.49584,-17.577632 z m -9.04459,8.556652 -17.48692,-10.488945 -7.420135,7.387055 c -6.11618,6.08889 -7.399291,7.39633 -7.301563,7.43986 0.215417,0.0959 49.775008,6.29744 49.734858,6.22343 -0.0217,-0.0399 -7.90845,-4.79248 -17.52624,-10.5614 z m 18.01522,-17.941933 c -1.70773,-13.567129 -3.12873,-24.72088 -3.15778,-24.786113 -0.0435,-0.09779 -1.34998,1.184357 -7.43988,7.30153 l -7.38704,7.420139 10.48884,17.487017 c 5.76886,9.61787 10.51619,17.51613 10.54962,17.55171 0.0336,0.0354 0.0587,-0.0189 0.056,-0.12104 -0.002,-0.1022 -1.40202,-11.28611 -3.10974,-24.853241 z m -37.717501,6.32739 C 80.24874,94.385211 66.55732,89.33909 66.527875,89.40567 c -0.05215,0.117904 0.101507,18.81176 0.149107,18.86126 0.02637,0.0273 3.136572,-3.03898 6.911687,-6.8141 5.217096,-5.217106 6.845491,-6.882201 6.78734,-6.940353 z m 15.65467,-15.681336 c -0.128458,-0.07971 -15.392709,-2.761503 -15.441791,-2.712985 -0.04907,0.04859 2.632154,15.312235 2.712449,15.441251 0.05881,0.09451 1.038674,-0.857925 6.454778,-6.274027 5.397891,-5.397891 6.368294,-6.396072 6.274564,-6.454239 z M 112.73766,62.20625 c -0.0496,-0.04765 -18.743505,0.03031 -18.861559,0.08255 -0.0673,0.02977 4.976956,13.486322 5.105589,13.614955 0.06019,0.06016 1.64895,-1.492894 6.94186,-6.785818 3.77512,-3.775116 6.84147,-6.885374 6.81411,-6.911688 z M 79.711922,84.555536 c -0.705575,-4.039307 -1.310654,-7.37199 -1.344625,-7.405963 -0.03845,-0.03845 -1.965085,1.841552 -5.103931,4.980394 -4.091703,4.091705 -5.687684,5.058095 -5.619109,5.12667 0.04649,0.04649 3.484538,1.149095 6.831675,2.450255 3.347139,1.301156 6.184535,2.408797 6.305322,2.461427 0.188922,0.08231 0.219197,0.07023 0.216576,-0.08645 -0.0017,-0.10017 -0.580337,-3.487027 -1.285908,-7.526333 z M 94.2355,70.136135 c -1.335903,-3.423244 -2.465754,-6.690387 -2.510781,-6.734818 -0.06484,-0.06387 -1.133955,1.401252 -5.12402,5.391319 -3.15958,3.15958 -5.018973,5.065351 -4.980031,5.104292 0.03417,0.03417 2.768613,0.534845 6.076539,1.112606 8.800096,1.537019 8.981946,1.566482 8.974252,1.45389 -0.0031,-0.05676 -1.100059,-2.904044 -2.435959,-6.327289 z"
       id="path2612"
       sodipodi:nodetypes="sscsscsscccsssssccssssssssssccsssscsccsssscssscssscssscssssssssscssscsc" />
    <ellipse
       style="fill:#ffffff;fill-opacity:1;stroke:none;stroke-width:0.337848;stroke-linecap:round;stroke-linejoin:round;stroke-opacity:1"
       id="path858-5"
       clip-path="url(#clipPath3345)"
       inkscape:path-effect="#path-effect3256"
       sodipodi:type="arc"
       sodipodi:cx="49.345188"
       sodipodi:cy="102.13184"
       sodipodi:rx="21.137011"
       sodipodi:ry="21.236675"
       transform="translate(46.038941,-11.949174)"
       d="M 70.482199,102.13184 A 21.137011,21.236675 0 0 1 49.345188,123.36852 21.137011,21.236675 0 0 1 28.208178,102.13184 21.137011,21.236675 0 0 1 49.345188,80.895168 21.137011,21.236675 0 0 1 70.482199,102.13184 Z" />
    <rect
       style="fill:none;fill-opacity:1;stroke:#000000;stroke-width:2.19034;stroke-linecap:round;stroke-linejoin:round;stroke-miterlimit:4;stroke-dasharray:none;stroke-opacity:1"
       id="rect2351"
       width="58.120281"
       height="58.120281"
       x="65.265663"
       y="60.725655"
       ry="0" />
    <path
       style="fill:#000000;fill-opacity:1;stroke:none;stroke-width:0.264583px;stroke-linecap:butt;stroke-linejoin:miter;stroke-opacity:1"
       d="m 111.36453,101.21497 1.59025,1.21607 0.78298,-1.62479 -10.08724,-16.71836 c -1.4359,-1.374362 -2.09946,-2.645744 -5.258594,-4.24987 z"
       id="path4120"
       sodipodi:nodetypes="cccccc" />
    <path
       style="fill:#fdffff;stroke:none;stroke-width:0.264583px;stroke-linecap:butt;stroke-linejoin:miter;stroke-opacity:1;fill-opacity:1"
       d="m 95.464973,79.474218 0.51263,0.04961 2.414323,0.314193 -0.04961,0.644922 -2.199348,20.191017 -0.463021,0.56224 c 0,0 -9.392709,-4.994013 -9.326563,-5.126304 C 86.419534,95.977604 87.279426,95.25 87.279426,95.25 l -1.02526,-2.778125 -1.025261,-0.231511 0.396875,-2.215885 -0.297656,-0.06615 0.727604,-1.289844 7.276042,-8.565885 z"
       id="path4950" />
    <path
       style="fill:#000000;fill-opacity:1;stroke:none;stroke-width:0.264583px;stroke-linecap:butt;stroke-linejoin:miter;stroke-opacity:1"
       d="M 85.616451,89.428382 85.815949,92.372655 98.50803,79.933632 C 97.486889,79.702889 96.434334,79.39361 95.531119,79.457681 Z"
       id="path6053"
       sodipodi:nodetypes="ccccc" />
    <ellipse
       style="fill:#000000;fill-opacity:1;stroke-width:0.337848;stroke-linecap:round;stroke-linejoin:round"
       id="path858-3"
       clip-path="url(#clipath_lpe_path-effect6950)"
       inkscape:path-effect="#path-effect6950"
       sodipodi:type="arc"
       sodipodi:cx="49.345188"
       sodipodi:cy="102.13184"
       sodipodi:rx="21.137011"
       sodipodi:ry="21.236675"
       transform="translate(119.33618,5.617838)"
       d="M 70.482199,102.13184 A 21.137011,21.236675 0 0 1 49.345188,123.36852 21.137011,21.236675 0 0 1 28.208178,102.13184 21.137011,21.236675 0 0 1 49.345188,80.895168 21.137011,21.236675 0 0 1 70.482199,102.13184 Z" />
    <path
       style="fill:#000000;fill-opacity:1;stroke:none;stroke-width:0.0920088;stroke-opacity:1"
       d="m 196.91892,137.57475 c -0.17825,0.0431 -2.28295,-0.16985 -4.69638,-0.47542 -2.40534,-0.30454 -6.32342,-0.79942 -8.70683,-1.09974 -15.64502,-1.97128 -24.30276,-3.06579 -33.49983,-4.23504 -3.52391,-0.44801 -7.42884,-0.9427 -8.67762,-1.09931 -1.24878,-0.15661 -2.42896,-0.32318 -2.62262,-0.37015 -0.66046,-0.16014 -0.9819,-0.71249 -0.92897,-1.59626 0.0181,-0.30111 -0.16856,-5.81498 -0.0104,-12.25304 l -0.0432,-11.70556 13.93782,-13.276369 13.27636,-13.706309 1.56008,-0.0268 c 0.85804,-0.01474 6.41242,0.103533 12.34305,-0.02014 6.8764,-0.1434 10.88968,0.01776 11.07747,0.09554 0.2163,0.0896 0.34123,0.202814 0.47074,0.426628 0.12302,0.212595 1.27043,8.998433 3.79706,29.07453 1.99145,15.82344 3.61123,28.96977 3.5995,29.21408 -0.0254,0.52718 -0.35864,0.92792 -0.87618,1.05336 z m -14.49881,-22.43737 c -5.79075,-9.64963 -10.5669,-17.609013 -10.61362,-17.687523 -0.0805,-0.135299 -0.45575,0.228038 -7.1917,6.963983 -6.73595,6.73595 -7.09928,7.11117 -6.96398,7.1917 0.0785,0.0467 8.03789,4.82286 17.68752,10.61364 9.64964,5.79077 17.55958,10.51389 17.57762,10.49584 0.0181,-0.0181 -4.70506,-7.92801 -10.49584,-17.57764 z m -9.04459,8.55666 -17.48692,-10.48895 -7.42013,7.38706 c -6.11618,6.08889 -7.39929,7.39633 -7.30156,7.43986 0.21541,0.0959 49.775,6.29744 49.73485,6.22343 -0.0217,-0.0399 -7.90845,-4.79248 -17.52624,-10.5614 z m 18.01522,-17.94194 c -1.70773,-13.567125 -3.12873,-24.720876 -3.15778,-24.786109 -0.0435,-0.09779 -1.34998,1.184357 -7.43988,7.30153 l -7.38704,7.420139 10.48884,17.48702 c 5.76886,9.61787 10.51619,17.51613 10.54962,17.55171 0.0336,0.0354 0.0587,-0.0189 0.056,-0.12104 -0.002,-0.1022 -1.40202,-11.28611 -3.10974,-24.85324 z m -37.7175,6.32739 c -0.12727,-0.12726 -13.81868,-5.17338 -13.84813,-5.1068 -0.0522,0.1179 0.10151,18.81176 0.14911,18.86126 0.0264,0.0273 3.13657,-3.03898 6.91168,-6.8141 5.2171,-5.21711 6.84549,-6.8822 6.78734,-6.94036 z m 15.65467,-15.681332 c -0.12845,-0.07971 -15.39271,-2.761503 -15.44179,-2.712985 -0.0491,0.04859 2.63216,15.312237 2.71245,15.441247 0.0588,0.0945 1.03868,-0.85792 6.45478,-6.27402 5.39789,-5.397894 6.36829,-6.396075 6.27456,-6.454242 z M 186.0349,79.773267 c -0.0496,-0.04765 -18.74351,0.03031 -18.86156,0.08255 -0.0673,0.02977 4.97695,13.486322 5.10558,13.614955 0.0602,0.06016 1.64895,-1.492894 6.94187,-6.785818 3.77511,-3.775116 6.84146,-6.885374 6.81411,-6.911688 z m -33.02574,22.349283 c -0.70558,-4.039304 -1.31066,-7.371987 -1.34463,-7.40596 -0.0384,-0.03845 -1.96508,1.841552 -5.10393,4.980394 -4.0917,4.091706 -5.68768,5.058096 -5.61911,5.126666 0.0465,0.0465 3.48454,1.1491 6.83168,2.45026 3.34714,1.30116 6.18453,2.4088 6.30532,2.46143 0.18892,0.0823 0.2192,0.0702 0.21658,-0.0864 -0.002,-0.10017 -0.58034,-3.48703 -1.28591,-7.52634 z m 14.52357,-14.419398 c -1.3359,-3.423244 -2.46575,-6.690387 -2.51078,-6.734818 -0.0648,-0.06387 -1.13395,1.401252 -5.12402,5.391319 -3.15958,3.15958 -5.01897,5.065351 -4.98003,5.104292 0.0342,0.03417 2.76862,0.534845 6.07654,1.112606 8.8001,1.537019 8.98195,1.566482 8.97425,1.45389 -0.003,-0.05676 -1.10006,-2.904044 -2.43596,-6.327289 z"
       id="path2612-4"
       sodipodi:nodetypes="sscsscsscccsssssccssssssssssccsssscsccsssscssscssscssscssssssssscssscsc" />
    <rect
       style="fill:none;fill-opacity:1;stroke:#000000;stroke-width:2.19034;stroke-linecap:round;stroke-linejoin:round;stroke-miterlimit:4;stroke-dasharray:none;stroke-opacity:1"
       id="rect2351-4"
       width="58.120281"
       height="58.120281"
       x="138.5629"
       y="78.292671"
       ry="0" />
    <path
       style="fill:#000000;fill-opacity:1;stroke:none;stroke-width:0.264583px;stroke-linecap:butt;stroke-linejoin:miter;stroke-opacity:1"
       d="m 184.66176,118.78199 1.59025,1.21607 0.78298,-1.62479 -10.08724,-16.71836 c -1.4359,-1.37437 -2.09945,-2.645747 -5.25859,-4.249873 z"
       id="path4120-9"
       sodipodi:nodetypes="cccccc" />
    <path
       style="fill:#000000;fill-opacity:1;stroke:none;stroke-width:0.264583px;stroke-linecap:butt;stroke-linejoin:miter;stroke-opacity:1"
       d="m 158.91369,106.9954 0.19949,2.94427 12.69208,-12.439021 c -1.02114,-0.230743 -2.07369,-0.540022 -2.97691,-0.475951 z"
       id="path6053-8"
       sodipodi:nodetypes="ccccc" />
    <path
       style="fill:#ffffff;fill-opacity:1;stroke:#ffffff;stroke-width:1.72453;stroke-miterlimit:4;stroke-dasharray:none;stroke-opacity:1"
       d="m 347.08338,-194.50089 c -8.15953,-9.50787 -14.84747,-17.34267 -14.86213,-17.41074 -0.0148,-0.068 2.90945,-3.15482 6.49795,-6.8595 l 6.52455,-6.73574 17.09658,0.005 17.09657,0.005 6.6197,6.82825 c 3.64083,3.75555 6.63229,6.88254 6.64766,6.94884 0.0148,0.0663 -6.85157,7.79513 -15.25988,17.17521 -8.4083,9.38008 -15.34132,17.11633 -15.40668,17.19165 -0.0971,0.11234 -2.80916,-2.99797 -14.95432,-17.15006 z m 15.31346,14.93968 c 0.0296,-0.15619 1.92534,-7.27159 4.2128,-15.81202 2.28754,-8.54043 4.18856,-15.65534 4.22451,-15.81094 l 0.0655,-0.28292 -4.33694,0.0266 -4.33692,0.0266 -0.0222,16.12367 c -0.0123,9.18016 -0.34299,17.81659 -0.29591,17.78508 0.0453,-0.0303 0.46146,-1.89996 0.491,-2.05615 z m -1.71112,-0.002 c -0.10002,-0.15521 -4.40605,-7.36174 -9.56926,-16.0149 -5.16321,-8.65319 -9.43765,-15.79116 -9.49872,-15.86224 -0.0867,-0.101 -1.02617,-0.12367 -4.29979,-0.10248 l -4.18876,0.0266 13.82924,16.11742 c 7.60605,8.86451 15.07651,17.93666 15.09841,17.93666 0.0197,0 -1.27122,-1.94613 -1.37112,-2.10114 z m 1.07071,-31.77357 c -0.035,-0.10002 -0.97419,-0.12835 -4.25616,-0.12835 -2.31617,0 -4.21118,0.0254 -4.21118,0.0564 0,0.10495 8.64102,33.89222 8.70926,34.0475 0.0734,0.16777 -0.16826,-33.7665 -0.24192,-33.97601 z m 15.12817,16.68112 c 6.3859,-7.13112 12.34935,-13.77561 13.25204,-14.76556 0.90272,-0.98995 1.64128,-1.8317 1.64128,-1.87055 0,-0.0389 -2.01634,-0.0707 -4.48077,-0.0707 h -4.48074 l -9.63338,15.69562 c -5.29839,8.63251 -11.08879,17.99931 -11.1339,18.09039 -0.13205,0.2673 2.61559,-3.43329 14.83547,-17.07925 z m -14.84417,16.80924 c -0.0633,0.0806 -2.93482,-9.49875 -5.17257,-18.03918 -2.23782,-8.54045 -4.07767,-15.53804 -4.08861,-15.55031 -0.01,-0.0148 -2.39069,-0.0352 -5.28826,-0.0513 -4.52758,-0.0249 -5.26117,-0.01 -5.21673,0.11703 0.0759,0.21359 18.537,31.76058 19.4142,33.00202 0.62378,0.88283 0.50927,0.3211 0.44613,0.40161 z m 10.62046,-17.88232 c 5.25562,-8.56696 9.54474,-15.58813 9.53134,-15.60262 -0.0406,-0.0438 -10.76591,-0.0438 -10.80641,-2e-5 -0.0345,0.0375 -9.11662,33.31709 -9.24711,33.89495 -0.0318,0.14092 -0.0584,-0.35616 -0.0303,-0.38437 0.0281,-0.0281 5.29689,-9.34108 10.55251,-17.90794 z m -2.06601,-16.20283 c 0,-0.0591 -8.06532,-11.66921 -8.28872,-11.93159 -0.10741,-0.12638 -0.12786,0.80706 -0.12786,5.86488 v 6.01498 l 1.25299,0.032 c 2.46043,0.0626 7.16347,0.0756 7.16347,0.0197 z m 10.29385,-5.86241 c -0.82466,-3.25549 -1.5449,-6.09766 -1.60053,-6.31588 -0.0929,-0.36346 -0.1116,-0.38065 -0.22197,-0.20522 -0.44636,0.70861 -7.15763,12.14467 -7.20414,12.27598 -0.053,0.14929 0.42125,0.16407 5.23401,0.16407 h 5.29204 z m 9.45158,4.25355 c -8.07013,-8.31069 -10.61935,-10.92468 -10.63613,-10.9065 -0.0172,0.0197 3.04222,12.16733 3.13539,12.44394 0.0337,0.10003 1.03664,0.12811 4.58059,0.12811 h 4.53751 z m -48.83541,1.38369 c 1.33806,-4.85366 3.27779,-12.04671 3.2552,-12.07115 -0.0148,-0.0173 -2.67797,2.69612 -5.91373,6.03183 l -5.8832,6.06494 1.15543,0.0562 c 0.63549,0.0308 2.54624,0.0655 4.24613,0.0769 2.87127,0.0197 3.09423,0.007 3.14017,-0.15866 z m 10.34416,-1.28118 c -4.89356,-8.24011 -6.42362,-10.79162 -6.48511,-10.81446 -0.0397,-0.0148 -0.8121,2.68349 -1.71635,5.99601 -0.90424,3.31252 -1.66271,6.08041 -1.68545,6.15087 -0.0328,0.1015 1.07916,0.12836 5.35648,0.12836 h 5.39785 z m 9.95107,-4.58665 c 0,-3.32597 -0.032,-6.04528 -0.0707,-6.04287 -0.067,0.005 -8.26259,11.81225 -8.32982,12.00141 -0.0172,0.0488 1.85096,0.0887 4.18462,0.0887 h 4.21612 z m 13.32358,-0.54443 c 2.08619,-3.54088 3.79305,-6.45816 3.79305,-6.48285 0,-0.0246 -3.76925,-0.0448 -8.3761,-0.0448 -6.90824,0 -8.37081,0.0246 -8.34556,0.136 0.0581,0.25899 8.99969,12.98926 9.06744,12.90971 0.0372,-0.0438 1.77496,-2.97695 3.86117,-6.5178 z m -17.73243,-0.15669 c 2.37285,-3.42962 4.31427,-6.26617 4.31427,-6.30344 0,-0.0372 -3.642,-0.0677 -8.09338,-0.0677 -4.64725,0 -8.07993,0.0384 -8.06182,0.0907 0.0739,0.21285 7.41328,12.51273 7.46723,12.51443 0.0323,0.001 2.00087,-2.80416 4.3737,-6.2338 z"
       id="path8094-9"
       inkscape:export-filename="C:\wamp64\www\JS Projects\carat-haus\src\content\diamondIconWhite.png"
       inkscape:export-xdpi="95.978104"
       inkscape:export-ydpi="95.978104"
       sodipodi:nodetypes="csscccsssscccssccccsccsssscssssssssssssscsssssscsssssssssssssscsssssssscssssscscssccscssssscssssscssssssssssscs" />
    <path
       style="fill:#000000;fill-opacity:1;stroke:#c9a559;stroke-width:13.1724;stroke-linecap:round;stroke-linejoin:round;stroke-miterlimit:4;stroke-dasharray:none;stroke-opacity:1"
       d="m -470.5589,-647.54689 c -62.3247,-72.62355 -113.4089,-132.46785 -113.5209,-132.98774 -0.1129,-0.51937 22.2232,-24.0974 49.6331,-52.39473 l 49.8362,-51.44931 130.58816,0.0385 130.58812,0.0385 50.56303,52.15593 c 27.80954,28.68593 50.65913,52.57069 50.77658,53.07707 0.11298,0.5062 -52.33415,59.54128 -116.559,131.18879 -64.22485,71.64742 -117.18109,130.73899 -117.68029,131.31422 -0.7414,0.85811 -21.4571,-22.89925 -114.225,-130.99666 z m 116.96823,114.11322 c 0.22596,-1.19301 14.70623,-55.54231 32.17846,-120.77637 17.47281,-65.23406 31.99332,-119.57957 32.26788,-120.76811 l 0.50057,-2.16102 -33.12671,0.20337 -33.12652,0.20336 -0.16923,123.15686 c -0.0942,70.12041 -2.61978,136.08778 -2.26018,135.84711 0.3461,-0.23125 3.52473,-14.51243 3.75035,-15.70544 z m -13.07003,-0.0144 c -0.764,-1.18551 -33.6545,-56.23091 -73.0925,-122.32606 -39.438,-66.09529 -72.0872,-120.617 -72.5537,-121.15988 -0.6624,-0.77152 -7.8382,-0.94464 -32.843,-0.78282 l -31.9948,0.20336 105.6314,123.10908 c 58.097,67.70949 115.1583,137.00497 115.3256,137.00497 0.1505,0 -9.71,-14.86506 -10.473,-16.04908 z m 8.1784,-242.69484 c -0.2673,-0.76403 -7.4411,-0.98042 -32.5097,-0.98042 -17.6915,0 -32.1661,0.19375 -32.1661,0.43076 0,0.80162 66.0024,258.87768 66.5237,260.06377 0.5608,1.28146 -1.2853,-257.91746 -1.8479,-259.51772 z m 115.55295,127.41471 c 48.7772,-54.46935 94.32753,-105.22165 101.22255,-112.7832 6.89516,-7.5615 12.53655,-13.99095 12.53655,-14.28772 0,-0.29711 -15.40136,-0.54009 -34.2253,-0.54009 h -34.2251 l -73.58232,119.88731 c -40.47047,65.93741 -84.69913,137.48347 -85.04363,138.17918 -1.0086,2.04169 19.9786,-26.22438 113.31725,-130.45586 z M -356.313,-520.33477 c -0.4836,0.61533 -22.417,-72.55398 -39.5095,-137.78799 -17.0931,-65.23425 -31.1463,-118.68367 -31.2299,-118.77742 -0.075,-0.11298 -2.3857,-0.53381 -24.5181,-0.65592 -34.5828,-0.1899 -56.0612,0.18908 -55.7217,1.15841 0.5795,1.63151 141.5905,242.59566 148.2907,252.07809 4.76464,6.74334 3.89,2.45274 3.4077,3.06768 z m 81.12183,-136.58989 c 40.14379,-65.4367 72.90527,-119.06621 72.80287,-119.17688 -0.31057,-0.33509 -82.23284,-0.33509 -82.54216,-1.9e-4 -0.26346,0.28605 -69.63514,254.48472 -70.63195,258.89859 -0.24279,1.07637 -0.44619,-2.72048 -0.23129,-2.93596 0.2145,-0.21442 40.45907,-71.34958 80.60287,-136.78556 z m -15.78072,-123.76141 c 0.45138,-0.007 -61.60504,-89.13258 -63.31146,-91.13663 -0.82046,-0.96536 -0.97661,6.16446 -0.97661,44.79742 v 45.94402 l 9.57064,0.24471 c 18.79346,0.47787 45.8226,0.28945 46.24979,0.28277 z m 78.62713,-48.14627 c -5.88632,-24.96719 -11.80036,-46.5755 -12.22531,-48.24239 -0.70941,-2.77615 -0.85243,0.4601 -1.69545,1.80008 -3.4094,5.41254 -54.67184,92.76419 -55.02713,93.76715 -0.40432,1.14036 3.21764,1.25325 39.9788,1.25325 h 40.42196 z m 72.1936,35.85735 c -61.64172,-63.47928 -81.11334,-83.44565 -81.24151,-83.30676 -0.13173,0.15048 23.23722,92.93726 23.94894,95.05011 0.25769,0.76402 7.91808,0.97854 34.98773,0.97854 h 34.65866 z m -373.01764,10.56895 c 10.2205,-37.07351 31.9158,-99.15973 31.7432,-99.34636 -0.1129,-0.13173 -20.455,20.59371 -45.1706,46.07267 l -51.8166,53.46941 8.8255,0.42883 c 4.854,0.2351 19.4488,0.50057 32.4331,0.58711 21.9315,0.15048 23.6345,0.0567 23.9854,-1.21185 z m 79.0114,-9.78598 c -37.3783,-62.94016 -49.0653,-82.42928 -49.5349,-82.6037 -0.3029,-0.11298 -6.2031,20.49718 -13.11,45.79913 -6.9069,25.30189 -12.7003,46.44377 -12.874,46.98198 -0.2504,0.77528 8.243,0.98037 40.9143,0.98037 h 41.2302 z m 76.0089,-35.03403 c 0,-25.40468 -0.2447,-46.17546 -0.5401,-46.15705 -0.5118,0.0385 -63.1117,90.2251 -63.6253,91.66993 -0.1317,0.37259 14.1381,0.67744 31.9632,0.67744 h 32.2039 z m 101.76901,-4.15853 c 15.93481,-27.04615 28.97231,-49.32911 28.97231,-49.51766 0,-0.18846 -28.79053,-0.3423 -63.97889,-0.3423 -52.76693,0 -63.93846,0.18797 -63.74558,1.03873 0.44422,1.97828 68.74203,99.21542 69.25952,98.60783 0.28413,-0.33509 13.55759,-22.73877 29.49264,-49.78473 z m -132.27001,-5.43014 c 18.1245,-26.1963 28.656,-44.00349 28.656,-44.28824 0,-0.28413 -26.696,-0.14327 -60.6968,-0.14327 -35.497,0 -61.7166,0.29375 -61.5783,0.69249 0.5645,1.62584 56.6245,95.57553 57.0366,95.58851 0.2467,0.01 -0.063,0.80611 18.0617,-25.39039 z"
       id="path8094-9-6-1"
       inkscape:export-filename="C:\wamp64\www\JS Projects\carat-haus\logoGold.png"
       inkscape:export-xdpi="95.978104"
       inkscape:export-ydpi="95.978104"
       sodipodi:nodetypes="csscccsssscccssccccsccsssscssssssssssssscsssssscsssssssssssssscsssssssscssssscscssccscssssscssssscssssssssssscsscccc" />
    <path
       style="fill:none;stroke:#000000;stroke-width:0.264583px;stroke-linecap:butt;stroke-linejoin:miter;stroke-opacity:1"
       d="m -2825.7873,-1376.9726 v -628.6179"
       id="path897" />
    <path
       id="path8094-9-6-13"
       style="fill:#000000;fill-opacity:1;stroke:#000000;stroke-width:15.2429;stroke-linecap:round;stroke-linejoin:round;stroke-miterlimit:4;stroke-dasharray:none;stroke-opacity:1"
       d="m -1965.7064,1158.0233 c -38.4201,40.0023 -77.6779,79.2364 -115.105,120.1643 85.6566,100.8236 171.1639,201.0508 258.3948,300.5276 11.8884,9.6908 -20.1578,-25.7261 -26.1674,-33.8086 -73.672,-88.6357 -149.2658,-175.6434 -224.2055,-263.203 24.9968,0.2703 50.1595,-1.4109 75.0307,0.6668 59.3265,97.6907 116.5336,196.6911 176.5538,293.942 7.2234,7.2169 -11.7964,-21.7182 -15.3084,-28.2468 -52.1941,-88.1324 -104.0818,-176.4495 -155.442,-265.0699 30.8166,-2.3535 61.9563,-1.5373 92.8536,-0.5848 24.1615,90.5236 46.6239,181.528 73.7374,271.237 -23.1787,-90.3058 -46.4106,-180.5997 -69.2318,-270.9968 24.9011,-0.3122 50.0811,-1.5903 74.8443,0.6358 1.4309,86.9639 1.6591,173.949 2.1862,260.9238 2.4693,-87.1852 1.6392,-174.41 1.9514,-261.618 25.5562,-0.155 51.1124,-0.3145 76.6685,-0.4762 -25.738,98.827 -53.7302,198.2795 -78.5742,296.5922 -0.4651,14.1795 20.2311,-22.2069 27.1114,-25.1348 81.4169,-91.2423 163.7405,-181.6924 244.1985,-273.7801 -38.524,-41.1266 -78.1465,-81.2165 -117.2693,-121.7752 -100.7425,0 -201.4852,8e-4 -302.2277,0 z m 148.0965,425.4364 c -0.1551,-0.155 0.089,0.4076 0,0 z m 0.044,-1.3245 c 0,-10.2088 0.2858,-54.6118 -0.3654,-23.1647 -0.066,11.065 0.066,24.2393 -4.1641,5.4527 -8.0937,-29.3893 2.5437,13.4431 4.53,17.712 z m -144.4482,-421.0581 c 17.2715,2.3766 42.7015,-0.1993 63.0997,0.5892 25.8054,0.1102 51.618,-0.3123 77.4192,0.155 -23.0208,38.4766 -49.6092,74.6905 -75.4934,111.2437 -22.2715,-36.4369 -44.1215,-73.1396 -65.6607,-110.0139 -1.5949,19.8563 23.4833,40.3276 31.0409,60.7844 10.6648,17.9201 21.3102,35.8521 31.961,53.7805 -31.671,-0.4497 -63.5334,1.1031 -95.0588,-1.1297 9.6931,-34.7363 18.7303,-69.659 28.9804,-104.2379 -12.0884,34.5807 -22.6695,70.1266 -33.9622,104.6627 -24.798,1.2161 -49.738,0.3744 -74.5589,-0.6622 37.3786,-38.4208 74.4211,-77.2264 112.2328,-115.1815 z m -0.6358,1.9824 c 1.3202,-1.0808 -1.4906,-0.762 0,0 z m 220.5453,-1.3932 c 24.6783,0.089 49.3642,-0.1102 74.0369,0.3943 -22.2996,38.4494 -44.9048,76.7238 -67.6529,114.9098 -27.5252,-37.436 -54.2353,-75.5348 -80.1486,-114.1069 24.4151,-2.2152 49.2372,-0.68 73.7646,-1.1983 z m 76.7003,3.5712 c 10.8279,37.3291 18.8825,75.4836 28.0185,113.2899 -30.6597,-0.2569 -61.3639,0.6291 -91.9893,-0.6645 8.1269,-20.3677 23.9399,-42.0706 35.2223,-62.93 9.3408,-16.6812 20.0793,-32.6983 28.7485,-49.6953 z m 4.2968,2.1684 c 36.3884,36.7586 72.2084,74.0816 108.3082,111.1257 -26.8508,-0.4297 -53.8844,1.0809 -80.5935,-1.134 -9.456,-36.6079 -18.6828,-73.2769 -27.7147,-109.9915 z m -158.8863,3.3535 c 1.1007,35.6048 0.4673,71.2442 0.6267,106.8648 -24.7496,-0.1994 -49.5402,0.5604 -74.2547,-0.7841 24.1229,-35.6392 48.6469,-71.0365 73.6288,-106.0799 z m 4.9368,1.7143 c 24.8578,34.8666 49.3275,70.1254 73.4334,105.5536 -24.7973,0.4053 -49.6045,0.2303 -74.3952,-0.4541 0.3786,-35.0192 -0.9282,-70.1826 0.9611,-105.0991 z m 128.1818,110.5723 c 16.2741,3.251 64.101,-8.6966 39.8579,17.4551 -50.6239,84.8827 -108.897,165.0834 -155.0581,252.631 -5.4536,9.5388 -16.7986,33.5236 -8.8418,9.5533 25.306,-93.1497 50.6264,-186.2962 76.2856,-279.3491 10.7946,-1.2404 33.0793,-0.1329 47.7564,-0.2902 z m 53.278,0 c 26.4021,0.1549 52.8286,-0.4542 79.2097,0.6356 -87.1775,98.6246 -177.1409,194.8823 -261.1732,296.2608 58.8176,-99.9282 119.5435,-199.0631 181.9635,-296.8963 z m -182.6986,295.1267 c 1.3556,1.4552 -1.8207,0.9635 0,0 z m -0.4208,2.7902 c 0.3544,0.5913 -1.4486,1.2935 0,0 z"
       sodipodi:nodetypes="cscccccscscccsscccssccccsscccccccsccccccccsccscscccccccccscccccccccccccccccccccscssccccccccssscccccccsccscssccscsscccsscscscssccccsccsccccccsscscssccssccccscscccssccscccscsccss"
       inkscape:export-filename="C:\wamp64\www\JS Projects\carat-haus\fullLogoBlack.png"
       inkscape:export-xdpi="95.978104"
       inkscape:export-ydpi="95.978104" />
    <path
       id="path8094-9-6-13-9"
       style="fill:#000000;fill-opacity:1;stroke:#000000;stroke-width:9;stroke-linecap:round;stroke-linejoin:round;stroke-miterlimit:4;stroke-dasharray:none;stroke-opacity:1"
       d="m 6161.6773,2896.2135 c -27.5026,28.6353 -55.605,56.7206 -82.3968,86.0184 61.3164,72.1736 122.526,143.9203 184.9694,215.1297 8.5102,6.9372 -14.4298,-18.4157 -18.7317,-24.2015 -52.7374,-63.4489 -106.8504,-125.7326 -160.4953,-188.4113 17.8937,0.1935 35.9062,-1.0099 53.71,0.4773 42.4683,69.931 83.4194,140.7994 126.3843,210.4156 5.1708,5.1661 -8.4444,-15.5468 -10.9584,-20.2202 -37.3626,-63.0888 -74.5059,-126.3097 -111.2716,-189.7477 22.0598,-1.6848 44.3508,-1.1005 66.4684,-0.4186 17.2957,64.8004 33.3752,129.945 52.7842,194.1623 -16.5923,-64.6446 -33.2226,-129.2805 -49.559,-193.9904 17.8252,-0.2235 35.8501,-1.1384 53.5766,0.4552 1.0243,62.2522 1.1877,124.5196 1.5649,186.7797 1.7676,-62.4107 1.1735,-124.8497 1.3969,-187.2767 18.2942,-0.111 36.5883,-0.2251 54.8824,-0.3409 -18.4242,70.7443 -38.4622,141.9364 -56.2465,212.3126 -0.3329,10.1503 14.4822,-15.8966 19.4074,-17.9925 58.2815,-65.3149 117.2121,-130.0627 174.8071,-195.9827 -27.5771,-29.4402 -55.9404,-58.1381 -83.9461,-87.1717 -72.1155,0 -144.2311,6e-4 -216.3467,0 z m 106.0134,304.5445 c -0.111,-0.111 0.063,0.2918 0,0 z m 0.032,-0.9482 c 0,-7.3078 0.2046,-39.0933 -0.2616,-16.5822 -0.047,7.9208 0.047,17.3515 -2.9808,3.9033 -5.7938,-21.038 1.8209,9.6231 3.2428,12.6789 z m -103.402,-301.4102 c 12.3636,1.7012 30.5675,-0.1427 45.1693,0.4217 18.4726,0.079 36.9502,-0.2235 55.4198,0.1109 -16.4793,27.5432 -35.5123,53.4665 -54.0412,79.6328 -15.9429,-26.083 -31.584,-52.3563 -47.0027,-78.7524 -1.1416,14.214 16.8104,28.8682 22.2204,43.512 7.6343,12.8278 15.2547,25.6643 22.8789,38.4982 -22.6713,-0.3219 -45.4797,0.7897 -68.0468,-0.8087 6.9387,-24.8657 13.4079,-49.8647 20.7453,-74.6177 -8.6534,24.7543 -16.2278,50.1995 -24.3115,74.9218 -17.7514,0.8705 -35.6045,0.268 -53.3723,-0.4741 26.7571,-27.5031 53.2736,-55.2817 80.3408,-82.4515 z m -0.4552,1.419 c 0.9451,-0.7737 -1.067,-0.5455 0,0 z m 157.8752,-0.9973 c 17.6658,0.063 35.3369,-0.079 52.9986,0.2822 -15.9629,27.5237 -32.1446,54.9221 -48.4287,82.2571 -19.7036,-26.7981 -38.8238,-54.0708 -57.3735,-81.6823 17.4773,-1.5857 35.2459,-0.4868 52.8036,-0.8578 z m 54.9052,2.5564 c 7.7511,26.7217 13.5168,54.0342 20.0567,81.0975 -21.9474,-0.1839 -43.9267,0.4504 -65.8495,-0.4757 5.8175,-14.58 17.1371,-30.1158 25.2134,-45.0478 6.6866,-11.9411 14.3736,-23.4068 20.5794,-35.5739 z m 3.0759,1.5523 c 26.0482,26.3133 51.6896,53.0306 77.5313,79.5482 -19.2209,-0.3076 -38.5726,0.7738 -57.6921,-0.8118 -6.769,-26.2054 -13.3739,-52.4545 -19.8392,-78.7363 z m -113.7373,2.4005 c 0.788,25.4874 0.3345,50.9995 0.4486,76.4981 -17.7167,-0.1427 -35.4628,0.4012 -53.1545,-0.5613 17.2681,-25.5119 34.8235,-50.8507 52.7065,-75.9362 z m 3.5339,1.2272 c 17.7943,24.9589 35.3107,50.1986 52.5666,75.5595 -17.7508,0.2901 -35.5088,0.1648 -53.255,-0.3251 0.271,-25.0681 -0.6645,-50.2395 0.688,-75.2341 z m 91.7577,79.1521 c 11.6498,2.3272 45.8861,-6.2254 28.5319,12.495 -36.2385,60.7625 -77.9528,118.1734 -110.9967,180.8434 -3.904,6.8284 -12.0252,23.9976 -6.3294,6.8387 18.115,-66.6803 36.2404,-133.3583 54.6083,-199.9693 7.7272,-0.8879 23.6795,-0.095 34.1859,-0.2078 z m 38.1386,0 c 18.8997,0.1109 37.8168,-0.3251 56.7014,0.455 -62.4051,70.5994 -126.8045,139.5046 -186.9582,212.0754 42.104,-71.5326 85.5741,-142.4974 130.2568,-212.5304 z m -130.783,211.2635 c 0.9704,1.0417 -1.3033,0.6897 0,0 z m -0.3012,1.9974 c 0.2537,0.4232 -1.037,0.9259 0,0 z"
       sodipodi:nodetypes="cscccccscscccsscccssccccsscccccccsccccccccsccscscccccccccscccccccccccccccccccccscssccccccccssscccccccsccscssccscsscccsscscscssccccsccsccccccsscscssccssccccscscccssccscccscsccss"
       inkscape:export-filename="C:\wamp64\www\JS Projects\carat-haus\fullLogoBlack.png"
       inkscape:export-xdpi="95.978104"
       inkscape:export-ydpi="95.978104" />
    <path
       style="fill:none;stroke:#000000;stroke-width:30.5489;stroke-linecap:butt;stroke-linejoin:miter;stroke-miterlimit:4;stroke-dasharray:none;stroke-opacity:1"
       d="M -1319.5486,1771.0677 V 967.10967"
       id="path1126-8"
       inkscape:export-filename="C:\wamp64\www\JS Projects\carat-haus\fullLogoBlack.png"
       inkscape:export-xdpi="95.978104"
       inkscape:export-ydpi="95.978104" />
    <text
       xml:space="preserve"
       style="font-size:252.794px;line-height:1.25;font-family:Montserrat;-inkscape-font-specification:Montserrat;letter-spacing:149.201px;stroke-width:1.31665;stroke:none"
       x="-672.90009"
       y="1783.2379"
       id="text3660-9"
       inkscape:export-filename="C:\wamp64\www\JS Projects\carat-haus\fullLogoBlack.png"
       inkscape:export-xdpi="95.978104"
       inkscape:export-ydpi="95.978104"><tspan
         sodipodi:role="line"
         id="tspan3658-8"
         style="stroke-width:1.31665;stroke:none"
         x="-672.90009"
         y="1783.2379">LONDON</tspan></text>
    <text
       xml:space="preserve"
       style="font-size:66.2561px;line-height:1.25;font-family:Montserrat;-inkscape-font-specification:Montserrat;letter-spacing:27.7699px;stroke:#000000;stroke-width:1;stroke-miterlimit:4;stroke-dasharray:none;stroke-opacity:1"
       x="6046.1611"
       y="3296.8411"
       id="text3660-9-6"
       inkscape:export-filename="C:\wamp64\www\JS Projects\carat-haus\fullLogoBlack.png"
       inkscape:export-xdpi="95.978104"
       inkscape:export-ydpi="95.978104"><tspan
         sodipodi:role="line"
         id="tspan3658-8-5"
         style="stroke:#000000;stroke-width:1;stroke-miterlimit:4;stroke-dasharray:none;stroke-opacity:1"
         x="6046.1611"
         y="3296.8411">LONDON</tspan></text>
    <text
       xml:space="preserve"
       style="font-size:473.602px;line-height:1.25;font-family:Cinzel;-inkscape-font-specification:Cinzel;letter-spacing:0px;stroke:#000000;stroke-width:2.46665;stroke-opacity:1"
       x="-1134.3741"
       y="1393.1735"
       id="text11128-9"
       inkscape:export-filename="C:\wamp64\www\JS Projects\carat-haus\carathaus-title.png"
       inkscape:export-xdpi="95.978104"
       inkscape:export-ydpi="95.978104"><tspan
         sodipodi:role="line"
         id="tspan11126-5"
         style="stroke:#000000;stroke-width:2.46665;stroke-opacity:1"
         x="-1134.3741"
         y="1393.1735">CARAT HAUS</tspan></text>
    <text
       xml:space="preserve"
       style="font-size:141.111px;line-height:1.25;font-family:Cinzel;-inkscape-font-specification:Cinzel;letter-spacing:92.6042px;stroke:#000000;stroke-width:2.46665;stroke-opacity:1"
       id="text11128-9-65"
       inkscape:export-filename="C:\wamp64\www\JS Projects\carat-haus\carathaus-title.png"
       inkscape:export-xdpi="95.978104"
       inkscape:export-ydpi="95.978104"
       transform="rotate(120.77585,7630.8967,3127.2844)"><textPath
         xlink:href="#path898-7-7"
         id="textPath31286"><tspan
           id="tspan11126-5-0"
           style="font-size:141.111px;stroke:#000000;stroke-width:2.46665;stroke-opacity:1">HAUS</tspan></textPath></text>
    <text
       xml:space="preserve"
       style="font-size:141.111px;line-height:1.25;font-family:Cinzel;-inkscape-font-specification:Cinzel;letter-spacing:92.6042px;stroke:#000000;stroke-width:0.950743;stroke-opacity:1"
       id="text11128-9-6"
       inkscape:export-filename="C:\wamp64\www\JS Projects\carat-haus\carathaus-title.png"
       inkscape:export-xdpi="95.978104"
       inkscape:export-ydpi="95.978104"><textPath
         xlink:href="#path898-7-8"
         id="textPath31251"><tspan
           id="tspan11126-5-4"
           style="font-size:141.111px;stroke:#000000;stroke-width:0.950743;stroke-opacity:1">CARAT</tspan></textPath></text>
    <text
       xml:space="preserve"
       style="font-size:141.111px;line-height:1.25;font-family:Cinzel;-inkscape-font-specification:Cinzel;letter-spacing:92.6042px;stroke:#000000;stroke-width:0.950743;stroke-opacity:1"
       id="text11128-9-6-3"
       inkscape:export-filename="C:\wamp64\www\JS Projects\carat-haus\carathaus-title.png"
       inkscape:export-xdpi="95.978104"
       inkscape:export-ydpi="95.978104"
       transform="rotate(-141.78601,7237.9671,3314.3431)"><textPath
         xlink:href="#path898-7-8"
         id="textPath31251-5"><tspan
           id="tspan11126-5-4-3"
           style="font-size:141.111px;stroke:#000000;stroke-width:0.950743;stroke-opacity:1">CARAT</tspan></textPath></text>
    <path
       id="path8094-9-6-13-3"
       style="fill:#ffffff;fill-opacity:1;stroke:#ffffff;stroke-width:15.2429;stroke-linecap:round;stroke-linejoin:round;stroke-miterlimit:4;stroke-dasharray:none;stroke-opacity:1"
       d="m -1949.0807,2806.2583 c -38.42,40.0021 -77.6777,79.2362 -115.1048,120.1641 85.6565,100.8236 171.1639,201.051 258.3948,300.5276 11.8882,9.6908 -20.1578,-25.7259 -26.1675,-33.8086 -73.6719,-88.6357 -149.2657,-175.6434 -224.2054,-263.203 24.9968,0.2703 50.1595,-1.4108 75.0307,0.6668 59.3265,97.6907 116.5335,196.6912 176.5538,293.942 7.2233,7.2169 -11.7964,-21.7182 -15.3084,-28.2468 -52.1943,-88.1323 -104.0818,-176.4494 -155.442,-265.0699 30.8166,-2.3535 61.9563,-1.5373 92.8534,-0.5847 24.1617,90.5235 46.6241,181.528 73.7375,271.2369 -23.1786,-90.3058 -46.4105,-180.5997 -69.2317,-270.9966 24.9011,-0.3124 50.0811,-1.5903 74.8443,0.6356 1.4309,86.964 1.659,173.949 2.1862,260.9238 2.4692,-87.1852 1.6391,-174.4098 1.9514,-261.618 25.556,-0.155 51.1124,-0.3145 76.6684,-0.4762 -25.7379,98.827 -53.7301,198.2796 -78.5741,296.5923 -0.4652,14.1794 20.2311,-22.2068 27.1114,-25.1349 81.4167,-91.2423 163.7404,-181.6924 244.1985,-273.7801 -38.524,-41.1266 -78.1465,-81.2165 -117.2693,-121.7752 -100.7426,0 -201.4852,9e-4 -302.2278,0 z m 148.0966,425.4363 c -0.155,-0.155 0.089,0.4075 0,0 z m 0.044,-1.3246 c 0,-10.2088 0.2857,-54.6116 -0.3655,-23.1647 -0.066,11.065 0.066,24.2393 -4.164,5.4527 -8.0937,-29.3893 2.5435,13.4433 4.5299,17.712 z m -144.4483,-421.058 c 17.2715,2.3766 42.7015,-0.1994 63.0996,0.5892 25.8056,0.1102 51.6181,-0.3124 77.4194,0.1549 -23.0208,38.4766 -49.6093,74.6905 -75.4934,111.2437 -22.2716,-36.4369 -44.1215,-73.1396 -65.6609,-110.0139 -1.5947,19.8563 23.4834,40.3276 31.041,60.7844 10.6647,17.9201 21.3103,35.8521 31.9611,53.7805 -31.6712,-0.4497 -63.5334,1.1031 -95.0588,-1.1297 9.6931,-34.7363 18.7303,-69.6589 28.9804,-104.2379 -12.0886,34.5807 -22.6695,70.1266 -33.9622,104.6628 -24.7982,1.216 -49.738,0.3743 -74.5589,-0.6623 37.3785,-38.4206 74.4211,-77.2263 112.2327,-115.1815 z m -0.6357,1.9824 c 1.32,-1.0809 -1.4906,-0.7621 0,0 z m 220.5453,-1.3932 c 24.6783,0.089 49.364,-0.1102 74.0369,0.3942 -22.2997,38.4494 -44.9048,76.7238 -67.6531,114.9098 -27.525,-37.436 -54.2351,-75.5346 -80.1485,-114.1069 24.4152,-2.2151 49.2372,-0.68 73.7647,-1.1983 z m 76.7003,3.5711 c 10.8278,37.3291 18.8824,75.4836 28.0184,113.29 -30.6598,-0.257 -61.3638,0.629 -91.9892,-0.6646 8.1269,-20.3677 23.9398,-42.0706 35.2221,-62.93 9.3408,-16.6811 20.0794,-32.6983 28.7487,-49.6951 z m 4.2968,2.1684 c 36.3882,36.7586 72.2084,74.0816 108.308,111.1257 -26.8506,-0.4296 -53.8844,1.0809 -80.5935,-1.134 -9.4558,-36.6077 -18.6826,-73.2769 -27.7145,-109.9915 z m -158.8865,3.3535 c 1.1009,35.6048 0.4673,71.2442 0.6269,106.8648 -24.7496,-0.1994 -49.5402,0.5604 -74.2549,-0.7841 24.1231,-35.6392 48.647,-71.0365 73.629,-106.0798 z m 4.937,1.7143 c 24.8576,34.8667 49.3275,70.1256 73.4332,105.5536 -24.7972,0.4054 -49.6045,0.2304 -74.3952,-0.4541 0.3787,-35.0192 -0.928,-70.1826 0.9613,-105.099 z m 128.1816,110.5723 c 16.2742,3.251 64.1011,-8.6966 39.8581,17.4551 -50.624,84.8827 -108.8971,165.0834 -155.0582,252.631 -5.4537,9.5389 -16.7985,33.5237 -8.8418,9.5533 25.306,-93.1497 50.6264,-186.2962 76.2857,-279.3491 10.7946,-1.2403 33.0791,-0.1329 47.7562,-0.2902 z m 53.2782,0 c 26.4019,0.155 52.8286,-0.4541 79.2097,0.6356 -87.1775,98.6246 -177.141,194.8823 -261.1732,296.2608 58.8174,-99.9282 119.5433,-199.0631 181.9635,-296.8963 z m -182.6986,295.1267 c 1.3555,1.4552 -1.8208,0.9636 0,0 z m -0.4209,2.7902 c 0.3544,0.5914 -1.4486,1.2935 0,0 z"
       sodipodi:nodetypes="cscccccscscccsscccssccccsscccccccsccccccccsccscscccccccccscccccccccccccccccccccscssccccccccssscccccccsccscssccscsscccsscscscssccccsccsccccccsscscssccssccccscscccssccscccscsccss"
       inkscape:export-filename="C:\wamp64\www\JS Projects\carat-haus\fullLogoWhite_full.png"
       inkscape:export-xdpi="95.978104"
       inkscape:export-ydpi="95.978104" />
    <path
       style="fill:#ffffff;fill-opacity:1;stroke:#ffffff;stroke-width:30.5489;stroke-linecap:butt;stroke-linejoin:miter;stroke-miterlimit:4;stroke-dasharray:none;stroke-opacity:1"
       d="m -1302.9227,3419.3025 v -803.958"
       id="path1126-8-9"
       inkscape:export-filename="C:\wamp64\www\JS Projects\carat-haus\fullLogoWhite_full.png"
       inkscape:export-xdpi="95.978104"
       inkscape:export-ydpi="95.978104" />
    <text
       xml:space="preserve"
       style="font-size:252.794px;line-height:1.25;font-family:Montserrat;-inkscape-font-specification:Montserrat;letter-spacing:149.201px;fill:#ffffff;fill-opacity:1;stroke:none;stroke-width:1.31665;stroke-opacity:1"
       x="-656.27411"
       y="3431.4722"
       id="text3660-9-2"
       inkscape:export-filename="C:\wamp64\www\JS Projects\carat-haus\fullLogoWhite_full.png"
       inkscape:export-xdpi="95.978104"
       inkscape:export-ydpi="95.978104"><tspan
         sodipodi:role="line"
         id="tspan3658-8-6"
         style="fill:#ffffff;fill-opacity:1;stroke:none;stroke-width:1.31665;stroke-opacity:1"
         x="-656.27411"
         y="3431.4722">LONDON</tspan></text>
    <text
       xml:space="preserve"
       style="font-size:473.602px;line-height:1.25;font-family:Cinzel;-inkscape-font-specification:Cinzel;letter-spacing:0px;fill:#ffffff;fill-opacity:1;stroke:#ffffff;stroke-width:2.46665;stroke-opacity:1"
       x="-1117.7489"
       y="3041.4956"
       id="text11128-9-9"
       inkscape:export-filename="C:\wamp64\www\JS Projects\carat-haus\fullLogoWhite_title.png"
       inkscape:export-xdpi="95.978104"
       inkscape:export-ydpi="95.978104"><tspan
         sodipodi:role="line"
         id="tspan11126-5-8"
         style="fill:#ffffff;fill-opacity:1;stroke:#ffffff;stroke-width:2.46665;stroke-opacity:1"
         x="-1117.7489"
         y="3041.4956">CARAT HAUS</tspan></text>
    <circle
       style="fill:none;fill-opacity:0;stroke:#000000;stroke-width:15;stroke-miterlimit:4;stroke-dasharray:none;stroke-opacity:1"
       id="path898"
       cx="6270.625"
       cy="3095.625"
       r="667.29462" />
    <circle
       style="fill:none;fill-opacity:0;stroke:#000000;stroke-width:15;stroke-miterlimit:4;stroke-dasharray:none;stroke-opacity:1"
       id="path898-7-9"
       cx="6270.625"
       cy="3095.625"
       r="462.51215" />
    <path
       id="path8094-9-6-13-9-79"
       style="fill:#000000;fill-opacity:1;stroke:#000000;stroke-width:9;stroke-linecap:round;stroke-linejoin:round;stroke-miterlimit:4;stroke-dasharray:none;stroke-opacity:1"
       d="m 4320.3765,3112.0579 c -27.5026,28.6353 -55.605,56.7207 -82.3968,86.0184 61.3164,72.1737 122.526,143.9203 184.9694,215.1297 8.5102,6.9372 -14.4298,-18.4157 -18.7317,-24.2015 -52.7374,-63.4489 -106.8504,-125.7326 -160.4953,-188.4113 17.8937,0.1935 35.9062,-1.0099 53.71,0.4773 42.4683,69.931 83.4194,140.7994 126.3843,210.4156 5.1708,5.1661 -8.4444,-15.5468 -10.9584,-20.2202 -37.3626,-63.0888 -74.5059,-126.3097 -111.2716,-189.7477 22.0598,-1.6848 44.3508,-1.1005 66.4684,-0.4186 17.2957,64.8004 33.3752,129.945 52.7842,194.1623 -16.5923,-64.6446 -33.2226,-129.2805 -49.559,-193.9904 17.8252,-0.2235 35.8501,-1.1384 53.5766,0.4552 1.0243,62.2522 1.1877,124.5196 1.5649,186.7797 1.7676,-62.4107 1.1735,-124.8497 1.3969,-187.2767 18.2942,-0.111 36.5883,-0.2251 54.8824,-0.3409 -18.4242,70.7443 -38.4622,141.9364 -56.2465,212.3126 -0.3329,10.1503 14.4822,-15.8966 19.4074,-17.9925 58.2815,-65.3149 117.2121,-130.0627 174.8071,-195.9827 -27.5771,-29.4402 -55.9404,-58.1381 -83.9461,-87.1717 -72.1155,0 -144.2311,6e-4 -216.3467,0 z m 106.0134,304.5445 c -0.111,-0.1109 0.063,0.2918 0,0 z m 0.032,-0.9481 c 0,-7.3078 0.2046,-39.0933 -0.2616,-16.5822 -0.047,7.9208 0.047,17.3515 -2.9808,3.9033 -5.7938,-21.038 1.8209,9.6231 3.2428,12.6789 z m -103.402,-301.4102 c 12.3636,1.7012 30.5675,-0.1427 45.1693,0.4217 18.4726,0.079 36.9502,-0.2235 55.4198,0.1109 -16.4793,27.5432 -35.5123,53.4665 -54.0412,79.6328 -15.9429,-26.083 -31.584,-52.3563 -47.0027,-78.7524 -1.1416,14.214 16.8104,28.8682 22.2204,43.512 7.6343,12.8278 15.2547,25.6643 22.8789,38.4982 -22.6713,-0.3219 -45.4797,0.7897 -68.0468,-0.8087 6.9387,-24.8657 13.4079,-49.8647 20.7453,-74.6177 -8.6534,24.7543 -16.2278,50.1995 -24.3115,74.9218 -17.7514,0.8705 -35.6045,0.268 -53.3723,-0.4741 26.7571,-27.5031 53.2736,-55.2817 80.3408,-82.4515 z m -0.4552,1.419 c 0.9451,-0.7737 -1.067,-0.5455 0,0 z m 157.8752,-0.9973 c 17.6658,0.063 35.3369,-0.079 52.9986,0.2822 -15.9629,27.5237 -32.1446,54.9221 -48.4287,82.2571 -19.7036,-26.7981 -38.8238,-54.0708 -57.3735,-81.6823 17.4773,-1.5857 35.2459,-0.4868 52.8036,-0.8579 z m 54.9052,2.5564 c 7.7511,26.7217 13.5168,54.0342 20.0567,81.0975 -21.9474,-0.1839 -43.9267,0.4504 -65.8495,-0.4757 5.8175,-14.58 17.1371,-30.1158 25.2134,-45.0478 6.6866,-11.9411 14.3736,-23.4068 20.5794,-35.5739 z m 3.0759,1.5522 c 26.0482,26.3133 51.6896,53.0307 77.5313,79.5483 -19.2209,-0.3076 -38.5726,0.7738 -57.6921,-0.8118 -6.769,-26.2054 -13.3739,-52.4545 -19.8392,-78.7363 z m -113.7373,2.4006 c 0.788,25.4874 0.3345,50.9995 0.4486,76.498 -17.7167,-0.1426 -35.4628,0.4012 -53.1545,-0.5612 17.2681,-25.5119 34.8235,-50.8507 52.7065,-75.9362 z m 3.5339,1.2271 c 17.7943,24.959 35.3107,50.1987 52.5666,75.5595 -17.7508,0.2902 -35.5088,0.1648 -53.255,-0.3251 0.271,-25.0681 -0.6645,-50.2395 0.688,-75.2341 z m 91.7577,79.1521 c 11.6498,2.3272 45.8861,-6.2254 28.5319,12.495 -36.2385,60.7625 -77.9528,118.1734 -110.9967,180.8434 -3.904,6.8284 -12.0252,23.9977 -6.3294,6.8387 18.115,-66.6803 36.2404,-133.3583 54.6083,-199.9693 7.7272,-0.8879 23.6795,-0.095 34.1859,-0.2078 z m 38.1386,0 c 18.8997,0.1109 37.8168,-0.3251 56.7014,0.455 -62.4051,70.5994 -126.8045,139.5046 -186.9582,212.0754 42.104,-71.5326 85.5741,-142.4974 130.2568,-212.5304 z m -130.783,211.2635 c 0.9704,1.0418 -1.3033,0.6897 0,0 z m -0.3012,1.9975 c 0.2537,0.4232 -1.037,0.9259 0,0 z"
       sodipodi:nodetypes="cscccccscscccsscccssccccsscccccccsccccccccsccscscccccccccscccccccccccccccccccccscssccccccccssscccccccsccscssccscsscccsscscscssccccsccsccccccsscscssccssccccscscccssccscccscsccss"
       inkscape:export-filename="C:\wamp64\www\JS Projects\carat-haus\fullLogoBlack.png"
       inkscape:export-xdpi="95.978104"
       inkscape:export-ydpi="95.978104" />
    <text
       xml:space="preserve"
       style="font-size:66.2561px;line-height:1.25;font-family:Montserrat;-inkscape-font-specification:Montserrat;letter-spacing:27.7699px;stroke:#000000;stroke-width:1;stroke-miterlimit:4;stroke-dasharray:none;stroke-opacity:1"
       x="4204.8604"
       y="3512.6855"
       id="text3660-9-6-6"
       inkscape:export-filename="C:\wamp64\www\JS Projects\carat-haus\fullLogoBlack.png"
       inkscape:export-xdpi="95.978104"
       inkscape:export-ydpi="95.978104"><tspan
         sodipodi:role="line"
         id="tspan3658-8-5-1"
         style="stroke:#000000;stroke-width:1;stroke-miterlimit:4;stroke-dasharray:none;stroke-opacity:1"
         x="4204.8604"
         y="3512.6855">LONDON</tspan></text>
    <text
       xml:space="preserve"
       style="font-size:141.111px;line-height:1.25;font-family:Cinzel;-inkscape-font-specification:Cinzel;letter-spacing:92.6042px;stroke:#000000;stroke-width:2.46665;stroke-opacity:1"
       id="text11128-9-65-2"
       inkscape:export-filename="C:\wamp64\www\JS Projects\carat-haus\carathaus-title.png"
       inkscape:export-xdpi="95.978104"
       inkscape:export-ydpi="95.978104"
       transform="rotate(120.77585,6648.9079,2711.9477)"><textPath
         xlink:href="#path898-7-7"
         id="textPath31286-5"><tspan
           id="tspan11126-5-0-8"
           style="font-size:141.111px;stroke:#000000;stroke-width:2.46665;stroke-opacity:1">HAUS</tspan></textPath></text>
    <text
       xml:space="preserve"
       style="font-size:141.111px;line-height:1.25;font-family:Cinzel;-inkscape-font-specification:Cinzel;letter-spacing:92.6042px;stroke:#000000;stroke-width:0.950743;stroke-opacity:1"
       id="text11128-9-6-3-8"
       inkscape:export-filename="C:\wamp64\www\JS Projects\carat-haus\carathaus-title.png"
       inkscape:export-xdpi="95.978104"
       inkscape:export-ydpi="95.978104"
       transform="rotate(-141.78601,6354.7029,3741.195)"><textPath
         xlink:href="#path898-7-8"
         id="textPath31251-5-1"><tspan
           id="tspan11126-5-4-3-3"
           style="font-size:141.111px;stroke:#000000;stroke-width:0.950743;stroke-opacity:1">CARAT</tspan></textPath></text>
    <circle
       style="fill:none;fill-opacity:0;stroke:#000000;stroke-width:15;stroke-miterlimit:4;stroke-dasharray:none;stroke-opacity:1"
       id="path898-0"
       cx="4429.3242"
       cy="3311.4695"
       r="667.29462" />
    <circle
       style="fill:none;fill-opacity:0;stroke:#000000;stroke-width:15;stroke-miterlimit:4;stroke-dasharray:none;stroke-opacity:1"
       id="path898-7-9-2"
       cx="4429.3242"
       cy="3311.4695"
       r="462.51215" />
    <path
       id="path8094-9-6-13-9-79-6"
       style="fill:#000000;fill-opacity:1;stroke:#000000;stroke-width:9;stroke-linecap:round;stroke-linejoin:round;stroke-miterlimit:4;stroke-dasharray:none;stroke-opacity:1"
       d="m 3384.9332,6250.4703 c -27.5026,28.6353 -55.605,56.7207 -82.3968,86.0184 61.3164,72.1737 122.526,143.9203 184.9694,215.1297 8.5102,6.9372 -14.4298,-18.4157 -18.7317,-24.2015 -52.7374,-63.4489 -106.8504,-125.7326 -160.4953,-188.4113 17.8937,0.1935 35.9062,-1.0099 53.71,0.4773 42.4683,69.931 83.4194,140.7994 126.3843,210.4156 5.1708,5.1661 -8.4444,-15.5468 -10.9584,-20.2202 -37.3626,-63.0888 -74.5059,-126.3097 -111.2716,-189.7477 22.0598,-1.6848 44.3508,-1.1005 66.4684,-0.4186 17.2957,64.8004 33.3752,129.945 52.7842,194.1623 -16.5923,-64.6446 -33.2226,-129.2805 -49.559,-193.9904 17.8252,-0.2235 35.8501,-1.1384 53.5766,0.4552 1.0243,62.2522 1.1877,124.5196 1.5649,186.7797 1.7676,-62.4107 1.1735,-124.8497 1.3969,-187.2767 18.2942,-0.111 36.5883,-0.2251 54.8824,-0.3409 -18.4242,70.7443 -38.4622,141.9364 -56.2465,212.3126 -0.3329,10.1503 14.4822,-15.8966 19.4074,-17.9925 58.2815,-65.3149 117.2121,-130.0627 174.8071,-195.9827 -27.5771,-29.4402 -55.9404,-58.1381 -83.9461,-87.1717 -72.1155,0 -144.2311,6e-4 -216.3467,0 z m 106.0134,304.5445 c -0.111,-0.1109 0.063,0.2918 0,0 z m 0.032,-0.9481 c 0,-7.3078 0.2046,-39.0933 -0.2616,-16.5822 -0.047,7.9208 0.047,17.3515 -2.9808,3.9033 -5.7938,-21.038 1.8209,9.6231 3.2428,12.6789 z m -103.402,-301.4102 c 12.3636,1.7012 30.5675,-0.1427 45.1693,0.4217 18.4726,0.079 36.9502,-0.2235 55.4198,0.1109 -16.4793,27.5432 -35.5123,53.4665 -54.0412,79.6328 -15.9429,-26.083 -31.584,-52.3563 -47.0027,-78.7524 -1.1416,14.214 16.8104,28.8682 22.2204,43.512 7.6343,12.8278 15.2547,25.6643 22.8789,38.4982 -22.6713,-0.3219 -45.4797,0.7897 -68.0468,-0.8087 6.9387,-24.8657 13.4079,-49.8647 20.7453,-74.6177 -8.6534,24.7543 -16.2278,50.1995 -24.3115,74.9218 -17.7514,0.8705 -35.6045,0.268 -53.3723,-0.4741 26.7571,-27.5031 53.2736,-55.2817 80.3408,-82.4515 z m -0.4552,1.419 c 0.9451,-0.7737 -1.067,-0.5455 0,0 z m 157.8752,-0.9973 c 17.6658,0.063 35.3369,-0.079 52.9986,0.2822 -15.9629,27.5237 -32.1446,54.9221 -48.4287,82.2571 -19.7036,-26.7981 -38.8238,-54.0708 -57.3735,-81.6823 17.4773,-1.5857 35.2459,-0.4868 52.8036,-0.8579 z m 54.9052,2.5564 c 7.7511,26.7217 13.5168,54.0342 20.0567,81.0975 -21.9474,-0.1839 -43.9267,0.4504 -65.8495,-0.4757 5.8175,-14.58 17.1371,-30.1158 25.2134,-45.0478 6.6866,-11.9411 14.3736,-23.4068 20.5794,-35.5739 z m 3.0759,1.5522 c 26.0482,26.3133 51.6896,53.0307 77.5313,79.5483 -19.2209,-0.3076 -38.5726,0.7738 -57.6921,-0.8118 -6.769,-26.2054 -13.3739,-52.4545 -19.8392,-78.7363 z m -113.7373,2.4006 c 0.788,25.4874 0.3345,50.9995 0.4486,76.498 -17.7167,-0.1426 -35.4628,0.4012 -53.1545,-0.5612 17.2681,-25.5119 34.8235,-50.8507 52.7065,-75.9362 z m 3.5339,1.2271 c 17.7943,24.959 35.3107,50.1987 52.5666,75.5595 -17.7508,0.2902 -35.5088,0.1648 -53.255,-0.3251 0.271,-25.0681 -0.6645,-50.2395 0.688,-75.2341 z m 91.7577,79.1521 c 11.6498,2.3272 45.8861,-6.2254 28.5319,12.495 -36.2385,60.7625 -77.9528,118.1734 -110.9967,180.8434 -3.904,6.8284 -12.0252,23.9977 -6.3294,6.8387 18.115,-66.6803 36.2404,-133.3583 54.6083,-199.9693 7.7272,-0.8879 23.6795,-0.095 34.1859,-0.2078 z m 38.1386,0 c 18.8997,0.1109 37.8168,-0.3251 56.7014,0.455 -62.4051,70.5994 -126.8045,139.5046 -186.9582,212.0754 42.104,-71.5326 85.5741,-142.4974 130.2568,-212.5304 z m -130.783,211.2635 c 0.9704,1.0418 -1.3033,0.6897 0,0 z m -0.3012,1.9975 c 0.2537,0.4232 -1.037,0.9259 0,0 z"
       sodipodi:nodetypes="cscccccscscccsscccssccccsscccccccsccccccccsccscscccccccccscccccccccccccccccccccscssccccccccssscccccccsccscssccscsscccsscscscssccccsccsccccccsscscssccssccccscscccssccscccscsccss"
       inkscape:export-filename="C:\wamp64\www\JS Projects\carat-haus\fullLogoBlack.png"
       inkscape:export-xdpi="95.978104"
       inkscape:export-ydpi="95.978104" />
    <text
       xml:space="preserve"
       style="font-size:66.2561px;line-height:1.25;font-family:Montserrat;-inkscape-font-specification:Montserrat;letter-spacing:27.7699px;stroke:#000000;stroke-width:1;stroke-miterlimit:4;stroke-dasharray:none;stroke-opacity:1"
       x="3269.417"
       y="6651.0981"
       id="text3660-9-6-6-0"
       inkscape:export-filename="C:\wamp64\www\JS Projects\carat-haus\fullLogoBlack.png"
       inkscape:export-xdpi="95.978104"
       inkscape:export-ydpi="95.978104"><tspan
         sodipodi:role="line"
         id="tspan3658-8-5-1-3"
         style="stroke:#000000;stroke-width:1;stroke-miterlimit:4;stroke-dasharray:none;stroke-opacity:1"
         x="3269.417"
         y="6651.0981">LONDON</tspan></text>
    <text
       xml:space="preserve"
       style="font-size:141.111px;line-height:1.25;font-family:Cinzel;-inkscape-font-specification:Cinzel;letter-spacing:92.6042px;stroke:#000000;stroke-width:2.46665;stroke-opacity:1"
       id="text11128-9-65-2-5"
       inkscape:export-filename="C:\wamp64\www\JS Projects\carat-haus\carathaus-title.png"
       inkscape:export-xdpi="95.978104"
       inkscape:export-ydpi="95.978104"
       transform="rotate(120.77585,5289.3156,4015.3206)"><textPath
         xlink:href="#path898-7-7"
         id="textPath31286-5-6"><tspan
           id="tspan11126-5-0-8-7"
           style="font-size:141.111px;stroke:#000000;stroke-width:2.46665;stroke-opacity:1">HAUS</tspan></textPath></text>
    <text
       xml:space="preserve"
       style="font-size:141.111px;line-height:1.25;font-family:Cinzel;-inkscape-font-specification:Cinzel;letter-spacing:92.6042px;stroke:#000000;stroke-width:0.950743;stroke-opacity:1"
       id="text11128-9-6-3-8-8"
       inkscape:export-filename="C:\wamp64\www\JS Projects\carat-haus\carathaus-title.png"
       inkscape:export-xdpi="95.978104"
       inkscape:export-ydpi="95.978104"
       transform="rotate(-141.78601,6430.5822,5472.4283)"><textPath
         xlink:href="#path898-7-8"
         id="textPath31251-5-1-2"><tspan
           id="tspan11126-5-4-3-3-9"
           style="font-size:141.111px;stroke:#000000;stroke-width:0.950743;stroke-opacity:1">CARAT </tspan></textPath></text>
    <circle
       style="fill:none;fill-opacity:0;stroke:#000000;stroke-width:15;stroke-miterlimit:4;stroke-dasharray:none;stroke-opacity:1"
       id="path898-0-8"
       cx="3493.8809"
       cy="6449.8818"
       r="667.29462" />
    <circle
       style="fill:none;fill-opacity:0;stroke:#000000;stroke-width:15;stroke-miterlimit:4;stroke-dasharray:none;stroke-opacity:1"
       id="path898-7-9-2-8"
       cx="3493.8809"
       cy="6449.8818"
       r="462.51215" />
    <path
       id="path8094-9-6-13-9-79-3"
       style="fill:#000000;fill-opacity:1;stroke:#000000;stroke-width:9;stroke-linecap:round;stroke-linejoin:round;stroke-miterlimit:4;stroke-dasharray:none;stroke-opacity:1"
       d="m 5068.7312,4781.8243 c -27.5026,28.6353 -55.605,56.7207 -82.3968,86.0184 61.3164,72.1737 122.526,143.9203 184.9694,215.1297 8.5102,6.9372 -14.4298,-18.4157 -18.7317,-24.2015 -52.7374,-63.4489 -106.8504,-125.7326 -160.4953,-188.4113 17.8937,0.1935 35.9062,-1.0099 53.71,0.4773 42.4683,69.931 83.4194,140.7994 126.3843,210.4156 5.1708,5.1661 -8.4444,-15.5468 -10.9584,-20.2202 -37.3626,-63.0888 -74.5059,-126.3097 -111.2716,-189.7477 22.0598,-1.6848 44.3508,-1.1005 66.4684,-0.4186 17.2957,64.8004 33.3752,129.945 52.7842,194.1623 -16.5923,-64.6446 -33.2226,-129.2805 -49.559,-193.9904 17.8252,-0.2235 35.8501,-1.1384 53.5766,0.4552 1.0243,62.2522 1.1877,124.5196 1.5649,186.7797 1.7676,-62.4107 1.1735,-124.8497 1.3969,-187.2767 18.2942,-0.111 36.5883,-0.2251 54.8824,-0.3409 -18.4242,70.7443 -38.4622,141.9364 -56.2465,212.3126 -0.3329,10.1503 14.4822,-15.8966 19.4074,-17.9925 58.2815,-65.3149 117.2121,-130.0627 174.8071,-195.9827 -27.5771,-29.4402 -55.9404,-58.1381 -83.9461,-87.1717 -72.1155,0 -144.2311,6e-4 -216.3467,0 z m 106.0134,304.5445 c -0.111,-0.1109 0.063,0.2918 0,0 z m 0.032,-0.9481 c 0,-7.3078 0.2046,-39.0933 -0.2616,-16.5822 -0.047,7.9208 0.047,17.3515 -2.9808,3.9033 -5.7938,-21.038 1.8209,9.6231 3.2428,12.6789 z m -103.402,-301.4102 c 12.3636,1.7012 30.5675,-0.1427 45.1693,0.4217 18.4726,0.079 36.9502,-0.2235 55.4198,0.1109 -16.4793,27.5432 -35.5123,53.4665 -54.0412,79.6328 -15.9429,-26.083 -31.584,-52.3563 -47.0027,-78.7524 -1.1416,14.214 16.8104,28.8682 22.2204,43.512 7.6343,12.8278 15.2547,25.6643 22.8789,38.4982 -22.6713,-0.3219 -45.4797,0.7897 -68.0468,-0.8087 6.9387,-24.8657 13.4079,-49.8647 20.7453,-74.6177 -8.6534,24.7543 -16.2278,50.1995 -24.3115,74.9218 -17.7514,0.8705 -35.6045,0.268 -53.3723,-0.4741 26.7571,-27.5031 53.2736,-55.2817 80.3408,-82.4515 z m -0.4552,1.419 c 0.9451,-0.7737 -1.067,-0.5455 0,0 z m 157.8752,-0.9973 c 17.6658,0.063 35.3369,-0.079 52.9986,0.2822 -15.9629,27.5237 -32.1446,54.9221 -48.4287,82.2571 -19.7036,-26.7981 -38.8238,-54.0708 -57.3735,-81.6823 17.4773,-1.5857 35.2459,-0.4868 52.8036,-0.8579 z m 54.9052,2.5564 c 7.7511,26.7217 13.5168,54.0342 20.0567,81.0975 -21.9474,-0.1839 -43.9267,0.4504 -65.8495,-0.4757 5.8175,-14.58 17.1371,-30.1158 25.2134,-45.0478 6.6866,-11.9411 14.3736,-23.4068 20.5794,-35.5739 z m 3.0759,1.5522 c 26.0482,26.3133 51.6896,53.0307 77.5313,79.5483 -19.2209,-0.3076 -38.5726,0.7738 -57.6921,-0.8118 -6.769,-26.2054 -13.3739,-52.4545 -19.8392,-78.7363 z m -113.7373,2.4006 c 0.788,25.4874 0.3345,50.9995 0.4486,76.498 -17.7167,-0.1426 -35.4628,0.4012 -53.1545,-0.5612 17.2681,-25.5119 34.8235,-50.8507 52.7065,-75.9362 z m 3.5339,1.2271 c 17.7943,24.959 35.3107,50.1987 52.5666,75.5595 -17.7508,0.2902 -35.5088,0.1648 -53.255,-0.3251 0.271,-25.0681 -0.6645,-50.2395 0.688,-75.2341 z m 91.7577,79.1521 c 11.6498,2.3272 45.8861,-6.2254 28.5319,12.495 -36.2385,60.7625 -77.9528,118.1734 -110.9967,180.8434 -3.904,6.8284 -12.0252,23.9977 -6.3294,6.8387 18.115,-66.6803 36.2404,-133.3583 54.6083,-199.9693 7.7272,-0.8879 23.6795,-0.095 34.1859,-0.2078 z m 38.1386,0 c 18.8997,0.1109 37.8168,-0.3251 56.7014,0.455 -62.4051,70.5994 -126.8045,139.5046 -186.9582,212.0754 42.104,-71.5326 85.5741,-142.4974 130.2568,-212.5304 z m -130.783,211.2635 c 0.9704,1.0418 -1.3033,0.6897 0,0 z m -0.3012,1.9975 c 0.2537,0.4232 -1.037,0.9259 0,0 z"
       sodipodi:nodetypes="cscccccscscccsscccssccccsscccccccsccccccccsccscscccccccccscccccccccccccccccccccscssccccccccssscccccccsccscssccscsscccsscscscssccccsccsccccccsscscssccssccccscscccssccscccscsccss"
       inkscape:export-filename="C:\wamp64\www\JS Projects\carat-haus\fullLogoBlack.png"
       inkscape:export-xdpi="95.978104"
       inkscape:export-ydpi="95.978104" />
    <text
       xml:space="preserve"
       style="font-size:40.9085px;line-height:1.25;font-family:Montserrat;-inkscape-font-specification:Montserrat;letter-spacing:17.146px;stroke:#000000;stroke-width:0.61743;stroke-miterlimit:4;stroke-dasharray:none;stroke-opacity:1"
       x="5039.0879"
       y="4752.5166"
       id="text3660-9-6-6-7"
       inkscape:export-filename="C:\wamp64\www\JS Projects\carat-haus\fullLogoBlack.png"
       inkscape:export-xdpi="95.978104"
       inkscape:export-ydpi="95.978104"><tspan
         sodipodi:role="line"
         id="tspan3658-8-5-1-9"
         style="stroke:#000000;stroke-width:0.61743;stroke-miterlimit:4;stroke-dasharray:none;stroke-opacity:1"
         x="5039.0879"
         y="4752.5166">LONDON</tspan></text>
    <text
       xml:space="preserve"
       style="font-size:141.111px;line-height:1.25;font-family:Cinzel;-inkscape-font-specification:Cinzel;letter-spacing:92.6042px;stroke:#000000;stroke-width:2.46665;stroke-opacity:1"
       id="text11128-9-65-2-6"
       inkscape:export-filename="C:\wamp64\www\JS Projects\carat-haus\carathaus-title.png"
       inkscape:export-xdpi="95.978104"
       inkscape:export-ydpi="95.978104"
       transform="rotate(120.77585,6575.1562,3712.7253)"><textPath
         xlink:href="#path898-7-7"
         id="textPath31286-5-4"><tspan
           id="tspan11126-5-0-8-8"
           style="font-size:141.111px;stroke:#000000;stroke-width:2.46665;stroke-opacity:1">HAUS</tspan></textPath></text>
    <text
       xml:space="preserve"
       style="font-size:141.111px;line-height:1.25;font-family:Cinzel;-inkscape-font-specification:Cinzel;letter-spacing:92.6042px;stroke:#000000;stroke-width:0.950743;stroke-opacity:1"
       id="text11128-9-6-3-8-0"
       inkscape:export-filename="C:\wamp64\www\JS Projects\carat-haus\carathaus-title.png"
       inkscape:export-xdpi="95.978104"
       inkscape:export-ydpi="95.978104"
       transform="rotate(-141.78601,7001.8959,4399.6843)"><textPath
         xlink:href="#path898-7-8"
         id="textPath31251-5-1-0"><tspan
           id="tspan11126-5-4-3-3-4"
           style="font-size:141.111px;stroke:#000000;stroke-width:0.950743;stroke-opacity:1">CARAT</tspan></textPath></text>
    <circle
       style="fill:none;fill-opacity:0;stroke:#000000;stroke-width:15;stroke-miterlimit:4;stroke-dasharray:none;stroke-opacity:1"
       id="path898-0-3"
       cx="5177.6787"
       cy="4887.6914"
       r="667.29462" />
    <circle
       style="fill:none;fill-opacity:0;stroke:#000000;stroke-width:15;stroke-miterlimit:4;stroke-dasharray:none;stroke-opacity:1"
       id="path898-7-9-2-2"
       cx="5177.6787"
       cy="4887.6914"
       r="462.51215" />
    <circle
       style="fill:none;fill-opacity:0;stroke:#000000;stroke-width:15;stroke-miterlimit:4;stroke-dasharray:none;stroke-opacity:1"
       id="path898-7-8"
       cx="8175.625"
       cy="2930.2605"
       r="462.51215" />
    <circle
       style="fill:none;fill-opacity:0;stroke:#000000;stroke-width:20.8215;stroke-miterlimit:4;stroke-dasharray:none;stroke-opacity:1"
       id="path898-7-7"
       cx="8268.2295"
       cy="-4319.3228"
       r="642.01282"
       transform="scale(1,-1)" />
    <text
       xml:space="preserve"
       style="font-size:50.8px;line-height:1.25;font-family:Cinzel;-inkscape-font-specification:Cinzel;letter-spacing:0px;stroke-width:0.264583"
       x="6416.146"
       y="1838.8541"
       id="text2741"><tspan
         sodipodi:role="line"
         id="tspan2739"
         style="stroke-width:0.264583"></tspan></text>
  </g>
</svg>
