<?xml version="1.0" encoding="UTF-8" standalone="no"?>
<!-- Created with Inkscape (http://www.inkscape.org/) -->

<svg
   width="4.490129mm"
   height="4.490129mm"
   viewBox="0 0 4.490129 4.490129"
   version="1.1"
   id="svg5"
   inkscape:version="1.1.1 (3bf5ae0d25, 2021-09-20)"
   sodipodi:docname="favicon.svg"
   xmlns:inkscape="http://www.inkscape.org/namespaces/inkscape"
   xmlns:sodipodi="http://sodipodi.sourceforge.net/DTD/sodipodi-0.dtd"
   xmlns="http://www.w3.org/2000/svg"
   xmlns:svg="http://www.w3.org/2000/svg">
  <sodipodi:namedview
     id="namedview7"
     pagecolor="#ffc3ff"
     bordercolor="#666666"
     borderopacity="1.0"
     inkscape:pageshadow="2"
     inkscape:pageopacity="0"
     inkscape:pagecheckerboard="0"
     inkscape:document-units="mm"
     showgrid="false"
     inkscape:zoom="8.0000002"
     inkscape:cx="-20.374999"
     inkscape:cy="26.437499"
     inkscape:window-width="1920"
     inkscape:window-height="991"
     inkscape:window-x="-9"
     inkscape:window-y="1341"
     inkscape:window-maximized="1"
     inkscape:current-layer="layer1"
     inkscape:snap-global="false" />
  <defs
     id="defs2">
    <inkscape:path-effect
       effect="powerclip"
       id="path-effect6954"
       is_visible="true"
       lpeversion="1"
       inverse="true"
       flatten="false"
       hide_clip="false"
       message="Use fill-rule evenodd on &lt;b&gt;fill and stroke&lt;/b&gt; dialog if no flatten result after convert clip to paths." />
    <inkscape:path-effect
       effect="powerclip"
       id="path-effect6950"
       is_visible="true"
       lpeversion="1"
       inverse="true"
       flatten="false"
       hide_clip="false"
       message="Use fill-rule evenodd on &lt;b&gt;fill and stroke&lt;/b&gt; dialog if no flatten result after convert clip to paths." />
    <inkscape:path-effect
       effect="powerclip"
       id="path-effect3256"
       is_visible="true"
       lpeversion="1"
       inverse="true"
       flatten="false"
       hide_clip="false"
       message="Use fill-rule evenodd on &lt;b&gt;fill and stroke&lt;/b&gt; dialog if no flatten result after convert clip to paths." />
    <inkscape:path-effect
       effect="powerclip"
       id="path-effect2085"
       is_visible="true"
       lpeversion="1"
       inverse="true"
       flatten="false"
       hide_clip="false"
       message="Use fill-rule evenodd on &lt;b&gt;fill and stroke&lt;/b&gt; dialog if no flatten result after convert clip to paths." />
    <clipPath
       clipPathUnits="userSpaceOnUse"
       id="clipPath2081">
      <path
         id="path2083"
         style="display:none;fill:#b0006f;fill-opacity:0.421525;stroke-width:0.470575;stroke-linecap:round;stroke-linejoin:round"
         d="m 81.84578,103.49502 c 0,1.37436 -4.706242,10.74421 -11.753562,11.63867 -3.221098,0.40883 -11.697959,-7.69878 -12.003103,-7.21254 -1.762755,2.80896 -4.973849,4.99864 -8.605719,4.99864 -5.476795,0 -9.916612,-4.8191 -9.916612,-10.76376 0,-5.944661 4.439819,-10.763758 9.916612,-10.763758 3.509463,0 6.140331,1.769366 8.07379,4.647356 0.514498,0.765839 13.350425,-11.663273 13.350425,-11.663273 4.333777,-3.7861 10.938169,18.095225 10.938169,19.118665 z"
         sodipodi:nodetypes="sssssssss" />
      <path
         id="lpe_path-effect2085"
         style="fill:#b0006f;fill-opacity:0.421525;stroke-width:0.470575;stroke-linecap:round;stroke-linejoin:round"
         class="powerclip"
         d="M 23.208178,75.895168 H 75.482199 V 128.36852 H 23.208178 Z M 81.84578,103.49502 c 0,-1.02344 -6.604392,-22.904765 -10.938169,-19.118665 0,0 -12.835927,12.429112 -13.350425,11.663273 -1.933459,-2.87799 -4.564327,-4.647356 -8.07379,-4.647356 -5.476793,0 -9.916612,4.819097 -9.916612,10.763758 0,5.94466 4.439817,10.76376 9.916612,10.76376 3.63187,0 6.842964,-2.18968 8.605719,-4.99864 0.305144,-0.48624 8.782005,7.62137 12.003103,7.21254 7.04732,-0.89446 11.753562,-10.26431 11.753562,-11.63867 z" />
    </clipPath>
    <clipPath
       clipPathUnits="userSpaceOnUse"
       id="clipPath2081-5">
      <path
         id="path2083-6"
         style="display:none;fill:#b0006f;fill-opacity:0.421525;stroke-width:0.470575;stroke-linecap:round;stroke-linejoin:round"
         d="m 81.84578,103.49502 c 0,1.37436 -4.706242,10.74421 -11.753562,11.63867 -3.221098,0.40883 -11.697959,-7.69878 -12.003103,-7.21254 -1.762755,2.80896 -4.973849,4.99864 -8.605719,4.99864 -5.476795,0 -9.916612,-4.8191 -9.916612,-10.76376 0,-5.944661 4.439819,-10.763758 9.916612,-10.763758 3.509463,0 6.140331,1.769366 8.07379,4.647356 0.514498,0.765839 13.350425,-11.663273 13.350425,-11.663273 4.333777,-3.7861 10.938169,18.095225 10.938169,19.118665 z"
         sodipodi:nodetypes="sssssssss" />
      <path
         id="lpe_path-effect2085-8"
         style="fill:#b0006f;fill-opacity:0.421525;stroke-width:0.470575;stroke-linecap:round;stroke-linejoin:round"
         class="powerclip"
         d="M 23.208178,75.895168 H 75.482199 V 128.36852 H 23.208178 Z M 81.84578,103.49502 c 0,-1.02344 -6.604392,-22.904765 -10.938169,-19.118665 0,0 -12.835927,12.429112 -13.350425,11.663273 -1.933459,-2.87799 -4.564327,-4.647356 -8.07379,-4.647356 -5.476793,0 -9.916612,4.819097 -9.916612,10.763758 0,5.94466 4.439817,10.76376 9.916612,10.76376 3.63187,0 6.842964,-2.18968 8.605719,-4.99864 0.305144,-0.48624 8.782005,7.62137 12.003103,7.21254 7.04732,-0.89446 11.753562,-10.26431 11.753562,-11.63867 z" />
    </clipPath>
    <clipPath
       clipPathUnits="userSpaceOnUse"
       id="clipath_lpe_path-effect3256">
      <path
         id="path3258"
         style="display:none;fill:#b0006f;fill-opacity:0.421525;stroke-width:0.470575;stroke-linecap:round;stroke-linejoin:round"
         d="m 81.84578,103.49502 c 0,1.37436 -4.706242,10.74421 -11.753562,11.63867 -3.221098,0.40883 -11.697959,-7.69878 -12.003103,-7.21254 -1.762755,2.80896 -4.973849,4.99864 -8.605719,4.99864 -5.476795,0 -9.916612,-4.8191 -9.916612,-10.76376 0,-5.944661 4.439819,-10.763758 9.916612,-10.763758 3.509463,0 6.140331,1.769366 8.07379,4.647356 0.514498,0.765839 13.350425,-11.663273 13.350425,-11.663273 4.333777,-3.7861 10.938169,18.095225 10.938169,19.118665 z"
         sodipodi:nodetypes="sssssssss" />
      <path
         id="lpe_path-effect3256"
         style="fill:#b0006f;fill-opacity:0.421525;stroke-width:0.470575;stroke-linecap:round;stroke-linejoin:round"
         class="powerclip"
         d="M 23.208178,75.895168 H 75.482199 V 128.36852 H 23.208178 Z" />
    </clipPath>
    <clipPath
       clipPathUnits="userSpaceOnUse"
       id="clipPath3345">
      <path
         style="fill:#ff0000;fill-opacity:1;stroke:none;stroke-width:0.0920089;stroke-opacity:1"
         d="m 77.58275,131.9569 c -0.178263,0.0431 -2.282952,-0.16984 -4.696383,-0.4754 -2.40534,-0.30454 -6.32342,-0.79944 -8.706829,-1.09974 -15.645021,-1.97128 -24.302765,-3.06581 -33.499838,-4.23506 -3.523911,-0.44799 -7.428841,-0.94268 -8.677616,-1.09929 -1.248778,-0.15663 -2.42896,-0.32319 -2.622624,-0.37015 -0.660456,-0.16015 -0.981898,-0.7125 -0.928968,-1.59626 0.01807,-0.30112 0.162171,-5.81498 0.320299,-12.25305 l 0.287507,-11.705559 13.276366,-13.276371 13.27636,-13.276361 1.560074,-0.0268 c 0.858043,-0.01471 6.41242,-0.127979 12.343061,-0.251651 6.876399,-0.143399 10.889678,-0.180679 11.077458,-0.102899 0.21631,0.0896 0.341241,0.202819 0.470742,0.42663 0.123018,0.21259 1.270428,8.998429 3.79707,29.074531 1.991439,15.82343 3.611221,28.96978 3.599492,29.21407 -0.0254,0.52718 -0.35863,0.92792 -0.876171,1.05336 z M 63.083938,109.51955 C 57.293177,99.869921 52.517038,91.910529 52.47031,91.832019 c -0.08053,-0.1353 -0.455745,0.228042 -7.191692,6.963982 -6.735951,6.735949 -7.099287,7.111169 -6.96399,7.191699 0.07851,0.0467 8.037899,4.82287 17.687531,10.61363 9.649629,5.79078 17.559568,10.51391 17.57762,10.49586 0.0181,-0.0183 -4.705061,-7.92803 -10.495841,-17.57764 z m -9.04459,8.55665 -17.486919,-10.48895 -7.420136,7.38705 c -6.11618,6.08891 -7.39929,7.39635 -7.301564,7.43987 0.215419,0.0959 49.77501,6.29743 49.734859,6.22343 -0.0217,-0.0399 -7.908451,-4.79248 -17.52624,-10.5614 z M 72.054567,100.13427 C 70.346838,86.567139 68.925838,75.41339 68.896789,75.348149 c -0.0435,-0.0978 -1.349981,1.18436 -7.439882,7.301532 l -7.38704,7.420139 10.48884,17.48702 c 5.768861,9.61787 10.51619,17.51613 10.54962,17.55172 0.0336,0.0354 0.0587,-0.019 0.056,-0.12105 -0.0021,-0.10221 -1.402022,-11.28612 -3.10974,-24.85324 z m -37.717499,6.32739 c -0.12727,-0.12727 -13.157232,-5.17339 -13.186678,-5.10681 -0.05215,0.1179 -0.559951,18.81177 -0.512349,18.86127 0.02638,0.0273 3.136572,-3.03898 6.911686,-6.81411 5.217097,-5.21711 6.845491,-6.8822 6.787341,-6.94035 z M 49.991736,90.780319 c -0.128458,-0.0797 -15.392707,-2.761499 -15.44179,-2.712979 -0.04907,0.0486 2.632154,15.31223 2.71245,15.44125 0.05881,0.0945 1.038672,-0.85793 6.454778,-6.274031 5.397889,-5.397889 6.368293,-6.396069 6.274562,-6.45424 z m 16.706982,-16.62489 c -0.0496,-0.0477 -18.743504,0.460261 -18.861558,0.5125 -0.0673,0.0298 4.976955,13.05637 5.105588,13.185011 0.06019,0.0602 1.648949,-1.492901 6.941859,-6.785819 3.77512,-3.77512 6.841472,-6.885382 6.814111,-6.911692 z M 33.672979,96.50472 c -0.705575,-4.03931 -1.310653,-7.371991 -1.344623,-7.405971 -0.03845,-0.0385 -1.965087,1.84155 -5.103931,4.9804 -4.091705,4.091702 -5.026226,5.05809 -4.957652,5.12667 0.04649,0.0465 2.823081,1.149091 6.170216,2.450251 3.34714,1.30116 6.184535,2.4088 6.305322,2.46143 0.188923,0.0823 0.219197,0.0702 0.216578,-0.0864 -0.0016,-0.10017 -0.580337,-3.48703 -1.28591,-7.52633 z m 14.52358,-14.419411 c -1.335905,-3.42324 -2.465755,-6.260428 -2.510782,-6.30487 -0.06484,-0.0639 -1.133954,0.971312 -5.124019,4.961382 -3.15958,3.15958 -5.018974,5.06535 -4.980032,5.104289 0.03417,0.0342 2.768613,0.534839 6.07654,1.112599 8.800094,1.53702 8.981945,1.566492 8.974251,1.453891 -0.0031,-0.0568 -1.100058,-2.904041 -2.435958,-6.327291 z"
         id="path3347" />
    </clipPath>
    <clipPath
       clipPathUnits="userSpaceOnUse"
       id="clipPath2081-1">
      <path
         id="path2083-1"
         style="display:none;fill:#b0006f;fill-opacity:0.421525;stroke-width:0.470575;stroke-linecap:round;stroke-linejoin:round"
         d="m 81.84578,103.49502 c 0,1.37436 -4.706242,10.74421 -11.753562,11.63867 -3.221098,0.40883 -11.697959,-7.69878 -12.003103,-7.21254 -1.762755,2.80896 -4.973849,4.99864 -8.605719,4.99864 -5.476795,0 -9.916612,-4.8191 -9.916612,-10.76376 0,-5.944661 4.439819,-10.763758 9.916612,-10.763758 3.509463,0 6.140331,1.769366 8.07379,4.647356 0.514498,0.765839 13.350425,-11.663273 13.350425,-11.663273 4.333777,-3.7861 10.938169,18.095225 10.938169,19.118665 z"
         sodipodi:nodetypes="sssssssss" />
      <path
         id="lpe_path-effect2085-1"
         style="fill:#b0006f;fill-opacity:0.421525;stroke-width:0.470575;stroke-linecap:round;stroke-linejoin:round"
         class="powerclip"
         d="M 23.208178,75.895168 H 75.482199 V 128.36852 H 23.208178 Z M 81.84578,103.49502 c 0,-1.02344 -6.604392,-22.904765 -10.938169,-19.118665 0,0 -12.835927,12.429112 -13.350425,11.663273 -1.933459,-2.87799 -4.564327,-4.647356 -8.07379,-4.647356 -5.476793,0 -9.916612,4.819097 -9.916612,10.763758 0,5.94466 4.439817,10.76376 9.916612,10.76376 3.63187,0 6.842964,-2.18968 8.605719,-4.99864 0.305144,-0.48624 8.782005,7.62137 12.003103,7.21254 7.04732,-0.89446 11.753562,-10.26431 11.753562,-11.63867 z" />
    </clipPath>
    <clipPath
       clipPathUnits="userSpaceOnUse"
       id="clipPath3345-0">
      <path
         style="display:none;fill:#ff0000;fill-opacity:1;stroke:none;stroke-width:0.0920089;stroke-opacity:1"
         d="m 77.58275,131.9569 c -0.178263,0.0431 -2.282952,-0.16984 -4.696383,-0.4754 -2.40534,-0.30454 -6.32342,-0.79944 -8.706829,-1.09974 -15.645021,-1.97128 -24.302765,-3.06581 -33.499838,-4.23506 -3.523911,-0.44799 -7.428841,-0.94268 -8.677616,-1.09929 -1.248778,-0.15663 -2.42896,-0.32319 -2.622624,-0.37015 -0.660456,-0.16015 -0.981898,-0.7125 -0.928968,-1.59626 0.01807,-0.30112 0.162171,-5.81498 0.320299,-12.25305 l 0.287507,-11.705559 13.276366,-13.276371 13.27636,-13.276361 1.560074,-0.0268 c 0.858043,-0.01471 6.41242,-0.127979 12.343061,-0.251651 6.876399,-0.143399 10.889678,-0.180679 11.077458,-0.102899 0.21631,0.0896 0.341241,0.202819 0.470742,0.42663 0.123018,0.21259 1.270428,8.998429 3.79707,29.074531 1.991439,15.82343 3.611221,28.96978 3.599492,29.21407 -0.0254,0.52718 -0.35863,0.92792 -0.876171,1.05336 z M 63.083938,109.51955 C 57.293177,99.869921 52.517038,91.910529 52.47031,91.832019 c -0.08053,-0.1353 -0.455745,0.228042 -7.191692,6.963982 -6.735951,6.735949 -7.099287,7.111169 -6.96399,7.191699 0.07851,0.0467 8.037899,4.82287 17.687531,10.61363 9.649629,5.79078 17.559568,10.51391 17.57762,10.49586 0.0181,-0.0183 -4.705061,-7.92803 -10.495841,-17.57764 z m -9.04459,8.55665 -17.486919,-10.48895 -7.420136,7.38705 c -6.11618,6.08891 -7.39929,7.39635 -7.301564,7.43987 0.215419,0.0959 49.77501,6.29743 49.734859,6.22343 -0.0217,-0.0399 -7.908451,-4.79248 -17.52624,-10.5614 z M 72.054567,100.13427 C 70.346838,86.567139 68.925838,75.41339 68.896789,75.348149 c -0.0435,-0.0978 -1.349981,1.18436 -7.439882,7.301532 l -7.38704,7.420139 10.48884,17.48702 c 5.768861,9.61787 10.51619,17.51613 10.54962,17.55172 0.0336,0.0354 0.0587,-0.019 0.056,-0.12105 -0.0021,-0.10221 -1.402022,-11.28612 -3.10974,-24.85324 z m -37.717499,6.32739 c -0.12727,-0.12727 -13.157232,-5.17339 -13.186678,-5.10681 -0.05215,0.1179 -0.559951,18.81177 -0.512349,18.86127 0.02638,0.0273 3.136572,-3.03898 6.911686,-6.81411 5.217097,-5.21711 6.845491,-6.8822 6.787341,-6.94035 z M 49.991736,90.780319 c -0.128458,-0.0797 -15.392707,-2.761499 -15.44179,-2.712979 -0.04907,0.0486 2.632154,15.31223 2.71245,15.44125 0.05881,0.0945 1.038672,-0.85793 6.454778,-6.274031 5.397889,-5.397889 6.368293,-6.396069 6.274562,-6.45424 z m 16.706982,-16.62489 c -0.0496,-0.0477 -18.743504,0.460261 -18.861558,0.5125 -0.0673,0.0298 4.976955,13.05637 5.105588,13.185011 0.06019,0.0602 1.648949,-1.492901 6.941859,-6.785819 3.77512,-3.77512 6.841472,-6.885382 6.814111,-6.911692 z M 33.672979,96.50472 c -0.705575,-4.03931 -1.310653,-7.371991 -1.344623,-7.405971 -0.03845,-0.0385 -1.965087,1.84155 -5.103931,4.9804 -4.091705,4.091702 -5.026226,5.05809 -4.957652,5.12667 0.04649,0.0465 2.823081,1.149091 6.170216,2.450251 3.34714,1.30116 6.184535,2.4088 6.305322,2.46143 0.188923,0.0823 0.219197,0.0702 0.216578,-0.0864 -0.0016,-0.10017 -0.580337,-3.48703 -1.28591,-7.52633 z m 14.52358,-14.419411 c -1.335905,-3.42324 -2.465755,-6.260428 -2.510782,-6.30487 -0.06484,-0.0639 -1.133954,0.971312 -5.124019,4.961382 -3.15958,3.15958 -5.018974,5.06535 -4.980032,5.104289 0.03417,0.0342 2.768613,0.534839 6.07654,1.112599 8.800094,1.53702 8.981945,1.566492 8.974251,1.453891 -0.0031,-0.0568 -1.100058,-2.904041 -2.435958,-6.327291 z"
         id="path3347-0" />
      <path
         id="lpe_path-effect3256-2"
         style="fill:#ff0000;fill-opacity:1;stroke:none;stroke-width:0.0920089;stroke-opacity:1"
         class="powerclip"
         d="M 23.208178,75.895168 H 75.482199 V 128.36852 H 23.208178 Z M 77.58275,131.9569 c 0.517541,-0.12544 0.850771,-0.52618 0.876171,-1.05336 0.01173,-0.24429 -1.608053,-13.39064 -3.599492,-29.21407 -2.526642,-20.076102 -3.674052,-28.861941 -3.79707,-29.074531 -0.129501,-0.223811 -0.254432,-0.33703 -0.470742,-0.42663 -0.18778,-0.07778 -4.201059,-0.0405 -11.077458,0.102899 -5.930641,0.123672 -11.485018,0.236941 -12.343061,0.251651 l -1.560074,0.0268 -13.27636,13.276361 -13.276366,13.276371 -0.287507,11.705559 c -0.158128,6.43807 -0.302229,11.95193 -0.320299,12.25305 -0.05293,0.88376 0.268512,1.43611 0.928968,1.59626 0.193664,0.047 1.373846,0.21352 2.622624,0.37015 1.248775,0.15661 5.153705,0.6513 8.677616,1.09929 9.197073,1.16925 17.854817,2.26378 33.499838,4.23506 2.383409,0.3003 6.301489,0.7952 8.706829,1.09974 2.413431,0.30556 4.51812,0.5185 4.696383,0.4754 z M 63.083938,109.51955 C 57.293177,99.869921 52.517038,91.910529 52.47031,91.832019 c -0.08053,-0.1353 -0.455745,0.228042 -7.191692,6.963982 -6.735951,6.735949 -7.099287,7.111169 -6.96399,7.191699 0.07851,0.0467 8.037899,4.82287 17.687531,10.61363 9.649629,5.79078 17.559568,10.51391 17.57762,10.49586 0.0181,-0.0183 -4.705061,-7.92803 -10.495841,-17.57764 z m -9.04459,8.55665 -17.486919,-10.48895 -7.420136,7.38705 c -6.11618,6.08891 -7.39929,7.39635 -7.301564,7.43987 0.215419,0.0959 49.77501,6.29743 49.734859,6.22343 -0.0217,-0.0399 -7.908451,-4.79248 -17.52624,-10.5614 z M 72.054567,100.13427 C 70.346838,86.567139 68.925838,75.41339 68.896789,75.348149 c -0.0435,-0.0978 -1.349981,1.18436 -7.439882,7.301532 l -7.38704,7.420139 10.48884,17.48702 c 5.768861,9.61787 10.51619,17.51613 10.54962,17.55172 0.0336,0.0354 0.0587,-0.019 0.056,-0.12105 -0.0021,-0.10221 -1.402022,-11.28612 -3.10974,-24.85324 z m -37.717499,6.32739 c -0.12727,-0.12727 -13.157232,-5.17339 -13.186678,-5.10681 -0.05215,0.1179 -0.559951,18.81177 -0.512349,18.86127 0.02638,0.0273 3.136572,-3.03898 6.911686,-6.81411 5.217097,-5.21711 6.845491,-6.8822 6.787341,-6.94035 z M 49.991736,90.780319 c -0.128458,-0.0797 -15.392707,-2.761499 -15.44179,-2.712979 -0.04907,0.0486 2.632154,15.31223 2.71245,15.44125 0.05881,0.0945 1.038672,-0.85793 6.454778,-6.274031 5.397889,-5.397889 6.368293,-6.396069 6.274562,-6.45424 z m 16.706982,-16.62489 c -0.0496,-0.0477 -18.743504,0.460261 -18.861558,0.5125 -0.0673,0.0298 4.976955,13.05637 5.105588,13.185011 0.06019,0.0602 1.648949,-1.492901 6.941859,-6.785819 3.77512,-3.77512 6.841472,-6.885382 6.814111,-6.911692 z M 33.672979,96.50472 c -0.705575,-4.03931 -1.310653,-7.371991 -1.344623,-7.405971 -0.03845,-0.0385 -1.965087,1.84155 -5.103931,4.9804 -4.091705,4.091702 -5.026226,5.05809 -4.957652,5.12667 0.04649,0.0465 2.823081,1.149091 6.170216,2.450251 3.34714,1.30116 6.184535,2.4088 6.305322,2.46143 0.188923,0.0823 0.219197,0.0702 0.216578,-0.0864 -0.0016,-0.10017 -0.580337,-3.48703 -1.28591,-7.52633 z m 14.52358,-14.419411 c -1.335905,-3.42324 -2.465755,-6.260428 -2.510782,-6.30487 -0.06484,-0.0639 -1.133954,0.971312 -5.124019,4.961382 -3.15958,3.15958 -5.018974,5.06535 -4.980032,5.104289 0.03417,0.0342 2.768613,0.534839 6.07654,1.112599 8.800094,1.53702 8.981945,1.566492 8.974251,1.453891 -0.0031,-0.0568 -1.100058,-2.904041 -2.435958,-6.327291 z" />
    </clipPath>
    <clipPath
       clipPathUnits="userSpaceOnUse"
       id="clipath_lpe_path-effect6954">
      <path
         style="display:none;fill:#ff0000;fill-opacity:1;stroke:none;stroke-width:0.0920089;stroke-opacity:1"
         d="m 77.58275,131.9569 c -0.178263,0.0431 -2.282952,-0.16984 -4.696383,-0.4754 -2.40534,-0.30454 -6.32342,-0.79944 -8.706829,-1.09974 -15.645021,-1.97128 -24.302765,-3.06581 -33.499838,-4.23506 -3.523911,-0.44799 -7.428841,-0.94268 -8.677616,-1.09929 -1.248778,-0.15663 -2.42896,-0.32319 -2.622624,-0.37015 -0.660456,-0.16015 -0.981898,-0.7125 -0.928968,-1.59626 0.01807,-0.30112 0.162171,-5.81498 0.320299,-12.25305 l 0.287507,-11.705559 13.276366,-13.276371 13.27636,-13.276361 1.560074,-0.0268 c 0.858043,-0.01471 6.41242,-0.127979 12.343061,-0.251651 6.876399,-0.143399 10.889678,-0.180679 11.077458,-0.102899 0.21631,0.0896 0.341241,0.202819 0.470742,0.42663 0.123018,0.21259 1.270428,8.998429 3.79707,29.074531 1.991439,15.82343 3.611221,28.96978 3.599492,29.21407 -0.0254,0.52718 -0.35863,0.92792 -0.876171,1.05336 z M 63.083938,109.51955 C 57.293177,99.869921 52.517038,91.910529 52.47031,91.832019 c -0.08053,-0.1353 -0.455745,0.228042 -7.191692,6.963982 -6.735951,6.735949 -7.099287,7.111169 -6.96399,7.191699 0.07851,0.0467 8.037899,4.82287 17.687531,10.61363 9.649629,5.79078 17.559568,10.51391 17.57762,10.49586 0.0181,-0.0183 -4.705061,-7.92803 -10.495841,-17.57764 z m -9.04459,8.55665 -17.486919,-10.48895 -7.420136,7.38705 c -6.11618,6.08891 -7.39929,7.39635 -7.301564,7.43987 0.215419,0.0959 49.77501,6.29743 49.734859,6.22343 -0.0217,-0.0399 -7.908451,-4.79248 -17.52624,-10.5614 z M 72.054567,100.13427 C 70.346838,86.567139 68.925838,75.41339 68.896789,75.348149 c -0.0435,-0.0978 -1.349981,1.18436 -7.439882,7.301532 l -7.38704,7.420139 10.48884,17.48702 c 5.768861,9.61787 10.51619,17.51613 10.54962,17.55172 0.0336,0.0354 0.0587,-0.019 0.056,-0.12105 -0.0021,-0.10221 -1.402022,-11.28612 -3.10974,-24.85324 z m -37.717499,6.32739 c -0.12727,-0.12727 -13.157232,-5.17339 -13.186678,-5.10681 -0.05215,0.1179 -0.559951,18.81177 -0.512349,18.86127 0.02638,0.0273 3.136572,-3.03898 6.911686,-6.81411 5.217097,-5.21711 6.845491,-6.8822 6.787341,-6.94035 z M 49.991736,90.780319 c -0.128458,-0.0797 -15.392707,-2.761499 -15.44179,-2.712979 -0.04907,0.0486 2.632154,15.31223 2.71245,15.44125 0.05881,0.0945 1.038672,-0.85793 6.454778,-6.274031 5.397889,-5.397889 6.368293,-6.396069 6.274562,-6.45424 z m 16.706982,-16.62489 c -0.0496,-0.0477 -18.743504,0.460261 -18.861558,0.5125 -0.0673,0.0298 4.976955,13.05637 5.105588,13.185011 0.06019,0.0602 1.648949,-1.492901 6.941859,-6.785819 3.77512,-3.77512 6.841472,-6.885382 6.814111,-6.911692 z M 33.672979,96.50472 c -0.705575,-4.03931 -1.310653,-7.371991 -1.344623,-7.405971 -0.03845,-0.0385 -1.965087,1.84155 -5.103931,4.9804 -4.091705,4.091702 -5.026226,5.05809 -4.957652,5.12667 0.04649,0.0465 2.823081,1.149091 6.170216,2.450251 3.34714,1.30116 6.184535,2.4088 6.305322,2.46143 0.188923,0.0823 0.219197,0.0702 0.216578,-0.0864 -0.0016,-0.10017 -0.580337,-3.48703 -1.28591,-7.52633 z m 14.52358,-14.419411 c -1.335905,-3.42324 -2.465755,-6.260428 -2.510782,-6.30487 -0.06484,-0.0639 -1.133954,0.971312 -5.124019,4.961382 -3.15958,3.15958 -5.018974,5.06535 -4.980032,5.104289 0.03417,0.0342 2.768613,0.534839 6.07654,1.112599 8.800094,1.53702 8.981945,1.566492 8.974251,1.453891 -0.0031,-0.0568 -1.100058,-2.904041 -2.435958,-6.327291 z"
         id="path6956" />
      <path
         id="lpe_path-effect6954"
         style="fill:#ff0000;fill-opacity:1;stroke:none;stroke-width:0.0920089;stroke-opacity:1"
         class="powerclip"
         d="M 23.208178,75.895168 H 75.482199 V 128.36852 H 23.208178 Z M 77.58275,131.9569 c 0.517541,-0.12544 0.850771,-0.52618 0.876171,-1.05336 0.01173,-0.24429 -1.608053,-13.39064 -3.599492,-29.21407 -2.526642,-20.076102 -3.674052,-28.861941 -3.79707,-29.074531 -0.129501,-0.223811 -0.254432,-0.33703 -0.470742,-0.42663 -0.18778,-0.07778 -4.201059,-0.0405 -11.077458,0.102899 -5.930641,0.123672 -11.485018,0.236941 -12.343061,0.251651 l -1.560074,0.0268 -13.27636,13.276361 -13.276366,13.276371 -0.287507,11.705559 c -0.158128,6.43807 -0.302229,11.95193 -0.320299,12.25305 -0.05293,0.88376 0.268512,1.43611 0.928968,1.59626 0.193664,0.047 1.373846,0.21352 2.622624,0.37015 1.248775,0.15661 5.153705,0.6513 8.677616,1.09929 9.197073,1.16925 17.854817,2.26378 33.499838,4.23506 2.383409,0.3003 6.301489,0.7952 8.706829,1.09974 2.413431,0.30556 4.51812,0.5185 4.696383,0.4754 z M 63.083938,109.51955 C 57.293177,99.869921 52.517038,91.910529 52.47031,91.832019 c -0.08053,-0.1353 -0.455745,0.228042 -7.191692,6.963982 -6.735951,6.735949 -7.099287,7.111169 -6.96399,7.191699 0.07851,0.0467 8.037899,4.82287 17.687531,10.61363 9.649629,5.79078 17.559568,10.51391 17.57762,10.49586 0.0181,-0.0183 -4.705061,-7.92803 -10.495841,-17.57764 z m -9.04459,8.55665 -17.486919,-10.48895 -7.420136,7.38705 c -6.11618,6.08891 -7.39929,7.39635 -7.301564,7.43987 0.215419,0.0959 49.77501,6.29743 49.734859,6.22343 -0.0217,-0.0399 -7.908451,-4.79248 -17.52624,-10.5614 z M 72.054567,100.13427 C 70.346838,86.567139 68.925838,75.41339 68.896789,75.348149 c -0.0435,-0.0978 -1.349981,1.18436 -7.439882,7.301532 l -7.38704,7.420139 10.48884,17.48702 c 5.768861,9.61787 10.51619,17.51613 10.54962,17.55172 0.0336,0.0354 0.0587,-0.019 0.056,-0.12105 -0.0021,-0.10221 -1.402022,-11.28612 -3.10974,-24.85324 z m -37.717499,6.32739 c -0.12727,-0.12727 -13.157232,-5.17339 -13.186678,-5.10681 -0.05215,0.1179 -0.559951,18.81177 -0.512349,18.86127 0.02638,0.0273 3.136572,-3.03898 6.911686,-6.81411 5.217097,-5.21711 6.845491,-6.8822 6.787341,-6.94035 z M 49.991736,90.780319 c -0.128458,-0.0797 -15.392707,-2.761499 -15.44179,-2.712979 -0.04907,0.0486 2.632154,15.31223 2.71245,15.44125 0.05881,0.0945 1.038672,-0.85793 6.454778,-6.274031 5.397889,-5.397889 6.368293,-6.396069 6.274562,-6.45424 z m 16.706982,-16.62489 c -0.0496,-0.0477 -18.743504,0.460261 -18.861558,0.5125 -0.0673,0.0298 4.976955,13.05637 5.105588,13.185011 0.06019,0.0602 1.648949,-1.492901 6.941859,-6.785819 3.77512,-3.77512 6.841472,-6.885382 6.814111,-6.911692 z M 33.672979,96.50472 c -0.705575,-4.03931 -1.310653,-7.371991 -1.344623,-7.405971 -0.03845,-0.0385 -1.965087,1.84155 -5.103931,4.9804 -4.091705,4.091702 -5.026226,5.05809 -4.957652,5.12667 0.04649,0.0465 2.823081,1.149091 6.170216,2.450251 3.34714,1.30116 6.184535,2.4088 6.305322,2.46143 0.188923,0.0823 0.219197,0.0702 0.216578,-0.0864 -0.0016,-0.10017 -0.580337,-3.48703 -1.28591,-7.52633 z m 14.52358,-14.419411 c -1.335905,-3.42324 -2.465755,-6.260428 -2.510782,-6.30487 -0.06484,-0.0639 -1.133954,0.971312 -5.124019,4.961382 -3.15958,3.15958 -5.018974,5.06535 -4.980032,5.104289 0.03417,0.0342 2.768613,0.534839 6.07654,1.112599 8.800094,1.53702 8.981945,1.566492 8.974251,1.453891 -0.0031,-0.0568 -1.100058,-2.904041 -2.435958,-6.327291 z" />
    </clipPath>
    <clipPath
       clipPathUnits="userSpaceOnUse"
       id="clipath_lpe_path-effect6950">
      <path
         id="path6961"
         style="display:none;fill:#b0006f;fill-opacity:0.421525;stroke-width:0.470575;stroke-linecap:round;stroke-linejoin:round"
         d="m 81.84578,103.49502 c 0,1.37436 -4.706242,10.74421 -11.753562,11.63867 -3.221098,0.40883 -11.697959,-7.69878 -12.003103,-7.21254 -1.762755,2.80896 -4.973849,4.99864 -8.605719,4.99864 -5.476795,0 -9.916612,-4.8191 -9.916612,-10.76376 0,-5.944661 4.439819,-10.763758 9.916612,-10.763758 3.509463,0 6.140331,1.769366 8.07379,4.647356 0.514498,0.765839 13.350425,-11.663273 13.350425,-11.663273 4.333777,-3.7861 10.938169,18.095225 10.938169,19.118665 z"
         sodipodi:nodetypes="sssssssss" />
      <path
         id="lpe_path-effect6950"
         style="fill:#b0006f;fill-opacity:0.421525;stroke-width:0.470575;stroke-linecap:round;stroke-linejoin:round"
         class="powerclip"
         d="M 23.208178,75.895168 H 75.482199 V 128.36852 H 23.208178 Z M 81.84578,103.49502 c 0,-1.02344 -6.604392,-22.904765 -10.938169,-19.118665 0,0 -12.835927,12.429112 -13.350425,11.663273 -1.933459,-2.87799 -4.564327,-4.647356 -8.07379,-4.647356 -5.476793,0 -9.916612,4.819097 -9.916612,10.763758 0,5.94466 4.439817,10.76376 9.916612,10.76376 3.63187,0 6.842964,-2.18968 8.605719,-4.99864 0.305144,-0.48624 8.782005,7.62137 12.003103,7.21254 7.04732,-0.89446 11.753562,-10.26431 11.753562,-11.63867 z" />
    </clipPath>
    <filter
       inkscape:collect="always"
       style="color-interpolation-filters:sRGB"
       id="filter13080"
       x="-0.012950373"
       y="-0.016990705"
       width="1.0259007"
       height="1.0339814">
      <feGaussianBlur
         inkscape:collect="always"
         stdDeviation="0.019524685"
         id="feGaussianBlur13082" />
    </filter>
    <filter
       inkscape:collect="always"
       style="color-interpolation-filters:sRGB"
       id="filter13312"
       x="-0.036656708"
       y="-0.045334757"
       width="1.0733134"
       height="1.0906695">
      <feGaussianBlur
         inkscape:collect="always"
         stdDeviation="0.058964067"
         id="feGaussianBlur13314" />
    </filter>
    <filter
       inkscape:collect="always"
       style="color-interpolation-filters:sRGB"
       id="filter13506"
       x="-0.019734036"
       y="-0.025670147"
       width="1.0394681"
       height="1.0513403">
      <feGaussianBlur
         inkscape:collect="always"
         stdDeviation="0.030940666"
         id="feGaussianBlur13508" />
    </filter>
  </defs>
  <g
     inkscape:label="Layer 1"
     inkscape:groupmode="layer"
     id="layer1"
     transform="translate(-331.46404,68.670945)">
    <ellipse
       style="fill:#ffffff;fill-opacity:1;stroke:none;stroke-width:0.337848;stroke-linecap:round;stroke-linejoin:round;stroke-opacity:1"
       id="path858-5-4"
       clip-path="url(#clipath_lpe_path-effect6954)"
       inkscape:path-effect="#path-effect6954"
       sodipodi:type="arc"
       sodipodi:cx="49.345188"
       sodipodi:cy="102.13184"
       sodipodi:rx="21.137011"
       sodipodi:ry="21.236675"
       transform="translate(119.33618,5.617843)"
       d="M 70.482199,102.13184 A 21.137011,21.236675 0 0 1 49.345188,123.36852 21.137011,21.236675 0 0 1 28.208178,102.13184 21.137011,21.236675 0 0 1 49.345188,80.895168 21.137011,21.236675 0 0 1 70.482199,102.13184 Z" />
    <ellipse
       style="fill:#000000;fill-opacity:1;stroke-width:0.337848;stroke-linecap:round;stroke-linejoin:round"
       id="path858"
       clip-path="url(#clipPath2081)"
       inkscape:path-effect="#path-effect2085"
       sodipodi:type="arc"
       sodipodi:cx="49.345188"
       sodipodi:cy="102.13184"
       sodipodi:rx="21.137011"
       sodipodi:ry="21.236675"
       d="M 70.482199,102.13184 A 21.137011,21.236675 0 0 1 49.345188,123.36852 21.137011,21.236675 0 0 1 28.208178,102.13184 21.137011,21.236675 0 0 1 49.345188,80.895168 21.137011,21.236675 0 0 1 70.482199,102.13184 Z"
       transform="translate(46.038942,-11.949179)" />
    <path
       style="fill:#000000;fill-opacity:1;stroke:none;stroke-width:0.0920088;stroke-opacity:1"
       d="m 123.62169,120.00773 c -0.17826,0.0431 -2.28295,-0.16985 -4.69638,-0.47542 -2.40534,-0.30454 -6.32342,-0.79942 -8.70683,-1.09974 -15.645022,-1.97128 -24.302766,-3.06579 -33.499837,-4.23504 -3.523913,-0.44801 -7.428842,-0.9427 -8.677617,-1.09931 -1.248778,-0.15661 -2.42896,-0.32318 -2.622625,-0.37015 -0.660454,-0.16014 -0.981898,-0.71249 -0.928966,-1.59626 0.01806,-0.30111 -0.16856,-5.81498 -0.01043,-12.253042 l -0.04322,-11.70556 13.937823,-13.276364 13.276362,-13.706309 1.560072,-0.0268 c 0.858044,-0.01474 6.41242,0.103533 12.343058,-0.02014 6.8764,-0.1434 10.88968,0.01776 11.07746,0.09554 0.21631,0.0896 0.34124,0.202814 0.47074,0.426628 0.12302,0.212595 1.27043,8.998433 3.79707,29.074527 1.99144,15.82344 3.61122,28.96977 3.59949,29.21408 -0.0254,0.52718 -0.35863,0.92792 -0.87617,1.05336 z M 109.12288,97.570368 C 103.33212,87.920738 98.555979,79.96135 98.509253,79.88284 c -0.08053,-0.135299 -0.455746,0.228038 -7.191694,6.963985 -6.735951,6.735949 -7.099287,7.111167 -6.963988,7.191698 0.07851,0.04674 8.037897,4.822865 17.687529,10.613637 9.64963,5.79077 17.55957,10.51389 17.57762,10.49584 0.0181,-0.0181 -4.70506,-7.92801 -10.49584,-17.577632 z m -9.04459,8.556652 -17.48692,-10.488945 -7.420135,7.387055 c -6.11618,6.08889 -7.399291,7.39633 -7.301563,7.43986 0.215417,0.0959 49.775008,6.29744 49.734858,6.22343 -0.0217,-0.0399 -7.90845,-4.79248 -17.52624,-10.5614 z m 18.01522,-17.941933 c -1.70773,-13.567129 -3.12873,-24.72088 -3.15778,-24.786113 -0.0435,-0.09779 -1.34998,1.184357 -7.43988,7.30153 l -7.38704,7.420139 10.48884,17.487017 c 5.76886,9.61787 10.51619,17.51613 10.54962,17.55171 0.0336,0.0354 0.0587,-0.0189 0.056,-0.12104 -0.002,-0.1022 -1.40202,-11.28611 -3.10974,-24.853241 z m -37.717501,6.32739 C 80.24874,94.385211 66.55732,89.33909 66.527875,89.40567 c -0.05215,0.117904 0.101507,18.81176 0.149107,18.86126 0.02637,0.0273 3.136572,-3.03898 6.911687,-6.8141 5.217096,-5.217106 6.845491,-6.882201 6.78734,-6.940353 z m 15.65467,-15.681336 c -0.128458,-0.07971 -15.392709,-2.761503 -15.441791,-2.712985 -0.04907,0.04859 2.632154,15.312235 2.712449,15.441251 0.05881,0.09451 1.038674,-0.857925 6.454778,-6.274027 5.397891,-5.397891 6.368294,-6.396072 6.274564,-6.454239 z M 112.73766,62.20625 c -0.0496,-0.04765 -18.743505,0.03031 -18.861559,0.08255 -0.0673,0.02977 4.976956,13.486322 5.105589,13.614955 0.06019,0.06016 1.64895,-1.492894 6.94186,-6.785818 3.77512,-3.775116 6.84147,-6.885374 6.81411,-6.911688 z M 79.711922,84.555536 c -0.705575,-4.039307 -1.310654,-7.37199 -1.344625,-7.405963 -0.03845,-0.03845 -1.965085,1.841552 -5.103931,4.980394 -4.091703,4.091705 -5.687684,5.058095 -5.619109,5.12667 0.04649,0.04649 3.484538,1.149095 6.831675,2.450255 3.347139,1.301156 6.184535,2.408797 6.305322,2.461427 0.188922,0.08231 0.219197,0.07023 0.216576,-0.08645 -0.0017,-0.10017 -0.580337,-3.487027 -1.285908,-7.526333 z M 94.2355,70.136135 c -1.335903,-3.423244 -2.465754,-6.690387 -2.510781,-6.734818 -0.06484,-0.06387 -1.133955,1.401252 -5.12402,5.391319 -3.15958,3.15958 -5.018973,5.065351 -4.980031,5.104292 0.03417,0.03417 2.768613,0.534845 6.076539,1.112606 8.800096,1.537019 8.981946,1.566482 8.974252,1.45389 -0.0031,-0.05676 -1.100059,-2.904044 -2.435959,-6.327289 z"
       id="path2612"
       sodipodi:nodetypes="sscsscsscccsssssccssssssssssccsssscsccsssscssscssscssscssssssssscssscsc" />
    <ellipse
       style="fill:#ffffff;fill-opacity:1;stroke:none;stroke-width:0.337848;stroke-linecap:round;stroke-linejoin:round;stroke-opacity:1"
       id="path858-5"
       clip-path="url(#clipPath3345)"
       inkscape:path-effect="#path-effect3256"
       sodipodi:type="arc"
       sodipodi:cx="49.345188"
       sodipodi:cy="102.13184"
       sodipodi:rx="21.137011"
       sodipodi:ry="21.236675"
       transform="translate(46.038941,-11.949174)"
       d="M 70.482199,102.13184 A 21.137011,21.236675 0 0 1 49.345188,123.36852 21.137011,21.236675 0 0 1 28.208178,102.13184 21.137011,21.236675 0 0 1 49.345188,80.895168 21.137011,21.236675 0 0 1 70.482199,102.13184 Z" />
    <rect
       style="fill:none;fill-opacity:1;stroke:#000000;stroke-width:2.19034;stroke-linecap:round;stroke-linejoin:round;stroke-miterlimit:4;stroke-dasharray:none;stroke-opacity:1"
       id="rect2351"
       width="58.120281"
       height="58.120281"
       x="65.265663"
       y="60.725655"
       ry="0" />
    <path
       style="fill:#000000;fill-opacity:1;stroke:none;stroke-width:0.264583px;stroke-linecap:butt;stroke-linejoin:miter;stroke-opacity:1"
       d="m 111.36453,101.21497 1.59025,1.21607 0.78298,-1.62479 -10.08724,-16.71836 c -1.4359,-1.374362 -2.09946,-2.645744 -5.258594,-4.24987 z"
       id="path4120"
       sodipodi:nodetypes="cccccc" />
    <path
       style="fill:#fdffff;fill-opacity:1;stroke:none;stroke-width:0.264583px;stroke-linecap:butt;stroke-linejoin:miter;stroke-opacity:1"
       d="m 95.464973,79.474218 0.51263,0.04961 2.414323,0.314193 -0.04961,0.644922 -2.199348,20.191017 -0.463021,0.56224 c 0,0 -9.392709,-4.994013 -9.326563,-5.126304 C 86.419534,95.977604 87.279426,95.25 87.279426,95.25 l -1.02526,-2.778125 -1.025261,-0.231511 0.396875,-2.215885 -0.297656,-0.06615 0.727604,-1.289844 7.276042,-8.565885 z"
       id="path4950" />
    <path
       style="fill:#000000;fill-opacity:1;stroke:none;stroke-width:0.264583px;stroke-linecap:butt;stroke-linejoin:miter;stroke-opacity:1"
       d="M 85.616451,89.428382 85.815949,92.372655 98.50803,79.933632 C 97.486889,79.702889 96.434334,79.39361 95.531119,79.457681 Z"
       id="path6053"
       sodipodi:nodetypes="ccccc" />
    <ellipse
       style="fill:#000000;fill-opacity:1;stroke-width:0.337848;stroke-linecap:round;stroke-linejoin:round"
       id="path858-3"
       clip-path="url(#clipath_lpe_path-effect6950)"
       inkscape:path-effect="#path-effect6950"
       sodipodi:type="arc"
       sodipodi:cx="49.345188"
       sodipodi:cy="102.13184"
       sodipodi:rx="21.137011"
       sodipodi:ry="21.236675"
       transform="translate(119.33618,5.617838)"
       d="M 70.482199,102.13184 A 21.137011,21.236675 0 0 1 49.345188,123.36852 21.137011,21.236675 0 0 1 28.208178,102.13184 21.137011,21.236675 0 0 1 49.345188,80.895168 21.137011,21.236675 0 0 1 70.482199,102.13184 Z" />
    <path
       style="fill:#000000;fill-opacity:1;stroke:none;stroke-width:0.0920088;stroke-opacity:1"
       d="m 196.91892,137.57475 c -0.17825,0.0431 -2.28295,-0.16985 -4.69638,-0.47542 -2.40534,-0.30454 -6.32342,-0.79942 -8.70683,-1.09974 -15.64502,-1.97128 -24.30276,-3.06579 -33.49983,-4.23504 -3.52391,-0.44801 -7.42884,-0.9427 -8.67762,-1.09931 -1.24878,-0.15661 -2.42896,-0.32318 -2.62262,-0.37015 -0.66046,-0.16014 -0.9819,-0.71249 -0.92897,-1.59626 0.0181,-0.30111 -0.16856,-5.81498 -0.0104,-12.25304 l -0.0432,-11.70556 13.93782,-13.276369 13.27636,-13.706309 1.56008,-0.0268 c 0.85804,-0.01474 6.41242,0.103533 12.34305,-0.02014 6.8764,-0.1434 10.88968,0.01776 11.07747,0.09554 0.2163,0.0896 0.34123,0.202814 0.47074,0.426628 0.12302,0.212595 1.27043,8.998433 3.79706,29.07453 1.99145,15.82344 3.61123,28.96977 3.5995,29.21408 -0.0254,0.52718 -0.35864,0.92792 -0.87618,1.05336 z m -14.49881,-22.43737 c -5.79075,-9.64963 -10.5669,-17.609013 -10.61362,-17.687523 -0.0805,-0.135299 -0.45575,0.228038 -7.1917,6.963983 -6.73595,6.73595 -7.09928,7.11117 -6.96398,7.1917 0.0785,0.0467 8.03789,4.82286 17.68752,10.61364 9.64964,5.79077 17.55958,10.51389 17.57762,10.49584 0.0181,-0.0181 -4.70506,-7.92801 -10.49584,-17.57764 z m -9.04459,8.55666 -17.48692,-10.48895 -7.42013,7.38706 c -6.11618,6.08889 -7.39929,7.39633 -7.30156,7.43986 0.21541,0.0959 49.775,6.29744 49.73485,6.22343 -0.0217,-0.0399 -7.90845,-4.79248 -17.52624,-10.5614 z m 18.01522,-17.94194 c -1.70773,-13.567125 -3.12873,-24.720876 -3.15778,-24.786109 -0.0435,-0.09779 -1.34998,1.184357 -7.43988,7.30153 l -7.38704,7.420139 10.48884,17.48702 c 5.76886,9.61787 10.51619,17.51613 10.54962,17.55171 0.0336,0.0354 0.0587,-0.0189 0.056,-0.12104 -0.002,-0.1022 -1.40202,-11.28611 -3.10974,-24.85324 z m -37.7175,6.32739 c -0.12727,-0.12726 -13.81868,-5.17338 -13.84813,-5.1068 -0.0522,0.1179 0.10151,18.81176 0.14911,18.86126 0.0264,0.0273 3.13657,-3.03898 6.91168,-6.8141 5.2171,-5.21711 6.84549,-6.8822 6.78734,-6.94036 z m 15.65467,-15.681332 c -0.12845,-0.07971 -15.39271,-2.761503 -15.44179,-2.712985 -0.0491,0.04859 2.63216,15.312237 2.71245,15.441247 0.0588,0.0945 1.03868,-0.85792 6.45478,-6.27402 5.39789,-5.397894 6.36829,-6.396075 6.27456,-6.454242 z M 186.0349,79.773267 c -0.0496,-0.04765 -18.74351,0.03031 -18.86156,0.08255 -0.0673,0.02977 4.97695,13.486322 5.10558,13.614955 0.0602,0.06016 1.64895,-1.492894 6.94187,-6.785818 3.77511,-3.775116 6.84146,-6.885374 6.81411,-6.911688 z m -33.02574,22.349283 c -0.70558,-4.039304 -1.31066,-7.371987 -1.34463,-7.40596 -0.0384,-0.03845 -1.96508,1.841552 -5.10393,4.980394 -4.0917,4.091706 -5.68768,5.058096 -5.61911,5.126666 0.0465,0.0465 3.48454,1.1491 6.83168,2.45026 3.34714,1.30116 6.18453,2.4088 6.30532,2.46143 0.18892,0.0823 0.2192,0.0702 0.21658,-0.0864 -0.002,-0.10017 -0.58034,-3.48703 -1.28591,-7.52634 z m 14.52357,-14.419398 c -1.3359,-3.423244 -2.46575,-6.690387 -2.51078,-6.734818 -0.0648,-0.06387 -1.13395,1.401252 -5.12402,5.391319 -3.15958,3.15958 -5.01897,5.065351 -4.98003,5.104292 0.0342,0.03417 2.76862,0.534845 6.07654,1.112606 8.8001,1.537019 8.98195,1.566482 8.97425,1.45389 -0.003,-0.05676 -1.10006,-2.904044 -2.43596,-6.327289 z"
       id="path2612-4"
       sodipodi:nodetypes="sscsscsscccsssssccssssssssssccsssscsccsssscssscssscssscssssssssscssscsc" />
    <rect
       style="fill:none;fill-opacity:1;stroke:#000000;stroke-width:2.19034;stroke-linecap:round;stroke-linejoin:round;stroke-miterlimit:4;stroke-dasharray:none;stroke-opacity:1"
       id="rect2351-4"
       width="58.120281"
       height="58.120281"
       x="138.5629"
       y="78.292671"
       ry="0" />
    <path
       style="fill:#000000;fill-opacity:1;stroke:none;stroke-width:0.264583px;stroke-linecap:butt;stroke-linejoin:miter;stroke-opacity:1"
       d="m 184.66176,118.78199 1.59025,1.21607 0.78298,-1.62479 -10.08724,-16.71836 c -1.4359,-1.37437 -2.09945,-2.645747 -5.25859,-4.249873 z"
       id="path4120-9"
       sodipodi:nodetypes="cccccc" />
    <path
       style="fill:#000000;fill-opacity:1;stroke:none;stroke-width:0.264583px;stroke-linecap:butt;stroke-linejoin:miter;stroke-opacity:1"
       d="m 158.91369,106.9954 0.19949,2.94427 12.69208,-12.439021 c -1.02114,-0.230743 -2.07369,-0.540022 -2.97691,-0.475951 z"
       id="path6053-8"
       sodipodi:nodetypes="ccccc" />
    <path
       style="fill:#ffffff;fill-opacity:1;stroke:#ffffff;stroke-width:0.7;stroke-miterlimit:4;stroke-dasharray:none;stroke-opacity:1"
       d="m 331.11076,-164.61799 c -3.31202,-3.85932 -6.02671,-7.03953 -6.03266,-7.06716 -0.006,-0.0276 1.18097,-1.28057 2.63757,-2.78433 l 2.64837,-2.73409 6.93964,0.002 6.93964,0.002 2.68699,2.77164 c 1.47784,1.52441 2.6921,2.79368 2.69834,2.82059 0.006,0.0269 -2.78111,3.16411 -6.19411,6.97156 -3.413,3.80745 -6.22717,6.94766 -6.2537,6.97823 -0.0394,0.0456 -1.14026,-1.2169 -6.07008,-6.96135 z m 6.21586,6.06414 c 0.012,-0.0634 0.78151,-2.9516 1.71001,-6.41823 0.92853,-3.46663 1.70017,-6.35463 1.71476,-6.41779 l 0.0266,-0.11484 -1.7604,0.0108 -1.76039,0.0108 -0.009,6.54473 c -0.005,3.7263 -0.13922,7.2319 -0.12011,7.21911 0.0184,-0.0123 0.18731,-0.77121 0.1993,-0.83461 z m -0.69456,-7.4e-4 c -0.0406,-0.063 -1.78845,-2.98819 -3.88424,-6.50058 -2.09579,-3.5124 -3.83082,-6.40976 -3.85561,-6.43861 -0.0352,-0.041 -0.41653,-0.0502 -1.74532,-0.0416 l -1.70025,0.0108 5.6134,6.54219 c 3.08736,3.59818 6.11968,7.28064 6.12857,7.28064 0.008,0 -0.516,-0.78995 -0.55655,-0.85287 z m 0.43461,-12.89715 c -0.0142,-0.0406 -0.39543,-0.0521 -1.72761,-0.0521 -0.94015,0 -1.70935,0.0103 -1.70935,0.0229 0,0.0426 3.50746,13.75713 3.53516,13.82016 0.0298,0.0681 -0.0683,-13.7061 -0.0982,-13.79114 z m 6.14065,6.771 c 2.59209,-2.89458 5.0127,-5.59163 5.37911,-5.99346 0.36642,-0.40183 0.66621,-0.7435 0.66621,-0.75927 0,-0.0158 -0.81845,-0.0287 -1.81878,-0.0287 h -1.81877 l -3.91027,6.37098 c -2.15066,3.50401 -4.50103,7.30607 -4.51934,7.34304 -0.0536,0.1085 1.06169,-1.3936 6.02184,-6.93261 z m -6.02537,6.82301 c -0.0257,0.0327 -1.19127,-3.85562 -2.09959,-7.32225 -0.90835,-3.46664 -1.65516,-6.30702 -1.6596,-6.312 -0.004,-0.006 -0.9704,-0.0143 -2.14655,-0.0208 -1.83778,-0.0101 -2.13555,-0.004 -2.11751,0.0475 0.0308,0.0867 7.52432,12.89188 7.88038,13.39579 0.2532,0.35835 0.20672,0.13034 0.18109,0.16302 z m 4.31093,-7.25858 c 2.1333,-3.4774 3.87429,-6.32735 3.86885,-6.33323 -0.0165,-0.0178 -4.36997,-0.0178 -4.38641,-10e-6 -0.014,0.0152 -3.70051,13.52368 -3.75348,13.75824 -0.0129,0.0572 -0.0237,-0.14457 -0.0123,-0.15602 0.0114,-0.0114 2.15005,-3.79162 4.28335,-7.26898 z m -0.83861,-6.57686 c 0,-0.024 -3.27378,-4.73663 -3.36446,-4.84313 -0.0436,-0.0513 -0.0519,0.32759 -0.0519,2.3806 v 2.44153 l 0.5086,0.013 c 0.99871,0.0254 2.90771,0.0307 2.90771,0.008 z m 4.17836,-2.3796 c -0.33474,-1.32143 -0.62709,-2.47509 -0.64967,-2.56367 -0.0377,-0.14753 -0.0453,-0.15451 -0.0901,-0.0833 -0.18118,0.28763 -2.90534,4.92962 -2.92422,4.98292 -0.0215,0.0606 0.17099,0.0666 2.12453,0.0666 h 2.14808 z m 3.83647,1.72655 c -3.27573,-3.37338 -4.31048,-4.43442 -4.31729,-4.42704 -0.007,0.008 1.23486,4.93882 1.27268,5.0511 0.0137,0.0406 0.42078,0.052 1.8593,0.052 h 1.84181 z m -19.82269,0.56165 c 0.54313,-1.97014 1.33048,-4.88986 1.32131,-4.89978 -0.006,-0.007 -1.08701,1.09438 -2.40043,2.44837 l -2.38804,2.46181 0.469,0.0228 c 0.25795,0.0125 1.03354,0.0266 1.72354,0.0312 1.16547,0.008 1.25597,0.003 1.27462,-0.0644 z m 4.19878,-0.52004 c -1.98634,-3.34473 -2.6074,-4.38041 -2.63236,-4.38968 -0.0161,-0.006 -0.32964,1.08925 -0.69668,2.43383 -0.36704,1.34458 -0.67491,2.46809 -0.68414,2.49669 -0.0133,0.0412 0.43804,0.0521 2.17424,0.0521 h 2.19103 z m 4.03922,-1.86176 c 0,-1.35004 -0.013,-2.45383 -0.0287,-2.45285 -0.0272,0.002 -3.35385,4.79469 -3.38114,4.87147 -0.007,0.0198 0.75132,0.036 1.69857,0.036 h 1.71136 z m 5.40815,-0.22099 c 0.8468,-1.43727 1.53963,-2.62142 1.53963,-2.63144 0,-0.01 -1.52997,-0.0182 -3.39993,-0.0182 -2.80411,0 -3.39778,0.01 -3.38753,0.0552 0.0236,0.10513 3.65305,5.27245 3.68055,5.24016 0.0151,-0.0178 0.72047,-1.20837 1.56728,-2.64563 z m -7.19774,-0.0636 c 0.96316,-1.39211 1.7512,-2.54349 1.7512,-2.55862 0,-0.0151 -1.47832,-0.0275 -3.28517,-0.0275 -1.88636,0 -3.27971,0.0156 -3.27236,0.0368 0.03,0.0864 3.00911,5.07902 3.03101,5.07971 0.0131,4.6e-4 0.81217,-1.13823 1.77532,-2.53035 z"
       id="path8094-9"
       inkscape:export-filename="C:\wamp64\www\JS Projects\carat-haus\src\content\diamondIconWhite.png"
       inkscape:export-xdpi="95.978104"
       inkscape:export-ydpi="95.978104"
       sodipodi:nodetypes="csscccsssscccssccccsccsssscssssssssssssscsssssscsssssssssssssscsssssssscssssscscssccscssssscssssscssssssssssscs" />
    <path
       style="fill:#000000;fill-opacity:1;stroke:#000000;stroke-width:0.7;stroke-miterlimit:4;stroke-dasharray:none;stroke-opacity:1"
       d="m 284.2883,-169.87058 c -3.31202,-3.85932 -6.02671,-7.03953 -6.03266,-7.06716 -0.006,-0.0276 1.18097,-1.28057 2.63757,-2.78433 l 2.64837,-2.73409 6.93964,0.002 6.93964,0.002 2.68699,2.77164 c 1.47784,1.52441 2.6921,2.79368 2.69834,2.82059 0.006,0.0269 -2.78111,3.16411 -6.19411,6.97156 -3.413,3.80745 -6.22717,6.94766 -6.2537,6.97823 -0.0394,0.0456 -1.14026,-1.2169 -6.07008,-6.96135 z m 6.21586,6.06414 c 0.012,-0.0634 0.78151,-2.9516 1.71001,-6.41823 0.92853,-3.46663 1.70017,-6.35463 1.71476,-6.41779 l 0.0266,-0.11484 -1.7604,0.0108 -1.76039,0.0108 -0.009,6.54473 c -0.005,3.7263 -0.13922,7.2319 -0.12011,7.21911 0.0184,-0.0123 0.18731,-0.77121 0.1993,-0.83461 z m -0.69456,-7.4e-4 c -0.0406,-0.063 -1.78845,-2.98819 -3.88424,-6.50058 -2.09579,-3.5124 -3.83082,-6.40976 -3.85561,-6.43861 -0.0352,-0.041 -0.41653,-0.0502 -1.74532,-0.0416 l -1.70025,0.0108 5.6134,6.54219 c 3.08736,3.59818 6.11968,7.28064 6.12857,7.28064 0.008,0 -0.516,-0.78995 -0.55655,-0.85287 z m 0.43461,-12.89715 c -0.0142,-0.0406 -0.39543,-0.0521 -1.72761,-0.0521 -0.94015,0 -1.70935,0.0103 -1.70935,0.0229 0,0.0426 3.50746,13.75713 3.53516,13.82016 0.0298,0.0681 -0.0683,-13.7061 -0.0982,-13.79114 z m 6.14065,6.771 c 2.59209,-2.89458 5.0127,-5.59163 5.37911,-5.99346 0.36642,-0.40183 0.66621,-0.7435 0.66621,-0.75927 0,-0.0158 -0.81845,-0.0287 -1.81878,-0.0287 h -1.81877 l -3.91027,6.37098 c -2.15066,3.50401 -4.50103,7.30607 -4.51934,7.34304 -0.0536,0.1085 1.06169,-1.3936 6.02184,-6.93261 z m -6.02537,6.82301 c -0.0257,0.0327 -1.19127,-3.85562 -2.09959,-7.32225 -0.90835,-3.46664 -1.65516,-6.30702 -1.6596,-6.312 -0.004,-0.006 -0.9704,-0.0143 -2.14655,-0.0208 -1.83778,-0.0101 -2.13555,-0.004 -2.11751,0.0475 0.0308,0.0867 7.52432,12.89188 7.88038,13.39579 0.2532,0.35835 0.20672,0.13034 0.18109,0.16302 z m 4.31093,-7.25858 c 2.1333,-3.4774 3.87429,-6.32735 3.86885,-6.33323 -0.0165,-0.0178 -4.36997,-0.0178 -4.38641,-1e-5 -0.014,0.0152 -3.70051,13.52368 -3.75348,13.75824 -0.0129,0.0572 -0.0237,-0.14457 -0.0123,-0.15602 0.0114,-0.0114 2.15005,-3.79162 4.28335,-7.26898 z m -0.83861,-6.57686 c 0,-0.024 -3.27378,-4.73663 -3.36446,-4.84313 -0.0436,-0.0513 -0.0519,0.32759 -0.0519,2.3806 v 2.44153 l 0.5086,0.013 c 0.99871,0.0254 2.90771,0.0307 2.90771,0.008 z m 4.17836,-2.3796 c -0.33474,-1.32143 -0.62709,-2.47509 -0.64967,-2.56367 -0.0377,-0.14753 -0.0453,-0.15451 -0.0901,-0.0833 -0.18118,0.28763 -2.90534,4.92962 -2.92422,4.98292 -0.0215,0.0606 0.17099,0.0666 2.12453,0.0666 h 2.14808 z m 3.83647,1.72655 c -3.27573,-3.37338 -4.31048,-4.43442 -4.31729,-4.42704 -0.007,0.008 1.23486,4.93882 1.27268,5.0511 0.0137,0.0406 0.42078,0.052 1.8593,0.052 h 1.84181 z m -19.82269,0.56165 c 0.54313,-1.97014 1.33048,-4.88986 1.32131,-4.89978 -0.006,-0.007 -1.08701,1.09438 -2.40043,2.44837 l -2.38804,2.46181 0.469,0.0228 c 0.25795,0.0125 1.03354,0.0266 1.72354,0.0312 1.16547,0.008 1.25597,0.003 1.27462,-0.0644 z m 4.19878,-0.52004 c -1.98634,-3.34473 -2.6074,-4.38041 -2.63236,-4.38968 -0.0161,-0.006 -0.32964,1.08925 -0.69668,2.43383 -0.36704,1.34458 -0.67491,2.46809 -0.68414,2.49669 -0.0133,0.0412 0.43804,0.0521 2.17424,0.0521 h 2.19103 z m 4.03922,-1.86176 c 0,-1.35004 -0.013,-2.45383 -0.0287,-2.45285 -0.0272,0.002 -3.35385,4.79469 -3.38114,4.87147 -0.007,0.0198 0.75132,0.036 1.69857,0.036 h 1.71136 z m 5.40815,-0.22099 c 0.8468,-1.43727 1.53963,-2.62142 1.53963,-2.63144 0,-0.01 -1.52997,-0.0182 -3.39993,-0.0182 -2.80411,0 -3.39778,0.01 -3.38753,0.0552 0.0236,0.10513 3.65305,5.27245 3.68055,5.24016 0.0151,-0.0178 0.72047,-1.20837 1.56728,-2.64563 z m -7.19774,-0.0636 c 0.96316,-1.39211 1.7512,-2.54349 1.7512,-2.55862 0,-0.0151 -1.47832,-0.0275 -3.28517,-0.0275 -1.88636,0 -3.27971,0.0156 -3.27236,0.0368 0.03,0.0864 3.00911,5.07902 3.03101,5.07971 0.0131,4.6e-4 0.81217,-1.13823 1.77532,-2.53035 z"
       id="path8094-9-6"
       inkscape:export-filename="C:\wamp64\www\JS Projects\carat-haus\src\content\diamondIconBlack.png"
       inkscape:export-xdpi="95.978104"
       inkscape:export-ydpi="95.978104"
       sodipodi:nodetypes="csscccsssscccssccccsccsssscssssssssssssscsssssscsssssssssssssscsssssssscssssscscssccscssssscssssscssssssssssscs" />
    <circle
       style="fill:#55535b;fill-opacity:1;stroke-width:0;stroke-linecap:round;stroke-linejoin:round"
       id="path894"
       cx="333.70911"
       cy="-66.42588"
       r="2.2450645" />
    <path
       style="opacity:0.17588933;fill:#000000;fill-opacity:1;stroke:none;stroke-width:0.032435px;stroke-linecap:butt;stroke-linejoin:miter;stroke-opacity:1;filter:url(#filter13312)"
       d="m 333.78645,-65.196174 -1.30218,0.644548 c -0.74338,-0.631699 -1.05592,-1.333992 -1.00486,-2.240692 l 1.45844,-0.880837 1.7316,0.08027 0.66512,0.710985 z"
       id="path10436"
       sodipodi:nodetypes="ccccccc" />
    <path
       style="fill:#88888a;fill-opacity:1;stroke:none;stroke-width:0.0324861;stroke-linecap:butt;stroke-linejoin:miter;stroke-miterlimit:4;stroke-dasharray:none;stroke-opacity:1"
       d="m 332.30141,-66.910566 v 0.129009 l 1.47644,1.705792 c 0,0 0.023,0.02867 0.0746,-0.08027 0.0516,-0.108938 -0.5103,-0.599177 -0.5103,-0.599177 z"
       id="path1308" />
    <path
       style="fill:#393a3f;fill-opacity:1;stroke:none;stroke-width:0.032435px;stroke-linecap:butt;stroke-linejoin:miter;stroke-opacity:1"
       d="m 333.79218,-65.058565 c 0.43927,-0.445585 1.01469,-1.103938 1.62552,-1.817599 l -0.0917,-0.03153 -1.48218,1.628384 z"
       id="path1607"
       sodipodi:nodetypes="ccccc" />
    <path
       style="fill:#88888a;fill-opacity:1;stroke:none;stroke-width:0.032435px;stroke-linecap:butt;stroke-linejoin:miter;stroke-opacity:1"
       d="m 332.78017,-66.868996 v 0.106078 l 0.59632,0.971871 0.14621,0.177746 -0.0258,-0.154811 z"
       id="path2887" />
    <path
       style="fill:#393a3f;fill-opacity:1;stroke:none;stroke-width:0.032435px;stroke-linecap:butt;stroke-linejoin:miter;stroke-opacity:1"
       d="m 332.95362,-66.747154 0.44293,-0.0087 -0.0244,-0.131816 -0.50314,-0.0172 z"
       id="path5983"
       sodipodi:nodetypes="ccccc" />
    <path
       style="fill:#393a3f;fill-opacity:1;stroke:none;stroke-width:0.032435px;stroke-linecap:butt;stroke-linejoin:miter;stroke-opacity:1"
       d="m 334.70242,-66.745721 -0.44293,-0.0087 0.0244,-0.131816 0.50314,-0.0172 z"
       id="path5983-5"
       sodipodi:nodetypes="ccccc" />
    <path
       style="fill:#88888a;fill-opacity:1;stroke:none;stroke-width:0.032435px;stroke-linecap:butt;stroke-linejoin:miter;stroke-opacity:1"
       d="m 333.32894,-66.896045 v 0.154811 l 0.34284,1.341511 c 0,0 0.0946,0.0516 0.0946,0.02581 0,-0.02581 -0.43745,-1.522124 -0.43745,-1.522124 z"
       id="path3885"
       sodipodi:nodetypes="cccsc" />
    <path
       style="fill:#393a3f;fill-opacity:1;stroke:none;stroke-width:0.032435px;stroke-linecap:butt;stroke-linejoin:miter;stroke-opacity:1"
       d="m 333.41655,-66.861971 0.0183,0.08716 0.38516,-0.0041 0.003,-0.113522 z"
       id="path6051"
       sodipodi:nodetypes="ccccc" />
    <path
       style="fill:#393a3f;fill-opacity:1;stroke:none;stroke-width:0.032435px;stroke-linecap:butt;stroke-linejoin:miter;stroke-opacity:1"
       d="m 333.86134,-66.766897 0.38314,-0.0041 c 0,0 0.0203,-0.105413 0.0102,-0.105413 -0.0102,0 -0.41355,0.02026 -0.41355,0.02026 z"
       id="path6119"
       sodipodi:nodetypes="ccscc" />
    <path
       style="fill:#88888a;fill-opacity:1;stroke:none;stroke-width:0.032435px;stroke-linecap:butt;stroke-linejoin:miter;stroke-opacity:1"
       d="m 333.75259,-66.85931 0.0253,1.362113 0.0488,-1.361765 z"
       id="path3953"
       sodipodi:nodetypes="cccc" />
    <path
       style="fill:#88888a;fill-opacity:1;stroke:none;stroke-width:0.032435px;stroke-linecap:butt;stroke-linejoin:miter;stroke-opacity:1"
       d="m 333.0124,-67.423736 v 0.149077 l 0.20927,0.332558 0.11761,0.0028 z"
       id="path4111" />
    <path
       style="fill:#88888a;fill-opacity:1;stroke:none;stroke-width:0.032435px;stroke-linecap:butt;stroke-linejoin:miter;stroke-opacity:1"
       d="m 333.86609,-67.286493 0.22502,0.345636 0.15812,0.002 -0.36895,-0.51896 -0.0253,0.150012 z"
       id="path4179" />
    <path
       style="fill:#88888a;fill-opacity:1;stroke:none;stroke-width:0.032435px;stroke-linecap:butt;stroke-linejoin:miter;stroke-opacity:1"
       d="m 334.78699,-67.320529 0.38416,0.389895 0.0831,-0.04014 -0.48736,-0.516038 -0.006,0.126139 z"
       id="path4247" />
    <path
       style="fill:#88888a;fill-opacity:1;stroke:none;stroke-width:0.032435px;stroke-linecap:butt;stroke-linejoin:miter;stroke-opacity:1"
       d="m 334.62645,-67.389334 0.0946,0.430031 h 0.11761 l -0.14907,-0.544706 -0.0573,0.02581 z"
       id="path4315" />
    <path
       style="fill:#393a3f;fill-opacity:1;stroke:none;stroke-width:0.032435px;stroke-linecap:butt;stroke-linejoin:miter;stroke-opacity:1"
       d="m 332.78357,-66.759425 c 0,0 0.009,-0.106831 0.009,-0.113931 0,-0.0072 -0.0792,0.0075 -0.0842,0.0055 -0.005,-0.002 -0.27974,-0.01419 -0.27974,-0.01419 l -0.006,0.133795 z"
       id="path4383"
       sodipodi:nodetypes="cssccc" />
    <path
       style="fill:#393a3f;fill-opacity:1;stroke:none;stroke-width:0.032435px;stroke-linecap:butt;stroke-linejoin:miter;stroke-opacity:1"
       d="m 335.21612,-66.855939 c 0,0 -0.0567,0.07602 -0.0567,0.08312 0,0.0072 -0.0132,0.02332 -0.0183,0.02533 -0.005,0.002 -0.33638,-0.0087 -0.33638,-0.0087 l 0.0506,-0.110853 z"
       id="path4383-1"
       sodipodi:nodetypes="cssccc" />
    <path
       style="fill:#393a3f;fill-opacity:1;stroke:none;stroke-width:0.032435px;stroke-linecap:butt;stroke-linejoin:miter;stroke-opacity:1"
       d="m 333.03533,-67.56708 h 1.62552 l -0.0488,0.09747 -0.009,0.0086 h -1.55098 z"
       id="path6998" />
    <path
       style="opacity:0.06324111;fill:#000000;fill-opacity:1;stroke:none;stroke-width:0.032435px;stroke-linecap:butt;stroke-linejoin:miter;stroke-opacity:1;filter:url(#filter13506)"
       d="m 333.76351,-65.0815 -0.98637,0.318308 -1.2571,-1.502784 0.2768,-1.023017 1.18115,-0.36696 1.69719,0.114672 0.60778,0.590576 z"
       id="path9515"
       sodipodi:nodetypes="cccccccc" />
    <path
       style="opacity:0.0513834;fill:#020000;fill-opacity:1;stroke:none;stroke-width:0.032435px;stroke-linecap:butt;stroke-linejoin:miter;stroke-opacity:1;filter:url(#filter13080)"
       d="m 333.76351,-65.0815 -1.58824,0.183481 -0.51068,-0.934727 0.23546,-1.014748 1.07794,-0.808459 1.69719,0.114672 0.60778,0.590576 z"
       id="path9515-0"
       sodipodi:nodetypes="cccccccc" />
    <path
       style="fill:#ffffff;fill-opacity:1;stroke:#ffffff;stroke-width:0.0858122;stroke-miterlimit:4;stroke-dasharray:none;stroke-opacity:1"
       d="m 333.08081,-66.059783 c -0.40603,-0.47311 -0.73882,-0.862968 -0.73955,-0.866355 -7.2e-4,-0.0034 0.14477,-0.156984 0.32335,-0.341328 l 0.32465,-0.33517 0.85073,2.45e-4 0.85072,2.46e-4 0.32939,0.339773 c 0.18118,0.186875 0.33003,0.342473 0.3308,0.345772 7.3e-4,0.0033 -0.34094,0.387885 -0.75934,0.854636 -0.4184,0.466752 -0.76338,0.851707 -0.76662,0.855455 -0.005,0.0056 -0.13979,-0.149179 -0.74413,-0.853385 z m 0.76199,0.743397 c 10e-4,-0.0078 0.0958,-0.361834 0.20963,-0.786805 0.11377,-0.42497 0.20842,-0.779006 0.21021,-0.786749 l 0.004,-0.01407 -0.21581,0.0013 -0.21579,0.0013 -10e-4,0.802313 c -6.1e-4,0.456803 -0.0171,0.88655 -0.0147,0.884982 0.003,-0.0015 0.023,-0.09455 0.0244,-0.102311 z m -0.0852,-9e-5 c -0.005,-0.0077 -0.21925,-0.36632 -0.47616,-0.7969 -0.25693,-0.430582 -0.46962,-0.785765 -0.47266,-0.789303 -0.004,-0.005 -0.0511,-0.0061 -0.21395,-0.0051 l -0.20844,0.0013 0.68814,0.802001 c 0.37847,0.441097 0.75021,0.892526 0.75129,0.892526 9.9e-4,0 -0.0632,-0.09683 -0.0682,-0.104546 z m 0.0532,-1.581049 c -10e-4,-0.005 -0.0485,-0.0064 -0.21179,-0.0064 -0.11531,0 -0.20954,0.0013 -0.20954,0.0028 0,0.0052 0.42997,1.686472 0.43337,1.694198 0.004,0.0083 -0.009,-1.680216 -0.0115,-1.690641 z m 0.75278,0.83005 c 0.31776,-0.354844 0.6145,-0.685471 0.65941,-0.734732 0.0449,-0.04927 0.0817,-0.09115 0.0817,-0.09308 0,-0.0019 -0.10037,-0.0036 -0.22296,-0.0036 h -0.22297 l -0.47935,0.781012 c -0.26365,0.429553 -0.55178,0.895644 -0.55402,0.900176 -0.006,0.01331 0.13015,-0.170841 0.73821,-0.849862 z m -0.73865,0.836425 c -0.003,0.004 -0.14603,-0.472655 -0.25738,-0.897626 -0.11136,-0.424972 -0.2029,-0.773171 -0.20345,-0.773782 -4.9e-4,-7.35e-4 -0.11901,-0.0018 -0.26315,-0.0026 -0.22529,-0.0012 -0.26179,-4.9e-4 -0.25958,0.0059 0.004,0.0106 0.9224,1.580403 0.96605,1.642176 0.031,0.04393 0.0253,0.01597 0.0222,0.01999 z m 0.52847,-0.889822 c 0.26153,-0.42629 0.47495,-0.775662 0.47428,-0.776383 -0.003,-0.0022 -0.53571,-0.0022 -0.53771,-2e-6 -10e-4,0.0019 -0.45365,1.657855 -0.46015,1.686609 -10e-4,0.007 -0.003,-0.01772 -10e-4,-0.01913 10e-4,-0.0014 0.26357,-0.464811 0.52508,-0.891097 z m -0.10279,-0.806249 c 0,-0.0029 -0.40133,-0.580659 -0.41244,-0.593715 -0.005,-0.0063 -0.006,0.04016 -0.006,0.291836 v 0.299305 l 0.0623,0.0015 c 0.12246,0.0031 0.35645,0.0037 0.35645,9.81e-4 z m 0.51223,-0.291713 c -0.041,-0.161993 -0.0769,-0.303419 -0.0797,-0.314277 -0.005,-0.01808 -0.005,-0.01894 -0.0115,-0.01022 -0.0222,0.03526 -0.35616,0.604316 -0.35848,0.61085 -0.003,0.0074 0.0209,0.0082 0.26045,0.0082 h 0.26332 z m 0.47031,0.211656 c -0.40157,-0.41354 -0.52843,-0.543612 -0.52926,-0.542706 -8.5e-4,9.8e-4 0.15138,0.605445 0.15602,0.619209 10e-4,0.005 0.0516,0.0064 0.22793,0.0064 h 0.22578 z m -2.43005,0.06885 c 0.0665,-0.241517 0.16311,-0.599442 0.16199,-0.600659 -7.5e-4,-8.58e-4 -0.13327,0.13416 -0.29428,0.300144 l -0.29275,0.301791 0.0575,0.0028 c 0.0317,0.0015 0.12667,0.0033 0.21128,0.0038 0.14287,9.81e-4 0.15397,3.68e-4 0.15625,-0.0079 z m 0.51472,-0.06375 c -0.2435,-0.410027 -0.31964,-0.536989 -0.32269,-0.538126 -0.003,-7.35e-4 -0.0405,0.13353 -0.0854,0.298361 -0.045,0.164831 -0.0827,0.30256 -0.0839,0.306066 -10e-4,0.0051 0.0538,0.0064 0.26653,0.0064 h 0.26859 z m 0.49517,-0.228231 c 0,-0.165499 -0.001,-0.300812 -0.004,-0.300692 -0.004,2.45e-4 -0.41114,0.587776 -0.41449,0.597188 -8.6e-4,0.0024 0.0921,0.0045 0.20824,0.0045 h 0.20979 z m 0.66298,-0.02708 c 0.10382,-0.176193 0.18873,-0.321357 0.18873,-0.322585 0,-0.0012 -0.18754,-0.0022 -0.41679,-0.0022 -0.34374,0 -0.41653,0.0012 -0.41527,0.0068 0.003,0.01288 0.44782,0.646344 0.4512,0.642387 10e-4,-0.0022 0.0884,-0.148134 0.19213,-0.324326 z m -0.88236,-0.0078 c 0.11812,-0.170658 0.21467,-0.311804 0.21467,-0.313659 0,-0.0018 -0.18123,-0.0033 -0.40272,-0.0033 -0.23124,0 -0.40206,0.0019 -0.40116,0.0045 0.004,0.0106 0.36888,0.622632 0.37158,0.622716 10e-4,5.6e-5 0.0996,-0.139534 0.21763,-0.310192 z"
       id="path8094-9-4"
       inkscape:export-filename="C:\wamp64\www\JS Projects\carat-haus\src\content\diamondIconWhite.png"
       inkscape:export-xdpi="95.978104"
       inkscape:export-ydpi="95.978104"
       sodipodi:nodetypes="csscccsssscccssccccsccsssscssssssssssssscsssssscsssssssssssssscsssssssscssssscscssccscssssscssssscssssssssssscs" />
  </g>
</svg>
