<?xml version="1.0" encoding="UTF-8"?>
<!-- Created with Inkscape (http://www.inkscape.org/) -->
<svg width="25.564mm" height="20.247mm" version="1.1" viewBox="0 0 25.564 20.247" xmlns="http://www.w3.org/2000/svg">
 <defs>
  <clipPath id="clipPath2081">
   <path d="m81.846 103.5c0 1.3744-4.7062 10.744-11.754 11.639-3.2211 0.40883-11.698-7.6988-12.003-7.2125-1.7628 2.809-4.9738 4.9986-8.6057 4.9986-5.4768 0-9.9166-4.8191-9.9166-10.764 0-5.9447 4.4398-10.764 9.9166-10.764 3.5095 0 6.1403 1.7694 8.0738 4.6474 0.5145 0.76584 13.35-11.663 13.35-11.663 4.3338-3.7861 10.938 18.095 10.938 19.119z" display="none" fill="#b0006f" fill-opacity=".42152" stroke-linecap="round" stroke-linejoin="round" stroke-width=".47058"/>
   <path class="powerclip" d="m23.208 75.895h52.274v52.473h-52.274zm58.638 27.6c0-1.0234-6.6044-22.905-10.938-19.119 0 0-12.836 12.429-13.35 11.663-1.9335-2.878-4.5643-4.6474-8.0738-4.6474-5.4768 0-9.9166 4.8191-9.9166 10.764 0 5.9447 4.4398 10.764 9.9166 10.764 3.6319 0 6.843-2.1897 8.6057-4.9986 0.30514-0.48624 8.782 7.6214 12.003 7.2125 7.0473-0.89446 11.754-10.264 11.754-11.639z" fill="#b0006f" fill-opacity=".42152" stroke-linecap="round" stroke-linejoin="round" stroke-width=".47058"/>
  </clipPath>
  <clipPath id="clipPath3345">
   <path d="m77.583 131.96c-0.17826 0.0431-2.283-0.16984-4.6964-0.4754-2.4053-0.30454-6.3234-0.79944-8.7068-1.0997-15.645-1.9713-24.303-3.0658-33.5-4.2351-3.5239-0.44799-7.4288-0.94268-8.6776-1.0993-1.2488-0.15663-2.429-0.32319-2.6226-0.37015-0.66046-0.16015-0.9819-0.7125-0.92897-1.5963 0.01807-0.30112 0.16217-5.815 0.3203-12.253l0.28751-11.706 26.553-26.553 1.5601-0.0268c0.85804-0.01471 6.4124-0.12798 12.343-0.25165 6.8764-0.1434 10.89-0.18068 11.077-0.1029 0.21631 0.0896 0.34124 0.20282 0.47074 0.42663 0.12302 0.21259 1.2704 8.9984 3.7971 29.075 1.9914 15.823 3.6112 28.97 3.5995 29.214-0.0254 0.52718-0.35863 0.92792-0.87617 1.0534zm-14.499-22.437c-5.7908-9.6496-10.567-17.609-10.614-17.688-0.08053-0.1353-0.45574 0.22804-7.1917 6.964-6.736 6.7359-7.0993 7.1112-6.964 7.1917 0.07851 0.0467 8.0379 4.8229 17.688 10.614 9.6496 5.7908 17.56 10.514 17.578 10.496 0.0181-0.0183-4.7051-7.928-10.496-17.578zm-9.0446 8.5566-17.487-10.489-7.4201 7.387c-6.1162 6.0889-7.3993 7.3964-7.3016 7.4399 0.21542 0.0959 49.775 6.2974 49.735 6.2234-0.0217-0.0399-7.9085-4.7925-17.526-10.561zm18.015-17.942c-1.7077-13.567-3.1287-24.721-3.1578-24.786-0.0435-0.0978-1.35 1.1844-7.4399 7.3015l-7.387 7.4201 10.489 17.487c5.7689 9.6179 10.516 17.516 10.55 17.552 0.0336 0.0354 0.0587-0.019 0.056-0.12105-0.0021-0.10221-1.402-11.286-3.1097-24.853zm-37.717 6.3274c-0.12727-0.12727-13.157-5.1734-13.187-5.1068-0.05215 0.1179-0.55995 18.812-0.51235 18.861 0.02638 0.0273 3.1366-3.039 6.9117-6.8141 5.2171-5.2171 6.8455-6.8822 6.7873-6.9404zm15.655-15.681c-0.12846-0.0797-15.393-2.7615-15.442-2.713-0.04907 0.0486 2.6322 15.312 2.7124 15.441 0.05881 0.0945 1.0387-0.85793 6.4548-6.274 5.3979-5.3979 6.3683-6.3961 6.2746-6.4542zm16.707-16.625c-0.0496-0.0477-18.744 0.46026-18.862 0.5125-0.0673 0.0298 4.977 13.056 5.1056 13.185 0.06019 0.0602 1.6489-1.4929 6.9419-6.7858 3.7751-3.7751 6.8415-6.8854 6.8141-6.9117zm-33.026 22.349c-0.70558-4.0393-1.3107-7.372-1.3446-7.406-0.03845-0.0385-1.9651 1.8416-5.1039 4.9804-4.0917 4.0917-5.0262 5.0581-4.9577 5.1267 0.04649 0.0465 2.8231 1.1491 6.1702 2.4503 3.3471 1.3012 6.1845 2.4088 6.3053 2.4614 0.18892 0.0823 0.2192 0.0702 0.21658-0.0864-0.0016-0.10017-0.58034-3.487-1.2859-7.5263zm14.524-14.419c-1.3359-3.4232-2.4658-6.2604-2.5108-6.3049-0.06484-0.0639-1.134 0.97131-5.124 4.9614-3.1596 3.1596-5.019 5.0654-4.98 5.1043 0.03417 0.0342 2.7686 0.53484 6.0765 1.1126 8.8001 1.537 8.9819 1.5665 8.9743 1.4539-0.0031-0.0568-1.1001-2.904-2.436-6.3273z" fill="#f00"/>
  </clipPath>
  <clipPath id="clipath_lpe_path-effect6954">
   <path d="m77.583 131.96c-0.17826 0.0431-2.283-0.16984-4.6964-0.4754-2.4053-0.30454-6.3234-0.79944-8.7068-1.0997-15.645-1.9713-24.303-3.0658-33.5-4.2351-3.5239-0.44799-7.4288-0.94268-8.6776-1.0993-1.2488-0.15663-2.429-0.32319-2.6226-0.37015-0.66046-0.16015-0.9819-0.7125-0.92897-1.5963 0.01807-0.30112 0.16217-5.815 0.3203-12.253l0.28751-11.706 26.553-26.553 1.5601-0.0268c0.85804-0.01471 6.4124-0.12798 12.343-0.25165 6.8764-0.1434 10.89-0.18068 11.077-0.1029 0.21631 0.0896 0.34124 0.20282 0.47074 0.42663 0.12302 0.21259 1.2704 8.9984 3.7971 29.075 1.9914 15.823 3.6112 28.97 3.5995 29.214-0.0254 0.52718-0.35863 0.92792-0.87617 1.0534zm-14.499-22.437c-5.7908-9.6496-10.567-17.609-10.614-17.688-0.08053-0.1353-0.45574 0.22804-7.1917 6.964-6.736 6.7359-7.0993 7.1112-6.964 7.1917 0.07851 0.0467 8.0379 4.8229 17.688 10.614 9.6496 5.7908 17.56 10.514 17.578 10.496 0.0181-0.0183-4.7051-7.928-10.496-17.578zm-9.0446 8.5566-17.487-10.489-7.4201 7.387c-6.1162 6.0889-7.3993 7.3964-7.3016 7.4399 0.21542 0.0959 49.775 6.2974 49.735 6.2234-0.0217-0.0399-7.9085-4.7925-17.526-10.561zm18.015-17.942c-1.7077-13.567-3.1287-24.721-3.1578-24.786-0.0435-0.0978-1.35 1.1844-7.4399 7.3015l-7.387 7.4201 10.489 17.487c5.7689 9.6179 10.516 17.516 10.55 17.552 0.0336 0.0354 0.0587-0.019 0.056-0.12105-0.0021-0.10221-1.402-11.286-3.1097-24.853zm-37.717 6.3274c-0.12727-0.12727-13.157-5.1734-13.187-5.1068-0.05215 0.1179-0.55995 18.812-0.51235 18.861 0.02638 0.0273 3.1366-3.039 6.9117-6.8141 5.2171-5.2171 6.8455-6.8822 6.7873-6.9404zm15.655-15.681c-0.12846-0.0797-15.393-2.7615-15.442-2.713-0.04907 0.0486 2.6322 15.312 2.7124 15.441 0.05881 0.0945 1.0387-0.85793 6.4548-6.274 5.3979-5.3979 6.3683-6.3961 6.2746-6.4542zm16.707-16.625c-0.0496-0.0477-18.744 0.46026-18.862 0.5125-0.0673 0.0298 4.977 13.056 5.1056 13.185 0.06019 0.0602 1.6489-1.4929 6.9419-6.7858 3.7751-3.7751 6.8415-6.8854 6.8141-6.9117zm-33.026 22.349c-0.70558-4.0393-1.3107-7.372-1.3446-7.406-0.03845-0.0385-1.9651 1.8416-5.1039 4.9804-4.0917 4.0917-5.0262 5.0581-4.9577 5.1267 0.04649 0.0465 2.8231 1.1491 6.1702 2.4503 3.3471 1.3012 6.1845 2.4088 6.3053 2.4614 0.18892 0.0823 0.2192 0.0702 0.21658-0.0864-0.0016-0.10017-0.58034-3.487-1.2859-7.5263zm14.524-14.419c-1.3359-3.4232-2.4658-6.2604-2.5108-6.3049-0.06484-0.0639-1.134 0.97131-5.124 4.9614-3.1596 3.1596-5.019 5.0654-4.98 5.1043 0.03417 0.0342 2.7686 0.53484 6.0765 1.1126 8.8001 1.537 8.9819 1.5665 8.9743 1.4539-0.0031-0.0568-1.1001-2.904-2.436-6.3273z" display="none" fill="#f00"/>
   <path class="powerclip" d="m23.208 75.895h52.274v52.473h-52.274zm54.375 56.062c0.51754-0.12544 0.85077-0.52618 0.87617-1.0534 0.01173-0.24429-1.6081-13.391-3.5995-29.214-2.5266-20.076-3.6741-28.862-3.7971-29.075-0.1295-0.22381-0.25443-0.33703-0.47074-0.42663-0.18778-0.07778-4.2011-0.0405-11.077 0.1029-5.9306 0.12367-11.485 0.23694-12.343 0.25165l-1.5601 0.0268-26.553 26.553-0.28751 11.706c-0.15813 6.4381-0.30223 11.952-0.3203 12.253-0.05293 0.88376 0.26851 1.4361 0.92897 1.5963 0.19366 0.047 1.3738 0.21352 2.6226 0.37015 1.2488 0.15661 5.1537 0.6513 8.6776 1.0993 9.1971 1.1692 17.855 2.2638 33.5 4.2351 2.3834 0.3003 6.3015 0.7952 8.7068 1.0997 2.4134 0.30556 4.5181 0.5185 4.6964 0.4754zm-14.499-22.437c-5.7908-9.6496-10.567-17.609-10.614-17.688-0.08053-0.1353-0.45574 0.22804-7.1917 6.964-6.736 6.7359-7.0993 7.1112-6.964 7.1917 0.07851 0.0467 8.0379 4.8229 17.688 10.614 9.6496 5.7908 17.56 10.514 17.578 10.496 0.0181-0.0183-4.7051-7.928-10.496-17.578zm-9.0446 8.5566-17.487-10.489-7.4201 7.387c-6.1162 6.0889-7.3993 7.3964-7.3016 7.4399 0.21542 0.0959 49.775 6.2974 49.735 6.2234-0.0217-0.0399-7.9085-4.7925-17.526-10.561zm18.015-17.942c-1.7077-13.567-3.1287-24.721-3.1578-24.786-0.0435-0.0978-1.35 1.1844-7.4399 7.3015l-7.387 7.4201 10.489 17.487c5.7689 9.6179 10.516 17.516 10.55 17.552 0.0336 0.0354 0.0587-0.019 0.056-0.12105-0.0021-0.10221-1.402-11.286-3.1097-24.853zm-37.717 6.3274c-0.12727-0.12727-13.157-5.1734-13.187-5.1068-0.05215 0.1179-0.55995 18.812-0.51235 18.861 0.02638 0.0273 3.1366-3.039 6.9117-6.8141 5.2171-5.2171 6.8455-6.8822 6.7873-6.9404zm15.655-15.681c-0.12846-0.0797-15.393-2.7615-15.442-2.713-0.04907 0.0486 2.6322 15.312 2.7124 15.441 0.05881 0.0945 1.0387-0.85793 6.4548-6.274 5.3979-5.3979 6.3683-6.3961 6.2746-6.4542zm16.707-16.625c-0.0496-0.0477-18.744 0.46026-18.862 0.5125-0.0673 0.0298 4.977 13.056 5.1056 13.185 0.06019 0.0602 1.6489-1.4929 6.9419-6.7858 3.7751-3.7751 6.8415-6.8854 6.8141-6.9117zm-33.026 22.349c-0.70558-4.0393-1.3107-7.372-1.3446-7.406-0.03845-0.0385-1.9651 1.8416-5.1039 4.9804-4.0917 4.0917-5.0262 5.0581-4.9577 5.1267 0.04649 0.0465 2.8231 1.1491 6.1702 2.4503 3.3471 1.3012 6.1845 2.4088 6.3053 2.4614 0.18892 0.0823 0.2192 0.0702 0.21658-0.0864-0.0016-0.10017-0.58034-3.487-1.2859-7.5263zm14.524-14.419c-1.3359-3.4232-2.4658-6.2604-2.5108-6.3049-0.06484-0.0639-1.134 0.97131-5.124 4.9614-3.1596 3.1596-5.019 5.0654-4.98 5.1043 0.03417 0.0342 2.7686 0.53484 6.0765 1.1126 8.8001 1.537 8.9819 1.5665 8.9743 1.4539-0.0031-0.0568-1.1001-2.904-2.436-6.3273z" fill="#f00"/>
  </clipPath>
  <clipPath id="clipath_lpe_path-effect6950">
   <path d="m81.846 103.5c0 1.3744-4.7062 10.744-11.754 11.639-3.2211 0.40883-11.698-7.6988-12.003-7.2125-1.7628 2.809-4.9738 4.9986-8.6057 4.9986-5.4768 0-9.9166-4.8191-9.9166-10.764 0-5.9447 4.4398-10.764 9.9166-10.764 3.5095 0 6.1403 1.7694 8.0738 4.6474 0.5145 0.76584 13.35-11.663 13.35-11.663 4.3338-3.7861 10.938 18.095 10.938 19.119z" display="none" fill="#b0006f" fill-opacity=".42152" stroke-linecap="round" stroke-linejoin="round" stroke-width=".47058"/>
   <path class="powerclip" d="m23.208 75.895h52.274v52.473h-52.274zm58.638 27.6c0-1.0234-6.6044-22.905-10.938-19.119 0 0-12.836 12.429-13.35 11.663-1.9335-2.878-4.5643-4.6474-8.0738-4.6474-5.4768 0-9.9166 4.8191-9.9166 10.764 0 5.9447 4.4398 10.764 9.9166 10.764 3.6319 0 6.843-2.1897 8.6057-4.9986 0.30514-0.48624 8.782 7.6214 12.003 7.2125 7.0473-0.89446 11.754-10.264 11.754-11.639z" fill="#b0006f" fill-opacity=".42152" stroke-linecap="round" stroke-linejoin="round" stroke-width=".47058"/>
  </clipPath>
 </defs>
 <g transform="translate(-324.59 177.55)">
  <g>
   <ellipse transform="translate(119.34 5.6178)" d="M 70.482199,102.13184 A 21.137011,21.236675 0 0 1 49.345188,123.36852 21.137011,21.236675 0 0 1 28.208178,102.13184 21.137011,21.236675 0 0 1 49.345188,80.895168 21.137011,21.236675 0 0 1 70.482199,102.13184 Z" clip-path="url(#clipath_lpe_path-effect6954)" fill="#fff"/>
   <ellipse transform="translate(46.039 -11.949)" d="M 70.482199,102.13184 A 21.137011,21.236675 0 0 1 49.345188,123.36852 21.137011,21.236675 0 0 1 28.208178,102.13184 21.137011,21.236675 0 0 1 49.345188,80.895168 21.137011,21.236675 0 0 1 70.482199,102.13184 Z" clip-path="url(#clipPath2081)" stroke-linecap="round" stroke-linejoin="round" stroke-width=".33785"/>
   <path d="m123.62 120.01c-0.17826 0.0431-2.283-0.16985-4.6964-0.47542-2.4053-0.30454-6.3234-0.79942-8.7068-1.0997-15.645-1.9713-24.303-3.0658-33.5-4.235-3.5239-0.44801-7.4288-0.9427-8.6776-1.0993-1.2488-0.15661-2.429-0.32318-2.6226-0.37015-0.66045-0.16014-0.9819-0.71249-0.92897-1.5963 0.01806-0.30111-0.16856-5.815-0.01043-12.253l-0.04322-11.706 13.938-13.276 13.276-13.706 1.5601-0.0268c0.85804-0.01474 6.4124 0.10353 12.343-0.02014 6.8764-0.1434 10.89 0.01776 11.077 0.09554 0.21631 0.0896 0.34124 0.20281 0.47074 0.42663 0.12302 0.2126 1.2704 8.9984 3.7971 29.075 1.9914 15.823 3.6112 28.97 3.5995 29.214-0.0254 0.52718-0.35863 0.92792-0.87617 1.0534zm-14.499-22.437c-5.7908-9.6496-10.567-17.609-10.614-17.688-0.08053-0.1353-0.45575 0.22804-7.1917 6.964-6.736 6.7359-7.0993 7.1112-6.964 7.1917 0.07851 0.04674 8.0379 4.8229 17.688 10.614 9.6496 5.7908 17.56 10.514 17.578 10.496 0.0181-0.0181-4.7051-7.928-10.496-17.578zm-9.0446 8.5567-17.487-10.489-7.4201 7.3871c-6.1162 6.0889-7.3993 7.3963-7.3016 7.4399 0.21542 0.0959 49.775 6.2974 49.735 6.2234-0.0217-0.0399-7.9084-4.7925-17.526-10.561zm18.015-17.942c-1.7077-13.567-3.1287-24.721-3.1578-24.786-0.0435-0.09779-1.35 1.1844-7.4399 7.3015l-7.387 7.4201 10.489 17.487c5.7689 9.6179 10.516 17.516 10.55 17.552 0.0336 0.0354 0.0587-0.0189 0.056-0.12104-2e-3 -0.1022-1.402-11.286-3.1097-24.853zm-37.718 6.3274c-0.12727-0.12727-13.819-5.1734-13.848-5.1068-0.05215 0.1179 0.10151 18.812 0.14911 18.861 0.02637 0.0273 3.1366-3.039 6.9117-6.8141 5.2171-5.2171 6.8455-6.8822 6.7873-6.9404zm15.655-15.681c-0.12846-0.07971-15.393-2.7615-15.442-2.713-0.04907 0.04859 2.6322 15.312 2.7124 15.441 0.05881 0.09451 1.0387-0.85792 6.4548-6.274 5.3979-5.3979 6.3683-6.3961 6.2746-6.4542zm16.707-16.625c-0.0496-0.04765-18.744 0.03031-18.862 0.08255-0.0673 0.02977 4.977 13.486 5.1056 13.615 0.06019 0.06016 1.649-1.4929 6.9419-6.7858 3.7751-3.7751 6.8415-6.8854 6.8141-6.9117zm-33.026 22.349c-0.70558-4.0393-1.3107-7.372-1.3446-7.406-0.03845-0.03845-1.9651 1.8416-5.1039 4.9804-4.0917 4.0917-5.6877 5.0581-5.6191 5.1267 0.04649 0.04649 3.4845 1.1491 6.8317 2.4503 3.3471 1.3012 6.1845 2.4088 6.3053 2.4614 0.18892 0.08231 0.2192 0.07023 0.21658-0.08645-0.0017-0.10017-0.58034-3.487-1.2859-7.5263zm14.524-14.419c-1.3359-3.4232-2.4658-6.6904-2.5108-6.7348-0.06484-0.06387-1.134 1.4013-5.124 5.3913-3.1596 3.1596-5.019 5.0654-4.98 5.1043 0.03417 0.03417 2.7686 0.53484 6.0765 1.1126 8.8001 1.537 8.9819 1.5665 8.9743 1.4539-0.0031-0.05676-1.1001-2.904-2.436-6.3273z"/>
   <ellipse transform="translate(46.039 -11.949)" d="M 70.482199,102.13184 A 21.137011,21.236675 0 0 1 49.345188,123.36852 21.137011,21.236675 0 0 1 28.208178,102.13184 21.137011,21.236675 0 0 1 49.345188,80.895168 21.137011,21.236675 0 0 1 70.482199,102.13184 Z" clip-path="url(#clipPath3345)" fill="#fff"/>
  </g>
  <rect x="65.266" y="60.726" width="58.12" height="58.12" ry="0" fill="none" stroke="#000" stroke-linecap="round" stroke-linejoin="round" stroke-width="2.1903"/>
  <path d="m111.36 101.21 1.5902 1.2161 0.78298-1.6248-10.087-16.718c-1.4359-1.3744-2.0995-2.6457-5.2586-4.2499z"/>
  <path d="m95.465 79.474 0.51263 0.04961 2.4143 0.31419-0.04961 0.64492-2.1993 20.191-0.46302 0.56224s-9.3927-4.994-9.3266-5.1263c0.06615-0.13229 0.92604-0.8599 0.92604-0.8599l-1.0253-2.7781-1.0253-0.23151 0.39688-2.2159-0.29766-0.06615 0.7276-1.2898 7.276-8.5659z" fill="#fdffff"/>
  <g>
   <path d="m85.616 89.428 0.1995 2.9443 12.692-12.439c-1.0211-0.23074-2.0737-0.54002-2.9769-0.47595z"/>
   <ellipse transform="translate(119.34 5.6178)" d="M 70.482199,102.13184 A 21.137011,21.236675 0 0 1 49.345188,123.36852 21.137011,21.236675 0 0 1 28.208178,102.13184 21.137011,21.236675 0 0 1 49.345188,80.895168 21.137011,21.236675 0 0 1 70.482199,102.13184 Z" clip-path="url(#clipath_lpe_path-effect6950)" stroke-linecap="round" stroke-linejoin="round" stroke-width=".33785"/>
   <path d="m196.92 137.57c-0.17825 0.0431-2.283-0.16985-4.6964-0.47542-2.4053-0.30454-6.3234-0.79942-8.7068-1.0997-15.645-1.9713-24.303-3.0658-33.5-4.235-3.5239-0.44801-7.4288-0.9427-8.6776-1.0993s-2.429-0.32318-2.6226-0.37015c-0.66046-0.16014-0.9819-0.71249-0.92897-1.5963 0.0181-0.30111-0.16856-5.815-0.0104-12.253l-0.0432-11.706 13.938-13.276 13.276-13.706 1.5601-0.0268c0.85804-0.01474 6.4124 0.10353 12.343-0.02014 6.8764-0.1434 10.89 0.01776 11.077 0.09554 0.2163 0.0896 0.34123 0.20281 0.47074 0.42663 0.12302 0.2126 1.2704 8.9984 3.7971 29.075 1.9914 15.823 3.6112 28.97 3.5995 29.214-0.0254 0.52718-0.35864 0.92792-0.87618 1.0534zm-14.499-22.437c-5.7908-9.6496-10.567-17.609-10.614-17.688-0.0805-0.1353-0.45575 0.22804-7.1917 6.964-6.736 6.736-7.0993 7.1112-6.964 7.1917 0.0785 0.0467 8.0379 4.8229 17.688 10.614 9.6496 5.7908 17.56 10.514 17.578 10.496 0.0181-0.0181-4.7051-7.928-10.496-17.578zm-9.0446 8.5567-17.487-10.489-7.4201 7.3871c-6.1162 6.0889-7.3993 7.3963-7.3016 7.4399 0.21541 0.0959 49.775 6.2974 49.735 6.2234-0.0217-0.0399-7.9084-4.7925-17.526-10.561zm18.015-17.942c-1.7077-13.567-3.1287-24.721-3.1578-24.786-0.0435-0.09779-1.35 1.1844-7.4399 7.3015l-7.387 7.4201 10.489 17.487c5.7689 9.6179 10.516 17.516 10.55 17.552 0.0336 0.0354 0.0587-0.0189 0.056-0.12104-2e-3 -0.1022-1.402-11.286-3.1097-24.853zm-37.718 6.3274c-0.12727-0.12726-13.819-5.1734-13.848-5.1068-0.0522 0.1179 0.10151 18.812 0.14911 18.861 0.0264 0.0273 3.1366-3.039 6.9117-6.8141 5.2171-5.2171 6.8455-6.8822 6.7873-6.9404zm15.655-15.681c-0.12845-0.07971-15.393-2.7615-15.442-2.713-0.0491 0.04859 2.6322 15.312 2.7124 15.441 0.0588 0.0945 1.0387-0.85792 6.4548-6.274 5.3979-5.3979 6.3683-6.3961 6.2746-6.4542zm16.707-16.625c-0.0496-0.04765-18.744 0.03031-18.862 0.08255-0.0673 0.02977 4.977 13.486 5.1056 13.615 0.0602 0.06016 1.649-1.4929 6.9419-6.7858 3.7751-3.7751 6.8415-6.8854 6.8141-6.9117zm-33.026 22.349c-0.70558-4.0393-1.3107-7.372-1.3446-7.406-0.0384-0.03845-1.9651 1.8416-5.1039 4.9804-4.0917 4.0917-5.6877 5.0581-5.6191 5.1267 0.0465 0.0465 3.4845 1.1491 6.8317 2.4503s6.1845 2.4088 6.3053 2.4614c0.18892 0.0823 0.2192 0.0702 0.21658-0.0864-2e-3 -0.10017-0.58034-3.487-1.2859-7.5263zm14.524-14.419c-1.3359-3.4232-2.4658-6.6904-2.5108-6.7348-0.0648-0.06387-1.134 1.4013-5.124 5.3913-3.1596 3.1596-5.019 5.0654-4.98 5.1043 0.0342 0.03417 2.7686 0.53484 6.0765 1.1126 8.8001 1.537 8.982 1.5665 8.9742 1.4539-3e-3 -0.05676-1.1001-2.904-2.436-6.3273z"/>
  </g>
  <rect x="138.56" y="78.293" width="58.12" height="58.12" ry="0" fill="none" stroke="#000" stroke-linecap="round" stroke-linejoin="round" stroke-width="2.1903"/>
  <g>
   <path d="m184.66 118.78 1.5902 1.2161 0.78298-1.6248-10.087-16.718c-1.4359-1.3744-2.0994-2.6457-5.2586-4.2499z"/>
   <path d="m158.91 107 0.19949 2.9443 12.692-12.439c-1.0211-0.23074-2.0737-0.54002-2.9769-0.47595z"/>
   <path d="m331.11-164.62c-3.312-3.8593-6.0267-7.0395-6.0327-7.0672-6e-3 -0.0276 1.181-1.2806 2.6376-2.7843l2.6484-2.7341 13.879 4e-3 2.687 2.7716c1.4778 1.5244 2.6921 2.7937 2.6983 2.8206 6e-3 0.0269-2.7811 3.1641-6.1941 6.9716s-6.2272 6.9477-6.2537 6.9782c-0.0394 0.0456-1.1403-1.2169-6.0701-6.9614zm6.2159 6.0641c0.012-0.0634 0.78151-2.9516 1.71-6.4182 0.92853-3.4666 1.7002-6.3546 1.7148-6.4178l0.0266-0.11484-3.5208 0.0216-9e-3 6.5447c-5e-3 3.7263-0.13922 7.2319-0.12011 7.2191 0.0184-0.0123 0.18731-0.77121 0.1993-0.83461zm-0.69456-7.4e-4c-0.0406-0.063-1.7884-2.9882-3.8842-6.5006-2.0958-3.5124-3.8308-6.4098-3.8556-6.4386-0.0352-0.041-0.41653-0.0502-1.7453-0.0416l-1.7002 0.0108 5.6134 6.5422c3.0874 3.5982 6.1197 7.2806 6.1286 7.2806 8e-3 0-0.516-0.78995-0.55655-0.85287zm0.43461-12.897c-0.0142-0.0406-0.39543-0.0521-1.7276-0.0521-0.94015 0-1.7094 0.0103-1.7094 0.0229 0 0.0426 3.5075 13.757 3.5352 13.82 0.0298 0.0681-0.0683-13.706-0.0982-13.791zm6.1406 6.771c2.5921-2.8946 5.0127-5.5916 5.3791-5.9935 0.36642-0.40183 0.66621-0.7435 0.66621-0.75927 0-0.0158-0.81845-0.0287-1.8188-0.0287h-1.8188l-3.9103 6.371c-2.1507 3.504-4.501 7.3061-4.5193 7.343-0.0536 0.1085 1.0617-1.3936 6.0218-6.9326zm-6.0254 6.823c-0.0257 0.0327-1.1913-3.8556-2.0996-7.3222-0.90835-3.4666-1.6552-6.307-1.6596-6.312-4e-3 -6e-3 -0.9704-0.0143-2.1466-0.0208-1.8378-0.0101-2.1356-4e-3 -2.1175 0.0475 0.0308 0.0867 7.5243 12.892 7.8804 13.396 0.2532 0.35835 0.20672 0.13034 0.18109 0.16302zm4.3109-7.2586c2.1333-3.4774 3.8743-6.3274 3.8688-6.3332-0.0165-0.0178-4.37-0.0178-4.3864-1e-5 -0.014 0.0152-3.7005 13.524-3.7535 13.758-0.0129 0.0572-0.0237-0.14457-0.0123-0.15602 0.0114-0.0114 2.15-3.7916 4.2834-7.269zm-0.83861-6.5769c0-0.024-3.2738-4.7366-3.3645-4.8431-0.0436-0.0513-0.0519 0.32759-0.0519 2.3806v2.4415l0.5086 0.013c0.99871 0.0254 2.9077 0.0307 2.9077 8e-3zm4.1784-2.3796c-0.33474-1.3214-0.62709-2.4751-0.64967-2.5637-0.0377-0.14753-0.0453-0.15451-0.0901-0.0833-0.18118 0.28763-2.9053 4.9296-2.9242 4.9829-0.0215 0.0606 0.17099 0.0666 2.1245 0.0666h2.1481zm3.8365 1.7266c-3.2757-3.3734-4.3105-4.4344-4.3173-4.427-7e-3 8e-3 1.2349 4.9388 1.2727 5.0511 0.0137 0.0406 0.42078 0.052 1.8593 0.052h1.8418zm-19.823 0.56165c0.54313-1.9701 1.3305-4.8899 1.3213-4.8998-6e-3 -7e-3 -1.087 1.0944-2.4004 2.4484l-2.388 2.4618 0.469 0.0228c0.25795 0.0125 1.0335 0.0266 1.7235 0.0312 1.1655 8e-3 1.256 3e-3 1.2746-0.0644zm4.1988-0.52004c-1.9863-3.3447-2.6074-4.3804-2.6324-4.3897-0.0161-6e-3 -0.32964 1.0892-0.69668 2.4338s-0.67491 2.4681-0.68414 2.4967c-0.0133 0.0412 0.43804 0.0521 2.1742 0.0521h2.191zm4.0392-1.8618c0-1.35-0.013-2.4538-0.0287-2.4528-0.0272 2e-3 -3.3538 4.7947-3.3811 4.8715-7e-3 0.0198 0.75132 0.036 1.6986 0.036h1.7114zm5.4082-0.22099c0.8468-1.4373 1.5396-2.6214 1.5396-2.6314 0-0.01-1.53-0.0182-3.3999-0.0182-2.8041 0-3.3978 0.01-3.3875 0.0552 0.0236 0.10513 3.653 5.2724 3.6806 5.2402 0.0151-0.0178 0.72047-1.2084 1.5673-2.6456zm-7.1977-0.0636c0.96316-1.3921 1.7512-2.5435 1.7512-2.5586 0-0.0151-1.4783-0.0275-3.2852-0.0275-1.8864 0-3.2797 0.0156-3.2724 0.0368 0.03 0.0864 3.0091 5.079 3.031 5.0797 0.0131 4.6e-4 0.81217-1.1382 1.7753-2.5304z" fill="#fff" stroke="#fff" stroke-width=".7"/>
   <path d="m284.29-169.87c-3.312-3.8593-6.0267-7.0395-6.0327-7.0672-6e-3 -0.0276 1.181-1.2806 2.6376-2.7843l2.6484-2.7341 13.879 4e-3 2.687 2.7716c1.4778 1.5244 2.6921 2.7937 2.6983 2.8206 6e-3 0.0269-2.7811 3.1641-6.1941 6.9716s-6.2272 6.9477-6.2537 6.9782c-0.0394 0.0456-1.1403-1.2169-6.0701-6.9614zm6.2159 6.0641c0.012-0.0634 0.78151-2.9516 1.71-6.4182 0.92853-3.4666 1.7002-6.3546 1.7148-6.4178l0.0266-0.11484-3.5208 0.0216-9e-3 6.5447c-5e-3 3.7263-0.13922 7.2319-0.12011 7.2191 0.0184-0.0123 0.18731-0.77121 0.1993-0.83461zm-0.69456-7.4e-4c-0.0406-0.063-1.7884-2.9882-3.8842-6.5006-2.0958-3.5124-3.8308-6.4098-3.8556-6.4386-0.0352-0.041-0.41653-0.0502-1.7453-0.0416l-1.7002 0.0108 5.6134 6.5422c3.0874 3.5982 6.1197 7.2806 6.1286 7.2806 8e-3 0-0.516-0.78995-0.55655-0.85287zm0.43461-12.897c-0.0142-0.0406-0.39543-0.0521-1.7276-0.0521-0.94015 0-1.7094 0.0103-1.7094 0.0229 0 0.0426 3.5075 13.757 3.5352 13.82 0.0298 0.0681-0.0683-13.706-0.0982-13.791zm6.1406 6.771c2.5921-2.8946 5.0127-5.5916 5.3791-5.9935 0.36642-0.40183 0.66621-0.7435 0.66621-0.75927 0-0.0158-0.81845-0.0287-1.8188-0.0287h-1.8188l-3.9103 6.371c-2.1507 3.504-4.501 7.3061-4.5193 7.343-0.0536 0.1085 1.0617-1.3936 6.0218-6.9326zm-6.0254 6.823c-0.0257 0.0327-1.1913-3.8556-2.0996-7.3222-0.90835-3.4666-1.6552-6.307-1.6596-6.312-4e-3 -6e-3 -0.9704-0.0143-2.1466-0.0208-1.8378-0.0101-2.1356-4e-3 -2.1175 0.0475 0.0308 0.0867 7.5243 12.892 7.8804 13.396 0.2532 0.35835 0.20672 0.13034 0.18109 0.16302zm4.3109-7.2586c2.1333-3.4774 3.8743-6.3274 3.8688-6.3332-0.0165-0.0178-4.37-0.0178-4.3864-1e-5 -0.014 0.0152-3.7005 13.524-3.7535 13.758-0.0129 0.0572-0.0237-0.14457-0.0123-0.15602 0.0114-0.0114 2.15-3.7916 4.2834-7.269zm-0.83861-6.5769c0-0.024-3.2738-4.7366-3.3645-4.8431-0.0436-0.0513-0.0519 0.32759-0.0519 2.3806v2.4415l0.5086 0.013c0.99871 0.0254 2.9077 0.0307 2.9077 8e-3zm4.1784-2.3796c-0.33474-1.3214-0.62709-2.4751-0.64967-2.5637-0.0377-0.14753-0.0453-0.15451-0.0901-0.0833-0.18118 0.28763-2.9053 4.9296-2.9242 4.9829-0.0215 0.0606 0.17099 0.0666 2.1245 0.0666h2.1481zm3.8365 1.7266c-3.2757-3.3734-4.3105-4.4344-4.3173-4.427-7e-3 8e-3 1.2349 4.9388 1.2727 5.0511 0.0137 0.0406 0.42078 0.052 1.8593 0.052h1.8418zm-19.823 0.56165c0.54313-1.9701 1.3305-4.8899 1.3213-4.8998-6e-3 -7e-3 -1.087 1.0944-2.4004 2.4484l-2.388 2.4618 0.469 0.0228c0.25795 0.0125 1.0335 0.0266 1.7235 0.0312 1.1655 8e-3 1.256 3e-3 1.2746-0.0644zm4.1988-0.52004c-1.9863-3.3447-2.6074-4.3804-2.6324-4.3897-0.0161-6e-3 -0.32964 1.0892-0.69668 2.4338s-0.67491 2.4681-0.68414 2.4967c-0.0133 0.0412 0.43804 0.0521 2.1742 0.0521h2.191zm4.0392-1.8618c0-1.35-0.013-2.4538-0.0287-2.4528-0.0272 2e-3 -3.3538 4.7947-3.3811 4.8715-7e-3 0.0198 0.75132 0.036 1.6986 0.036h1.7114zm5.4082-0.22099c0.8468-1.4373 1.5396-2.6214 1.5396-2.6314 0-0.01-1.53-0.0182-3.3999-0.0182-2.8041 0-3.3978 0.01-3.3875 0.0552 0.0236 0.10513 3.653 5.2724 3.6806 5.2402 0.0151-0.0178 0.72047-1.2084 1.5673-2.6456zm-7.1977-0.0636c0.96316-1.3921 1.7512-2.5435 1.7512-2.5586 0-0.0151-1.4783-0.0275-3.2852-0.0275-1.8864 0-3.2797 0.0156-3.2724 0.0368 0.03 0.0864 3.0091 5.079 3.031 5.0797 0.0131 4.6e-4 0.81217-1.1382 1.7753-2.5304z" stroke="#000" stroke-width=".7"/>
  </g>
 </g>
</svg>
